GeominiExtraLight.ufo
<glyph name="uni0023" format="2">
  <advance width="663"/>
  <unicode hex="0023"/>
  <outline>
    <contour>
      <point x="254.81297524752432" y="727.3047239705434" type="line"/>
      <point x="300.19825056958666" y="727.3047239705434" type="line"/>
      <point x="110.43236802628849" y="1.706162954975218" type="line"/>
      <point x="65.04709270422698" y="1.706162954975218" type="line"/>
    </contour>
    <contour>
      <point x="532.7533830731743" y="727.3047239705434" type="line"/>
      <point x="578.1386583952369" y="727.3047239705434" type="line"/>
      <point x="388.37277585193925" y="1.706162954975218" type="line"/>
      <point x="342.98750052987674" y="1.706162954975218" type="line"/>
    </contour>
    <contour>
      <point x="35.33626218297124" y="559.6146469607897" type="line"/>
      <point x="662.7734245865735" y="559.6146469607897" type="line"/>
      <point x="662.7734245865735" y="513.388532921249" type="line"/>
      <point x="35.33626218297124" y="513.388532921249" type="line"/>
    </contour>
    <contour>
      <point x="0.0" y="295.8205280054331" type="line"/>
      <point x="627.4371624036022" y="295.8205280054331" type="line"/>
      <point x="627.4371624036022" y="246.37455512718276" type="line"/>
      <point x="0.0" y="246.37455512718276" type="line"/>
    </contour>
  </outline>
</glyph>
<glyph name="uni0028" format="2">
  <advance width="328"/>
  <unicode hex="0028"/>
  <outline>
    <contour>
      <point x="45.2578381821713" y="311.0691878797023" type="curve" smooth="yes"/>
      <point x="45.25783818217155" y="658.6194106725951"/>
      <point x="192.7416056886777" y="820.1659589722426"/>
      <point x="327.63070714921486" y="830.5669352110078" type="curve"/>
      <point x="327.6307071492149" y="794.9403390407809" type="line"/>
      <point x="246.09855688095058" y="781.2880658497625"/>
      <point x="95.78646326751294" y="663.1837432871911"/>
      <point x="95.78646326751293" y="320.1517720066058" type="curve" smooth="yes"/>
      <point x="95.78646326751293" y="-17.27116428946846"/>
      <point x="223.42765787839107" y="-140.45613918721983"/>
      <point x="327.63070714921474" y="-158.46745964336705" type="curve"/>
      <point x="327.63070714921446" y="-198.17630165865538" type="line"/>
      <point x="190.46974004938323" y="-187.77532541989012"/>
      <point x="45.2578381821711" y="-25.874689548465682"/>
    </contour>
  </outline>
</glyph>
<glyph name="uni0029" format="2">
  <advance width="318"/>
  <unicode hex="0029"/>
  <outline>
    <contour>
      <point x="282.37286896704364" y="321.32144567264993" type="curve" smooth="yes"/>
      <point x="282.3728689670435" y="-26.228777120242853"/>
      <point x="134.88910146053723" y="-187.7753254198904"/>
      <point x="1.2564034134575624e-13" y="-198.17630165865555" type="curve"/>
      <point x="0.0" y="-162.54970548842866" type="line"/>
      <point x="81.53215026826432" y="-148.8974322974101"/>
      <point x="231.84424388170208" y="-30.793109734838765"/>
      <point x="231.8442438817019" y="312.23886154574643" type="curve" smooth="yes"/>
      <point x="231.8442438817019" y="649.6617978418208"/>
      <point x="104.20304927082377" y="772.8467727395721"/>
      <point x="8.376022756383749e-14" y="790.8580931957193" type="curve"/>
      <point x="3.769210240372687e-13" y="830.5669352110076" type="line"/>
      <point x="137.16096709983165" y="820.1659589722424"/>
      <point x="282.3728689670438" y="658.2653231008179"/>
    </contour>
  </outline>
</glyph>
<glyph name="uni0031" format="2">
  <advance width="460"/>
  <unicode hex="0031"/>
  <outline>
    <contour>
      <point x="221.81280559644645" y="727.3047239705434" type="line"/>
      <point x="270.7864977578003" y="727.3047239705434" type="line"/>
      <point x="270.7864977578003" y="-0.4629258721517405" type="line"/>
      <point x="221.81280559644645" y="-0.4629258721517405" type="line"/>
    </contour>
    <contour>
      <point x="240.04328608843093" y="684.822523105863" type="line"/>
      <point x="18.21930713350222" y="606.9672941768569" type="line"/>
      <point x="5.0252196276390135" y="648.3649993616846" type="line"/>
      <point x="221.81280559644645" y="727.3047239705434" type="line"/>
    </contour>
    <contour>
      <point x="12.636856715007479" y="45.70309298254654" type="line"/>
      <point x="451.5742972013027" y="45.70309298254654" type="line"/>
      <point x="451.5742972013027" y="0.0" type="line"/>
      <point x="12.636856715007479" y="0.0" type="line"/>
    </contour>
  </outline>
</glyph>
<glyph name="uni0032" format="2">
  <advance width="539"/>
  <unicode hex="0032"/>
  <outline>
    <contour>
      <point x="19.481712661107903" y="32.889832908260985" type="line"/>
      <point x="257.29355199286886" y="277.3349380739361"/>
      <point x="439.13316122196284" y="389.46839313442445"/>
      <point x="439.13316122196284" y="537.7825380855062" type="curve" smooth="yes"/>
      <point x="439.1331617934309" y="650.2011134640901"/>
      <point x="350.9425057508733" y="694.9615974813942"/>
      <point x="238.03115702080981" y="694.9615974813942" type="curve" smooth="yes"/>
      <point x="158.1137796280496" y="694.9615974813942"/>
      <point x="94.85090031526789" y="666.410624314621"/>
      <point x="30.382675202343357" y="629.1583905345655" type="curve"/>
      <point x="9.19765323673485" y="673.3294070749521" type="line"/>
      <point x="92.61921435231599" y="717.0269861111118"/>
      <point x="163.36594910758745" y="739.6986790557029"/>
      <point x="233.85800989059433" y="739.6986790557029" type="curve" smooth="yes"/>
      <point x="381.1632539921996" y="739.6986790557029"/>
      <point x="488.7122573575351" y="681.7551037963461"/>
      <point x="488.71225735753507" y="547.8972199941948" type="curve" smooth="yes"/>
      <point x="488.71225735753507" y="377.9207691129974"/>
      <point x="313.6139925363527" y="259.35841084573656"/>
      <point x="76.94994750814632" y="29.243196481985038" type="curve"/>
    </contour>
    <contour>
      <point x="19.481712661107903" y="32.889832908260985" type="line"/>
      <point x="59.58539346634682" y="45.73034830453594" type="line"/>
      <point x="509.50777476990197" y="45.73034830453594" type="line"/>
      <point x="509.50777476990197" y="0.0" type="line"/>
      <point x="19.481712661107903" y="0.0" type="line"/>
    </contour>
  </outline>
</glyph>
<glyph name="uni0034" format="2">
  <advance width="554"/>
  <unicode hex="0034"/>
  <outline>
    <contour>
      <point x="6.277258867157165" y="234.87625486519252" type="line"/>
      <point x="553.8209164353026" y="234.87625486519252" type="line"/>
      <point x="553.8209164353026" y="189.3138069023554" type="line"/>
      <point x="6.277258867157165" y="189.3138069023554" type="line"/>
    </contour>
    <contour>
      <point x="409.28377949296186" y="727.3047239705434" type="line"/>
      <point x="472.41386380967793" y="726.7526900274246" type="line"/>
      <point x="472.41386380967793" y="-1.014959815270424" type="line"/>
      <point x="423.7234631475331" y="-1.014959815270424" type="line"/>
      <point x="423.7234631475331" y="693.2727582963882" type="line"/>
      <point x="438.49302982624243" y="693.2727582963882" type="line"/>
      <point x="65.76699192054183" y="234.87625486519252" type="line"/>
      <point x="6.277258867157165" y="234.87625486519252" type="line"/>
    </contour>
  </outline>
</glyph>
<glyph name="uni0037" format="2">
  <advance width="531"/>
  <unicode hex="0037"/>
  <outline>
    <contour>
      <point x="169.05658712879924" y="0.0" type="line"/>
      <point x="106.8207425243125" y="0.0" type="line"/>
      <point x="474.1509378121678" y="716.0249704887855" type="line"/>
      <point x="487.7195147767439" y="679.9442836908689" type="line"/>
      <point x="0.4340834960048135" y="679.9442836908689" type="line"/>
      <point x="0.4340834960048135" y="727.3047239705434" type="line"/>
      <point x="507.6015861645911" y="727.3047239705434" type="line"/>
      <point x="507.6015861645911" y="681.7445450313835" type="line"/>
    </contour>
  </outline>
</glyph>
<glyph name="uni0039" format="2">
  <advance width="662"/>
  <unicode hex="0039"/>
  <outline>
    <contour>
      <point x="334.1791058518715" y="203.0162900253787" type="curve"/>
      <point x="179.1181410307256" y="203.0162900253787"/>
      <point x="45.90498844987519" y="309.5080454282978"/>
      <point x="45.90498844987519" y="462.7147601794953" type="curve" smooth="yes"/>
      <point x="45.90498844987519" y="621.6106875496777"/>
      <point x="178.55354082900675" y="737.2487550383939"/>
      <point x="332.4948833607996" y="737.2487550383939" type="curve" smooth="yes"/>
      <point x="499.84714649890833" y="737.2487550383939"/>
      <point x="612.2835645540176" y="611.4683217627507"/>
      <point x="612.2835645540176" y="459.20411152985025" type="curve" smooth="yes"/>
      <point x="612.2835645540176" y="264.9331109602707"/>
      <point x="453.77827921165385" y="63.19508668258567"/>
      <point x="240.90522660864858" y="0.0" type="curve"/>
      <point x="153.21525062236628" y="0.0" type="line"/>
      <point x="153.21525062236628" y="35.928407763038656" type="line"/>
      <point x="281.6790036335011" y="42.45160789451978"/>
      <point x="464.24718867500235" y="154.0542521825022"/>
      <point x="522.200998909577" y="301.48962873702914" type="curve"/>
      <point x="554.3851547930072" y="311.27008301463866" type="line"/>
      <point x="497.1309977120327" y="243.85942000283336"/>
      <point x="431.16354809390316" y="203.01629002537874"/>
    </contour>
    <contour>
      <point x="561.224082534203" y="457.2100250900253" type="curve" smooth="yes"/>
      <point x="561.224082534203" y="592.5299819794191"/>
      <point x="467.4865601669608" y="687.0970608392096"/>
      <point x="326.60207599429043" y="687.0970608392096" type="curve" smooth="yes"/>
      <point x="193.96235093665004" y="687.0970608392096"/>
      <point x="95.61244664074903" y="592.6205078467685"/>
      <point x="95.61244513016659" y="462.2691186227366" type="curve" smooth="yes"/>
      <point x="95.61244513016659" y="335.85190066320604"/>
      <point x="204.8319280762231" y="249.42412468613315"/>
      <point x="334.1791058518715" y="249.42412468613315" type="curve" smooth="yes"/>
      <point x="472.452359560148" y="249.42412468613315"/>
      <point x="561.2240811937995" y="341.54380996330974"/>
    </contour>
  </outline>
</glyph>
<glyph name="uni003A" format="2">
  <advance width="236"/>
  <unicode hex="003A"/>
  <outline>
    <contour>
      <point x="117.77912558153838" y="96.2880759878236" type="curve" smooth="yes"/>
      <point x="145.93318831474178" y="96.2880759878236"/>
      <point x="169.0892094167399" y="76.89310136538171"/>
      <point x="169.0892094167399" y="46.586391220508844" type="curve" smooth="yes"/>
      <point x="169.0892094167399" y="16.279681075635818"/>
      <point x="145.93318831474178" y="-3.115293546806079"/>
      <point x="117.77912558153838" y="-3.1152935468060816" type="curve"/>
      <point x="89.62506284833498" y="-3.1152935468060816"/>
      <point x="66.46904174633687" y="16.279681075635814"/>
      <point x="66.46904174633687" y="46.586391220508844" type="curve" smooth="yes"/>
      <point x="66.46904174633687" y="76.89310136538171"/>
      <point x="89.62506284833498" y="96.28807598782359"/>
    </contour>
    <contour>
      <point x="117.77912558153847" y="466.5770321761165" type="curve" smooth="yes"/>
      <point x="145.93318831474187" y="466.5770321761165"/>
      <point x="169.08920941673998" y="447.1820575536746"/>
      <point x="169.08920941673998" y="416.87534740880176" type="curve" smooth="yes"/>
      <point x="169.08920941673998" y="386.56863726392874"/>
      <point x="145.93318831474187" y="367.1736626414868"/>
      <point x="117.77912558153847" y="367.1736626414869" type="curve" smooth="yes"/>
      <point x="89.62506284833506" y="367.1736626414869"/>
      <point x="66.46904174633696" y="386.5686372639288"/>
      <point x="66.46904174633696" y="416.87534740880176" type="curve" smooth="yes"/>
      <point x="66.46904174633696" y="447.1820575536746"/>
      <point x="89.62506284833506" y="466.5770321761165"/>
    </contour>
  </outline>
</glyph>
<glyph name="uni0040" format="2">
  <advance width="976"/>
  <unicode hex="0040"/>
  <outline>
    <contour>
      <point x="643.7315231788361" y="434.3791032029246" type="curve"/>
      <point x="624.021859253834" y="265.0422488540769" type="line"/>
      <point x="594.1849589394768" y="177.95337833355188"/>
      <point x="526.8149629611734" y="85.68162703349208"/>
      <point x="419.9143847074776" y="85.68162703349208" type="curve" smooth="yes"/>
      <point x="320.7638333481836" y="85.68162703349208"/>
      <point x="254.91196123065382" y="170.17579389926357"/>
      <point x="254.91196123065382" y="280.28547328535296" type="curve" smooth="yes"/>
      <point x="254.9119612306538" y="433.31768191230844"/>
      <point x="371.3722728950452" y="561.1479130279533"/>
      <point x="506.0355280112488" y="561.1479130279533" type="curve" smooth="yes"/>
      <point x="576.7149597249954" y="561.1479130279533"/>
      <point x="638.8006768007301" y="501.44791429866075"/>
    </contour>
    <contour>
      <point x="44.369309097292884" y="308.4208965049649" type="curve" smooth="yes"/>
      <point x="44.36930909729284" y="559.0278128166638"/>
      <point x="241.92625923036007" y="760.7165901528908"/>
      <point x="483.80713078940437" y="760.716590152891" type="curve" smooth="yes"/>
      <point x="723.0023075838391" y="760.7165901528911"/>
      <point x="912.5003321411566" y="577.6588903981987"/>
      <point x="912.5003321411566" y="345.20653584088814" type="curve" smooth="yes"/>
      <point x="912.5003321411566" y="189.76242523299345"/>
      <point x="842.9617597800002" y="82.90332128995709"/>
      <point x="733.9505943540125" y="82.90332128995706" type="curve"/>
      <point x="616.3787145674817" y="82.90332128995706"/>
      <point x="584.1190439057094" y="168.42070714251207"/>
      <point x="599.2624230502233" y="264.6089480069356" type="curve" smooth="yes"/>
      <point x="628.8280034968107" y="452.40462730372565" type="line"/>
      <point x="628.8280034968107" y="452.40462730372565" type="line"/>
      <point x="645.5577581530104" y="552.1154106859915" type="line"/>
      <point x="688.9296559679251" y="552.1154106859915" type="line"/>
      <point x="646.7608690328882" y="285.35512710440617" type="line" smooth="yes"/>
      <point x="631.6208241190599" y="193.7271893153314"/>
      <point x="661.052962669587" y="121.16274065739361"/>
      <point x="733.9505943540125" y="121.1627406573936" type="curve" smooth="yes"/>
      <point x="808.181516004193" y="121.1627406573936"/>
      <point x="867.1768233720437" y="199.4111964718494"/>
      <point x="867.1768233720437" y="339.4632165746475" type="curve" smooth="yes"/>
      <point x="867.1768233720437" y="560.5662840531941"/>
      <point x="689.4061468795962" y="717.031272961605"/>
      <point x="484.2040316538545" y="717.0312729616052" type="curve" smooth="yes"/>
      <point x="271.04268570315173" y="717.0312729616052"/>
      <point x="93.75828644619844" y="536.9067475969555"/>
      <point x="93.75828411624373" y="308.4208965049643" type="curve" smooth="yes"/>
      <point x="93.75828157788472" y="75.91343741171175"/>
      <point x="258.40671651470484" y="-86.40806669741323"/>
      <point x="495.86577757972475" y="-86.40806669741326" type="curve" smooth="yes"/>
      <point x="574.8392663700376" y="-86.40806669741326"/>
      <point x="652.3482700987252" y="-63.674620057955835"/>
      <point x="713.9652996881856" y="-25.21828766844927" type="curve"/>
      <point x="733.9505943540125" y="-56.41365219664548" type="line"/>
      <point x="668.8765390621854" y="-104.47061491196999"/>
      <point x="580.490767655934" y="-128.34401761164563"/>
      <point x="493.52030116277007" y="-128.34401761164563" type="curve" smooth="yes"/>
      <point x="216.81153000744428" y="-128.34401761164563"/>
      <point x="44.369309097292955" y="59.89625878346672"/>
    </contour>
    <contour>
      <point x="496.0049655197506" y="515.3856593763824" type="curve" smooth="yes"/>
      <point x="396.56960067326213" y="515.3856593763824"/>
      <point x="308.82743139924264" y="399.16867292015564"/>
      <point x="308.82743139924264" y="279.0818074807498" type="curve" smooth="yes"/>
      <point x="308.82743139924264" y="206.20183114623535"/>
      <point x="342.4768324640025" y="130.29682461495165"/>
      <point x="421.7777542898427" y="130.29682461495167" type="curve" smooth="yes"/>
      <point x="508.79570719046575" y="130.29682461495167"/>
      <point x="610.824639826358" y="217.40665714101073"/>
      <point x="610.8246398263578" y="381.43488820818266" type="curve" smooth="yes"/>
      <point x="610.8246398263578" y="465.6574443629917"/>
      <point x="560.1733982502445" y="515.3856593763824"/>
    </contour>
  </outline>
</glyph>
<glyph name="uni0044" format="2">
  <advance width="700"/>
  <unicode hex="0044"/>
  <anchor x="323" y="709" name="top"/>
  <outline>
    <contour>
      <point x="68.62505243851851" y="727.3047239705434" type="line"/>
      <point x="117.59282372117976" y="727.3047239705434" type="line"/>
      <point x="117.59282372117976" y="-10.472989057552065" type="line"/>
      <point x="68.62505243851851" y="-10.472989057552065" type="line"/>
    </contour>
    <contour>
      <point x="80.12595582399815" y="682.2474654308529" type="line"/>
      <point x="80.12595582399815" y="727.3047239705434" type="line"/>
      <point x="267.02867699051797" y="727.3047239705434" type="line" smooth="yes"/>
      <point x="515.5673259386754" y="727.3047239705434"/>
      <point x="640.9830173790081" y="566.3360332611564"/>
      <point x="640.9830173790082" y="372.17028866529205" type="curve" smooth="yes"/>
      <point x="640.9830173790082" y="167.62845953140155"/>
      <point x="525.4488930494352" y="-10.47298905755207"/>
      <point x="258.57488843118006" y="-10.472989057552065" type="curve" smooth="yes"/>
      <point x="80.12595582399815" y="-10.472989057552065" type="line"/>
      <point x="80.12595582399815" y="31.169462051593058" type="line"/>
      <point x="267.02867699051797" y="31.169462051593058" type="line" smooth="yes"/>
      <point x="491.06114939319446" y="31.169462051593058"/>
      <point x="588.5925644454671" y="179.3308950614307"/>
      <point x="588.592565406909" y="368.4645854018663" type="curve" smooth="yes"/>
      <point x="588.5925663715693" y="558.2313080185638"/>
      <point x="465.29644342659117" y="682.2474654308529"/>
      <point x="260.65746994329027" y="682.2474654308529" type="curve" smooth="yes"/>
    </contour>
  </outline>
</glyph>
<glyph name="uni0046" format="2">
  <advance width="508"/>
  <unicode hex="0046"/>
  <anchor x="254" y="727.3047239705434" name="top"/>
  <anchor x="254" y="-145" name="bottom"/>
  <outline>
    <contour>
      <point x="68.62505243851851" y="726.8483653575454" type="line"/>
      <point x="117.61183068117151" y="726.8483653575454" type="line"/>
      <point x="117.61183068117151" y="-0.4629258721517405" type="line"/>
      <point x="68.62505243851851" y="-0.4629258721517405" type="line"/>
    </contour>
    <contour>
      <point x="97.07680350755737" y="405.55495315863027" type="line"/>
      <point x="392.22784107964145" y="405.55495315863027" type="line"/>
      <point x="392.22784107964145" y="363.4655578119414" type="line"/>
      <point x="97.07680350755737" y="363.4655578119414" type="line"/>
    </contour>
    <contour>
      <point x="97.07680350755737" y="726.8483653575454" type="line"/>
      <point x="507.661250960434" y="726.8483653575454" type="line"/>
      <point x="507.661250960434" y="684.7589700108565" type="line"/>
      <point x="97.07680350755737" y="684.7589700108565" type="line"/>
    </contour>
  </outline>
</glyph>
<glyph name="uni0048" format="2">
  <advance width="695"/>
  <unicode hex="0048"/>
  <anchor x="347" y="727.3047239705434" name="top"/>
  <anchor x="347" y="-145" name="bottom"/>
  <outline>
    <contour>
      <point x="68.62505243851851" y="726.8483653575454" type="line"/>
      <point x="117.61183068117151" y="726.8483653575454" type="line"/>
      <point x="117.61183068117151" y="-0.4629258721517405" type="line"/>
      <point x="68.62505243851851" y="-0.4629258721517405" type="line"/>
    </contour>
    <contour>
      <point x="97.07680350755737" y="405.55495315863027" type="line"/>
      <point x="596.729147541804" y="405.55495315863027" type="line"/>
      <point x="596.729147541804" y="363.4655578119414" type="line"/>
      <point x="97.07680350755737" y="363.4655578119414" type="line"/>
    </contour>
    <contour>
      <point x="577.6013365030213" y="727.3047239705434" type="line"/>
      <point x="626.5881147456744" y="727.3047239705434" type="line"/>
      <point x="626.5881147456744" y="-0.006567259153755149" type="line"/>
      <point x="577.6013365030213" y="-0.006567259153755149" type="line"/>
    </contour>
  </outline>
</glyph>
<glyph name="uni0049" format="2">
  <advance width="186"/>
  <unicode hex="0049"/>
  <anchor x="94" y="711" name="top"/>
  <anchor x="94" y="0" name="bottom"/>
  <outline>
    <contour>
      <point x="68.62505243851851" y="727.3047239705434" type="line"/>
      <point x="117.61183068117151" y="727.3047239705434" type="line"/>
      <point x="117.61183068117151" y="-0.4629258721517405" type="line"/>
      <point x="68.62505243851851" y="-0.4629258721517405" type="line"/>
    </contour>
  </outline>
</glyph>
<glyph name="uni004C" format="2">
  <advance width="490"/>
  <unicode hex="004C"/>
  <anchor x="93" y="714" name="top"/>
  <anchor x="284" y="1" name="bottom"/>
  <outline>
    <contour>
      <point x="68.62505243851851" y="726.8483653575454" type="line"/>
      <point x="117.61183068117151" y="726.8483653575454" type="line"/>
      <point x="117.61183068117151" y="-0.4629258721517405" type="line"/>
      <point x="68.62505243851851" y="-0.4629258721517405" type="line"/>
    </contour>
    <contour>
      <point x="97.07680350755722" y="42.84037941076689" type="line"/>
      <point x="490.3809796769274" y="42.84037941076689" type="line"/>
      <point x="490.3809796769274" y="-0.4629258721517405" type="line"/>
      <point x="97.07680350755722" y="-0.4629258721517405" type="line"/>
    </contour>
  </outline>
</glyph>
<glyph name="uni004D" format="2">
  <advance width="746"/>
  <unicode hex="004D"/>
  <anchor x="373" y="727.3047239705434" name="top"/>
  <anchor x="373" y="-145" name="bottom"/>
  <outline>
    <contour>
      <point x="68.62505243851851" y="727.3047239705434" type="line"/>
      <point x="126.73567851192873" y="726.7601743454733" type="line"/>
      <point x="393.6431367237822" y="236.32390800594186" type="line"/>
      <point x="359.88157247402137" y="236.32390800594186" type="line"/>
      <point x="613.6278088509995" y="726.7601743454733" type="line"/>
      <point x="677.5674248002631" y="726.7601743454733" type="line"/>
      <point x="677.5674248002631" y="-1.014959815270424" type="line"/>
      <point x="626.3751356013854" y="-1.014959815270424" type="line"/>
      <point x="626.3751356013854" y="677.337741946476" type="line"/>
      <point x="642.2840067210489" y="661.3168605870122" type="line"/>
      <point x="626.3751356013854" y="661.3168605870122" type="line"/>
      <point x="394.716248459433" y="201.07938318424962" type="line"/>
      <point x="356.4470171568283" y="201.07938318424962" type="line"/>
      <point x="116.2423591760679" y="645.374338622777" type="line"/>
      <point x="99.57141462512156" y="645.374338622777" type="line"/>
      <point x="116.2423591760679" y="662.1281181472319" type="line"/>
      <point x="116.2423591760679" y="-0.4704101902003322" type="line"/>
      <point x="68.62505243851851" y="-0.4704101902003322" type="line"/>
    </contour>
  </outline>
</glyph>
<glyph name="uni004E" format="2">
  <advance width="677"/>
  <unicode hex="004E"/>
  <anchor x="341" y="713" name="top"/>
  <anchor x="340" y="1" name="bottom"/>
  <outline>
    <contour>
      <point x="68.62505243851851" y="727.3047239705434" type="line"/>
      <point x="112.51360905149623" y="727.3047239705434" type="line"/>
      <point x="112.51360905149623" y="0.0" type="line"/>
      <point x="68.62505243851851" y="0.0" type="line"/>
    </contour>
    <contour>
      <point x="563.4176243955573" y="727.3047239705434" type="line"/>
      <point x="608.0677139026327" y="727.3047239705434" type="line"/>
      <point x="608.0677139026327" y="0.0" type="line"/>
      <point x="563.4176243955573" y="0.0" type="line"/>
    </contour>
    <contour>
      <point x="94.67137727981238" y="727.3047239705434" type="line"/>
      <point x="130.35584082318007" y="727.3047239705434" type="line"/>
      <point x="563.4176243955573" y="57.149539177942934" type="line"/>
      <point x="585.5934362205718" y="57.149539177942934" type="line"/>
      <point x="585.5934362205718" y="0.0" type="line"/>
      <point x="548.9947681087309" y="0.0" type="line"/>
      <point x="112.51360905149623" y="672.7085007440338" type="line"/>
      <point x="94.67137727981238" y="672.7085007440338" type="line"/>
    </contour>
  </outline>
</glyph>
<glyph name="uni0054" format="2">
  <advance width="559"/>
  <unicode hex="0054"/>
  <anchor x="279" y="709" name="top"/>
  <anchor x="274" y="1" name="bottom"/>
  <outline>
    <contour>
      <point x="254.89578417840232" y="711.4967488863455" type="line"/>
      <point x="303.8825624210553" y="711.4967488863455" type="line"/>
      <point x="303.8825624210553" y="-0.4629258721517405" type="line"/>
      <point x="254.89578417840232" y="-0.4629258721517405" type="line"/>
    </contour>
    <contour>
      <point x="6.2701862802934825" y="727.3047239705434" type="line"/>
      <point x="552.5081603191641" y="727.3047239705434" type="line"/>
      <point x="552.5081603191641" y="682.0537336070149" type="line"/>
      <point x="6.2701862802934825" y="682.0537336070149" type="line"/>
    </contour>
  </outline>
</glyph>
<glyph name="uni0056" format="2">
  <advance width="678"/>
  <unicode hex="0056"/>
  <anchor x="339" y="727.3047239705434" name="top"/>
  <anchor x="339" y="-145" name="bottom"/>
  <outline>
    <contour>
      <point x="358.03783282076955" y="-1.014959815270424" type="line"/>
      <point x="319.3383991966662" y="-1.014959815270424" type="line"/>
      <point x="12.277554163609908" y="727.3047239705434" type="line"/>
      <point x="62.145820420961144" y="727.3047239705434" type="line"/>
      <point x="355.356674769028" y="35.273324338619254" type="line"/>
      <point x="327.34772202929" y="35.26202209177774" type="line"/>
      <point x="621.320459337402" y="726.7526900274247" type="line"/>
      <point x="672.0698086098109" y="726.7526900274247" type="line"/>
    </contour>
  </outline>
</glyph>
<glyph name="uni0057" format="2">
  <advance width="892"/>
  <unicode hex="0057"/>
  <anchor x="440" y="707" name="top"/>
  <outline>
    <contour>
      <point x="265.1830676554868" y="-1.0222350413467398" type="line"/>
      <point x="217.60634907881706" y="-1.0222350413467398" type="line"/>
      <point x="15.441765621904203" y="727.3047239705434" type="line"/>
      <point x="70.64542430245719" y="727.3047239705434" type="line"/>
      <point x="255.9051920391932" y="29.043404274909125" type="line"/>
      <point x="227.96791967614178" y="28.74329715909808" type="line"/>
      <point x="416.32631151208017" y="726.7599652535009" type="line"/>
      <point x="467.66986888383855" y="726.7599652535009" type="line"/>
      <point x="650.6605306817968" y="29.043404274909125" type="line"/>
      <point x="623.9923079651671" y="29.232045432843904" type="line"/>
      <point x="808.0919261846647" y="726.7599652535009" type="line"/>
      <point x="852.8475264040705" y="726.7599652535009" type="line"/>
      <point x="661.3641710779697" y="-1.5669937583891076" type="line"/>
      <point x="614.1885152857117" y="-1.5669937583891076" type="line"/>
      <point x="430.4952820833168" y="686.7351051422945" type="line"/>
      <point x="452.8508379773503" y="686.9404408223" type="line"/>
    </contour>
  </outline>
</glyph>
<glyph name="uni005C" format="2">
  <advance width="486"/>
  <unicode hex="005C"/>
  <outline>
    <contour>
      <point x="486.4394484337613" y="-187.90609918982534" type="line"/>
      <point x="439.17346306177996" y="-187.90609918982534" type="line"/>
      <point x="0.0" y="816.7329708298482" type="line"/>
      <point x="48.26398314586201" y="816.7329708298482" type="line"/>
    </contour>
  </outline>
</glyph>
<glyph name="uni005D" format="2">
  <advance width="286"/>
  <unicode hex="005D"/>
  <outline>
    <contour>
      <point x="217.57403222907269" y="-185.58095517559946" type="line"/>
      <point x="2.5128068269151247e-13" y="-185.58095517559946" type="line"/>
      <point x="8.376022756383749e-14" y="-141.52112502657786" type="line"/>
      <point x="170.10233887360266" y="-141.52112502657786" type="line"/>
      <point x="170.10233887360258" y="779.2122669268159" type="line"/>
      <point x="0.0" y="779.2122669268159" type="line"/>
      <point x="0.0" y="823.342678778013" type="line"/>
      <point x="217.57403222907254" y="823.342678778013" type="line"/>
    </contour>
  </outline>
</glyph>
<glyph name="uni005E" format="2">
  <advance width="594"/>
  <unicode hex="005E"/>
  <outline>
    <contour>
      <point x="541.4914560595748" y="268.57044984560645" type="line"/>
      <point x="286.09549399562263" y="705.9548973563642" type="line"/>
      <point x="313.97724266446966" y="712.6837188179268" type="line"/>
      <point x="50.34275749669844" y="268.57044984560645" type="line"/>
      <point x="10.700363134871523" y="286.5534060527533" type="line"/>
      <point x="278.1213678727601" y="727.3047239705434" type="line"/>
      <point x="318.98587566688946" y="727.3047239705434" type="line"/>
      <point x="582.3777789625523" y="288.74889016677776" type="line"/>
    </contour>
  </outline>
</glyph>
<glyph name="uni005F" format="2">
  <advance width="721"/>
  <unicode hex="005F"/>
  <outline>
    <contour>
      <point x="68.62505243851844" y="0.0" type="line"/>
      <point x="652.0818041408411" y="0.0" type="line"/>
      <point x="652.0818041408411" y="-47.767036712628006" type="line"/>
      <point x="68.62505243851844" y="-47.767036712628006" type="line"/>
    </contour>
  </outline>
</glyph>
<glyph name="uni0060" format="2">
  <advance width="219"/>
  <unicode hex="0060"/>
  <outline>
    <contour>
      <point x="4.941253326882437" y="761.368494277024" type="line"/>
      <point x="70.03125969970435" y="761.368494277024" type="line"/>
      <point x="187.344779478699" y="629.0977078228415" type="line"/>
      <point x="128.1991896965343" y="629.0977078228415" type="line"/>
    </contour>
  </outline>
</glyph>
<glyph name="uni0061" format="2">
  <advance width="529"/>
  <unicode hex="0061"/>
  <anchor x="259" y="578" name="top"/>
  <anchor x="438" y="8" name="bottom"/>
  <outline>
    <contour>
      <point x="413.88397333526" y="0.0" type="line"/>
      <point x="413.88397333526" y="339.4818055971202" type="line" smooth="yes"/>
      <point x="413.88397333526" y="483.4712231740625"/>
      <point x="342.87155701026916" y="542.178326025579"/>
      <point x="235.8518109323667" y="542.178326025579" type="curve" smooth="yes"/>
      <point x="172.416682635496" y="542.178326025579"/>
      <point x="112.23981561135702" y="515.80551990311"/>
      <point x="57.30563706202634" y="475.08781316642074" type="curve"/>
      <point x="30.311785044041" y="512.7769871623852" type="line"/>
      <point x="86.64093096172566" y="555.350770964984"/>
      <point x="151.87593434220025" y="584.2153698100965"/>
      <point x="239.59339512733777" y="584.2153698100965" type="curve" smooth="yes"/>
      <point x="369.7319569220952" y="584.2153698100965"/>
      <point x="460.531423185953" y="511.83317763028947"/>
      <point x="460.531423185953" y="350.9262137351684" type="curve" smooth="yes"/>
      <point x="460.531423185953" y="0.0" type="line"/>
    </contour>
    <contour>
      <point x="432.18861652774444" y="225.1745819865766" type="curve"/>
      <point x="432.18861652774444" y="96.99351527426893" type="line"/>
      <point x="407.92943253479115" y="53.194300171640904"/>
      <point x="355.70198626835383" y="-13.535047596084027"/>
      <point x="238.12207117341126" y="-13.535047596084027" type="curve" smooth="yes"/>
      <point x="125.54196193965444" y="-13.535047596084027"/>
      <point x="49.13899300084944" y="49.45276764104943"/>
      <point x="49.13899300084944" y="152.078908391147" type="curve" smooth="yes"/>
      <point x="49.13899300084944" y="263.53921724265865"/>
      <point x="143.65142655838218" y="326.4763041102408"/>
      <point x="262.4370416761216" y="326.4763041102408" type="curve" smooth="yes"/>
      <point x="351.9312893608919" y="326.4763041102408"/>
      <point x="420.2993717342593" y="276.27899621282205"/>
    </contour>
    <contour>
      <point x="259.72090989275995" y="288.55641595695516" type="curve" smooth="yes"/>
      <point x="164.70836673656305" y="288.55641595695516"/>
      <point x="99.76075509280861" y="238.82068195557528"/>
      <point x="99.76075475710395" y="155.4934666066872" type="curve" smooth="yes"/>
      <point x="99.76075475710395" y="75.22419987556472"/>
      <point x="154.88412892703477" y="22.61814823968041"/>
      <point x="243.8993836752734" y="22.618148239680398" type="curve" smooth="yes"/>
      <point x="337.3639402284482" y="22.618148239680398"/>
      <point x="413.88397333526" y="100.40950945535911"/>
      <point x="413.88397333526" y="170.43587131186638" type="curve" smooth="yes"/>
      <point x="413.88397333526" y="241.38296923305825"/>
      <point x="340.97102741875284" y="288.55641595695516"/>
    </contour>
  </outline>
</glyph>
<glyph name="uni0062" format="2">
  <advance width="675"/>
  <unicode hex="0062"/>
  <anchor x="337" y="577.8261138372574" name="top"/>
  <anchor x="337" y="-145" name="bottom"/>
  <outline>
    <contour>
      <point x="68.62505243851848" y="727.3047239705434" type="line"/>
      <point x="117.73976492635352" y="727.3047239705434" type="line"/>
      <point x="117.73976492635352" y="115.09823099066341" type="line"/>
      <point x="117.73976492635352" y="115.09823099066341" type="line"/>
      <point x="117.73976492635352" y="-1.1528233631951559" type="line"/>
      <point x="68.62505243851855" y="-1.1528233631951559" type="line"/>
    </contour>
    <contour>
      <point x="95.82044998206383" y="199.69743527995965" type="curve"/>
      <point x="103.4402641642904" y="415.9507099069228" type="line"/>
      <point x="135.35356776082997" y="483.69016167834116"/>
      <point x="207.457910992184" y="590.604494110853"/>
      <point x="362.13597140716854" y="590.6044941108531" type="curve" smooth="yes"/>
      <point x="517.971677915488" y="590.6044941108531"/>
      <point x="627.4762235991294" y="453.51154855796017"/>
      <point x="627.4762235991294" y="293.08386274363073" type="curve" smooth="yes"/>
      <point x="627.4762235991294" y="121.60101349756334"/>
      <point x="501.2597341349326" y="-13.931203636790826"/>
      <point x="346.5260364269663" y="-13.93120363679084" type="curve"/>
      <point x="199.18581613885314" y="-13.93120363679084"/>
      <point x="110.43514564588116" y="96.01100374948665"/>
    </contour>
    <contour>
      <point x="348.38067926224176" y="28.128394442340397" type="curve" smooth="yes"/>
      <point x="482.38468454294707" y="28.128394442340397"/>
      <point x="576.7707314589007" y="154.60236072878865"/>
      <point x="576.7707314589007" y="290.40140815766125" type="curve" smooth="yes"/>
      <point x="576.7707314589007" y="431.38109587705964"/>
      <point x="491.3383180895919" y="545.9256645359012"/>
      <point x="354.94208216672865" y="545.9256645359013" type="curve" smooth="yes"/>
      <point x="242.82103906514794" y="545.9256645359013"/>
      <point x="117.73976492635344" y="452.1839901486435"/>
      <point x="117.73976492635352" y="284.22518142587825" type="curve" smooth="yes"/>
      <point x="117.73976492635352" y="133.6579791181529"/>
      <point x="212.43818244509998" y="28.12839444234038"/>
    </contour>
  </outline>
</glyph>
<glyph name="uni0063" format="2">
  <advance width="551"/>
  <unicode hex="0063"/>
  <anchor x="337" y="578" name="top"/>
  <anchor x="325" y="0" name="bottom"/>
  <outline>
    <contour>
      <point x="530.386399449317" y="525.5215324307828" type="curve"/>
      <point x="504.3431389701522" y="488.36485825438655" type="line"/>
      <point x="460.6376444281199" y="525.4320466460118"/>
      <point x="409.73455684438784" y="548.5698275729873"/>
      <point x="347.59008514251775" y="548.5698275729872" type="curve"/>
      <point x="196.75929995156304" y="548.5698275729872"/>
      <point x="103.19768947479085" y="436.1021027675986"/>
      <point x="103.19768876120112" y="295.72559469415376" type="curve" smooth="yes"/>
      <point x="103.19768796602901" y="139.3004954164339"/>
      <point x="206.20562621598768" y="33.29728247332946"/>
      <point x="361.9815817372481" y="33.29728247332947" type="curve" smooth="yes"/>
      <point x="417.72461561161543" y="33.29728247332947"/>
      <point x="469.01868324286147" y="53.306171800996424"/>
      <point x="513.5690397974355" y="82.60854491492769" type="curve"/>
      <point x="533.4680945952263" y="45.4394721248532" type="line"/>
      <point x="489.29040884165045" y="6.003690472480898"/>
      <point x="421.8047845265771" y="-13.299081842514731"/>
      <point x="361.50821328757723" y="-13.299081842514731" type="curve" smooth="yes"/>
      <point x="168.19733853708405" y="-13.299081842514731"/>
      <point x="48.94437070419616" y="112.2646631915548"/>
      <point x="48.944370704196174" y="293.1873620653224" type="curve" smooth="yes"/>
      <point x="48.944370704196174" y="456.3837664352875"/>
      <point x="162.2823193472604" y="593.996522072666"/>
      <point x="350.29507938834286" y="593.996522072666" type="curve" smooth="yes"/>
      <point x="407.737051261919" y="593.996522072666"/>
      <point x="473.93222188736434" y="578.0561516610212"/>
    </contour>
  </outline>
</glyph>
<glyph name="uni0064" format="2">
  <advance width="676"/>
  <unicode hex="0064"/>
  <anchor x="338" y="577.8261138372574" name="top"/>
  <anchor x="338" y="-145" name="bottom"/>
  <outline>
    <contour>
      <point x="558.0317943320866" y="0.07739554720163708" type="line"/>
      <point x="558.0317943320866" y="461.57505948339883" type="line"/>
      <point x="558.0317943320866" y="461.57505948339883" type="line"/>
      <point x="558.0317943320866" y="727.3047239705434" type="line"/>
      <point x="607.1465068199216" y="727.3047239705434" type="line"/>
      <point x="607.1465068199216" y="0.07739554720163708" type="line"/>
    </contour>
    <contour>
      <point x="579.9511092763763" y="376.97585519410256" type="curve"/>
      <point x="572.3312950941498" y="160.72258056713946" type="line"/>
      <point x="540.4179914976103" y="92.98312879572107"/>
      <point x="468.3136482662562" y="-13.931203636790826"/>
      <point x="313.6355878512716" y="-13.93120363679084" type="curve"/>
      <point x="157.79988134295203" y="-13.93120363679084"/>
      <point x="48.295335659310695" y="123.16174191610212"/>
      <point x="48.2953356593107" y="283.58942773043157" type="curve" smooth="yes"/>
      <point x="48.2953356593107" y="455.072276976499"/>
      <point x="174.51182512350752" y="590.6044941108531"/>
      <point x="329.2455228314738" y="590.6044941108531" type="curve" smooth="yes"/>
      <point x="476.58574311958694" y="590.6044941108531"/>
      <point x="565.336413612559" y="480.66228672457567"/>
    </contour>
    <contour>
      <point x="327.39087999619835" y="548.5448960317218" type="curve"/>
      <point x="193.386874715493" y="548.5448960317218"/>
      <point x="99.0008277995394" y="422.07092974527353"/>
      <point x="99.0008277995394" y="286.271882316401" type="curve" smooth="yes"/>
      <point x="99.0008277995394" y="145.2921945970026"/>
      <point x="184.43324116884827" y="30.74762593816098"/>
      <point x="320.8294770917114" y="30.747625938160958" type="curve" smooth="yes"/>
      <point x="432.9505201932923" y="30.747625938160958"/>
      <point x="558.0317943320867" y="124.48930032541881"/>
      <point x="558.0317943320866" y="292.448109048184" type="curve" smooth="yes"/>
      <point x="558.0317943320866" y="443.0153113559094"/>
      <point x="463.3333768133402" y="548.5448960317219"/>
    </contour>
  </outline>
</glyph>
<glyph name="uni0065" format="2">
  <advance width="612"/>
  <unicode hex="0065"/>
  <anchor x="323" y="578" name="top"/>
  <anchor x="488" y="32" name="bottom"/>
  <outline>
    <contour>
      <point x="69.88712345739883" y="326.18012017832297" type="line"/>
      <point x="541.0521624826313" y="326.18012017832297" type="line"/>
      <point x="541.0521624826313" y="284.5956079973161" type="line"/>
      <point x="69.88712345739883" y="284.5956079973161" type="line"/>
    </contour>
    <contour>
      <point x="364.7832372006859" y="36.43488784254485" type="curve" smooth="yes"/>
      <point x="415.16467558279726" y="36.43488784254485"/>
      <point x="465.21204377524117" y="52.44562869327008"/>
      <point x="499.2266379020117" y="73.92448936528254" type="curve"/>
      <point x="521.9469236618553" y="33.20420679195731" type="line"/>
      <point x="497.30475171383085" y="11.856499171364682"/>
      <point x="432.5112003705294" y="-12.74166874448585"/>
      <point x="362.2563122596038" y="-12.741668744485855" type="curve"/>
      <point x="162.5263247489353" y="-12.741668744485855"/>
      <point x="48.94714215509839" y="119.94669865295162"/>
      <point x="48.947142155098376" y="289.1833382947973" type="curve" smooth="yes"/>
      <point x="48.947142155098376" y="451.93583141495617"/>
      <point x="156.08985593019435" y="593.1405737310258"/>
      <point x="326.7774548035696" y="593.1405737310259" type="curve" smooth="yes"/>
      <point x="469.17493378094014" y="593.1405737310259"/>
      <point x="566.6082596922415" y="468.2824824464292"/>
      <point x="566.6082596922415" y="321.68900570100413" type="curve" smooth="yes"/>
      <point x="566.6082596922415" y="311.8795055030916"/>
      <point x="565.5835778373192" y="293.2077170944896"/>
      <point x="564.0361450958002" y="284.5956079973161" type="curve"/>
      <point x="519.9406369188368" y="284.5956079973161" type="line"/>
      <point x="519.9406369188368" y="315.42281007371673" type="line" smooth="yes"/>
      <point x="519.9406369188368" y="454.34841422769784"/>
      <point x="444.1374460025407" y="546.3429744331111"/>
      <point x="320.116350326788" y="546.3429744331112" type="curve" smooth="yes"/>
      <point x="172.66439285907893" y="546.3429744331112"/>
      <point x="100.86364381046195" y="421.7478362810441"/>
      <point x="100.86364381046194" y="289.1828451649485" type="curve" smooth="yes"/>
      <point x="100.86364381046194" y="148.65152733900436"/>
      <point x="185.0965465845594" y="36.43488784254487"/>
    </contour>
  </outline>
</glyph>
<glyph name="uni0066" format="2">
  <advance width="367"/>
  <unicode hex="0066"/>
  <anchor x="183" y="577.8261138372574" name="top"/>
  <anchor x="183" y="-145" name="bottom"/>
  <outline>
    <contour>
      <point x="129.0154201859306" y="-2.0502570012633026" type="line"/>
      <point x="129.0154201859306" y="660.7352239675372" type="line" smooth="yes"/>
      <point x="129.0154201859306" y="703.1996589636196"/>
      <point x="143.49780130370658" y="728.948359702131"/>
      <point x="198.53126037293978" y="728.948359702131" type="curve" smooth="yes"/>
      <point x="273.65582359120407" y="728.948359702131"/>
      <point x="311.97253803456147" y="728.3665976794957"/>
      <point x="328.1642549118084" y="727.3047239705434" type="curve"/>
      <point x="328.1642549118084" y="684.18238135704" type="line"/>
      <point x="300.7505579665421" y="685.6063909576372"/>
      <point x="242.26785589643924" y="685.180187135033"/>
      <point x="214.09055612830062" y="685.1801871350328" type="curve"/>
      <point x="187.33746966097544" y="685.1801871350328"/>
      <point x="179.07842384344195" y="674.5239208689388"/>
      <point x="179.07842384344198" y="645.098718766991" type="curve" smooth="yes"/>
      <point x="179.07842384344198" y="-2.0502570012633026" type="line"/>
    </contour>
    <contour>
      <point x="0.0" y="554.1817598914415" type="line"/>
      <point x="367.42082497842046" y="554.1817598914415" type="line"/>
      <point x="367.42082497842046" y="510.9371829304713" type="line"/>
      <point x="0.0" y="510.9371829304713" type="line"/>
    </contour>
  </outline>
</glyph>
<glyph name="uni0069" format="2">
  <advance width="184"/>
  <unicode hex="0069"/>
  <anchor x="96" y="1" name="bottom"/>
  <anchor x="95" y="577" name="top"/>
  <outline>
    <contour>
      <point x="68.62505243851851" y="0.07739554720163708" type="line"/>
      <point x="68.62505243851851" y="577.8261138372574" type="line"/>
      <point x="115.44237924009963" y="577.8261138372574" type="line"/>
      <point x="115.44237924009963" y="0.07739554720163708" type="line"/>
    </contour>
    <contour>
      <point x="43.45439559550611" y="722.9320118324889" type="curve" smooth="yes"/>
      <point x="43.45439559550611" y="749.4809342829944"/>
      <point x="63.22681232465835" y="764.2795124850494"/>
      <point x="92.12126409489466" y="764.2795124850494" type="curve" smooth="yes"/>
      <point x="121.01571586513104" y="764.2795124850494"/>
      <point x="140.7881325942833" y="749.4809342829946"/>
      <point x="140.78813259428327" y="722.9320118324889" type="curve" smooth="yes"/>
      <point x="140.78813259428327" y="696.3830893819832"/>
      <point x="121.0191380480764" y="681.5845111799283"/>
      <point x="92.12126409489466" y="681.5845111799283" type="curve" smooth="yes"/>
      <point x="63.226812324658354" y="681.5845111799283"/>
      <point x="43.454395595506114" y="696.3830893819832"/>
    </contour>
  </outline>
</glyph>
<glyph name="uni006A" format="2">
  <advance width="184"/>
  <unicode hex="006A"/>
  <anchor x="93" y="577" name="top"/>
  <outline>
    <contour>
      <point x="26.139674505478304" y="-103.79683788238472" type="curve" smooth="yes"/>
      <point x="2.279480106712054" y="-103.79683788238472"/>
      <point x="-19.842999640723434" y="-101.3816122515888"/>
      <point x="-31.87836162554679" y="-99.47393378592618" type="curve"/>
      <point x="-31.87836162554679" y="-60.83025119313606" type="line"/>
      <point x="-17.829646091617178" y="-61.48182373673704"/>
      <point x="11.821349579934303" y="-62.151203033679565"/>
      <point x="26.139674505478304" y="-62.151203033679565" type="curve" smooth="yes"/>
      <point x="55.476942621498644" y="-62.151203033679565"/>
      <point x="68.62505243851851" y="-53.462403276337746"/>
      <point x="68.62505243851851" y="-19.628507992730203" type="curve" smooth="yes"/>
      <point x="68.62505243851851" y="577.8261138372574" type="line"/>
      <point x="115.19046591773298" y="577.8261138372574" type="line"/>
      <point x="115.19046591773298" y="-24.203067387240544" type="line" smooth="yes"/>
      <point x="115.19046591773298" y="-91.15259402023648"/>
      <point x="92.03919534199579" y="-103.79683788238472"/>
    </contour>
    <contour>
      <point x="42.69319201735831" y="722.9320118324889" type="curve" smooth="yes"/>
      <point x="42.69319201735831" y="749.4809342829944"/>
      <point x="62.46560874651055" y="764.2795124850494"/>
      <point x="91.36006051674686" y="764.2795124850494" type="curve" smooth="yes"/>
      <point x="120.25451228698324" y="764.2795124850494"/>
      <point x="140.02692901613548" y="749.4809342829946"/>
      <point x="140.02692901613548" y="722.9320118324889" type="curve" smooth="yes"/>
      <point x="140.02692901613548" y="696.3830893819832"/>
      <point x="120.25793446992861" y="681.5845111799283"/>
      <point x="91.36006051674686" y="681.5845111799283" type="curve" smooth="yes"/>
      <point x="62.465608746510554" y="681.5845111799283"/>
      <point x="42.693192017358314" y="696.3830893819832"/>
    </contour>
  </outline>
</glyph>
<glyph name="uni006C" format="2">
  <advance width="266"/>
  <unicode hex="006C"/>
  <anchor x="106" y="709" name="top"/>
  <anchor x="145" y="1" name="bottom"/>
  <outline>
    <contour>
      <point x="116.51763424562465" y="727.3047239705434" type="line"/>
      <point x="116.51763424562465" y="81.8873625254366" type="line" smooth="yes"/>
      <point x="116.51763424562465" y="50.48310875474684"/>
      <point x="128.1719257691131" y="41.74012615937109"/>
      <point x="172.1038177404983" y="41.74012615937109" type="curve" smooth="yes"/>
      <point x="188.91313307994272" y="41.74012615937109"/>
      <point x="228.8192589189591" y="41.926289991307996"/>
      <point x="245.98391868342136" y="42.571143219361744" type="curve"/>
      <point x="245.98391868342136" y="0.6211557402622356" type="line"/>
      <point x="227.3840154134736" y="-0.43339690668917097"/>
      <point x="187.09943834885462" y="-1.4184124446982154"/>
      <point x="159.93278162018555" y="-1.4184124446982154" type="curve" smooth="yes"/>
      <point x="100.46578805834653" y="-1.4184124446982154"/>
      <point x="68.62505243851842" y="10.112778289424915"/>
      <point x="68.62505243851844" y="69.90577830010797" type="curve" smooth="yes"/>
      <point x="68.62505243851844" y="727.3047239705434" type="line"/>
    </contour>
  </outline>
</glyph>
<glyph name="uni006D" format="2">
  <advance width="901"/>
  <unicode hex="006D"/>
  <anchor x="450" y="577.8261138372574" name="top"/>
  <anchor x="450" y="-145" name="bottom"/>
  <outline>
    <contour>
      <point x="68.62505243851844" y="0.0" type="line"/>
      <point x="68.62505243851844" y="577.2112002029882" type="line"/>
      <point x="113.96869548357971" y="577.2112002029882" type="line"/>
      <point x="113.96869548357971" y="0.0" type="line"/>
    </contour>
    <contour>
      <point x="428.02668880336427" y="0.0" type="line"/>
      <point x="428.02668880336427" y="372.2169363982057" type="line" smooth="yes"/>
      <point x="428.02668880336427" y="483.94218334287007"/>
      <point x="365.75587887748213" y="547.8380623052159"/>
      <point x="279.6589330906424" y="547.8380623052159" type="curve" smooth="yes"/>
      <point x="193.10051309940013" y="547.8380623052159"/>
      <point x="113.96869548357972" y="477.10286218476085"/>
      <point x="113.96869548357971" y="342.0520650353386" type="curve"/>
      <point x="85.04044325120722" y="409.0875361252472" type="line"/>
      <point x="107.82754479643414" y="509.06840900775444"/>
      <point x="186.27399823776693" y="588.8088720352247"/>
      <point x="295.6624233099381" y="588.8088720352248" type="curve" smooth="yes"/>
      <point x="404.1955016386911" y="588.8088720352248"/>
      <point x="473.37033184842545" y="502.56075266202845"/>
      <point x="473.37033184842545" y="392.75364617787955" type="curve" smooth="yes"/>
      <point x="473.37033184842545" y="0.0" type="line"/>
    </contour>
    <contour>
      <point x="787.4283251682101" y="0.0" type="line"/>
      <point x="787.4283251682101" y="372.2169363982057" type="line" smooth="yes"/>
      <point x="787.4283251682101" y="483.94218334287007"/>
      <point x="725.1575152423276" y="547.8380623052159"/>
      <point x="639.0605694554882" y="547.8380623052159" type="curve" smooth="yes"/>
      <point x="552.5021494642457" y="547.8380623052159"/>
      <point x="473.3703318484255" y="477.10286218476085"/>
      <point x="473.37033184842545" y="342.0520650353386" type="curve"/>
      <point x="441.13555524639537" y="425.7183123627773" type="line"/>
      <point x="470.64438872642614" y="518.2317858366241"/>
      <point x="548.7858693139639" y="588.8088720352248"/>
      <point x="655.0640596747837" y="588.8088720352248" type="curve" smooth="yes"/>
      <point x="763.597138003537" y="588.8088720352248"/>
      <point x="832.7719682132713" y="502.56075266202845"/>
      <point x="832.7719682132713" y="392.75364617787955" type="curve" smooth="yes"/>
      <point x="832.7719682132713" y="0.0" type="line"/>
    </contour>
  </outline>
</glyph>
<glyph name="uni0071" format="2">
  <advance width="665"/>
  <unicode hex="0071"/>
  <anchor x="332" y="577.8261138372574" name="top"/>
  <anchor x="332" y="-145" name="bottom"/>
  <outline>
    <contour>
      <point x="596.3200421745872" y="-99.75886461632912" type="line"/>
      <point x="547.2053296867522" y="-99.75886461632912" type="line"/>
      <point x="547.2053296867522" y="461.5750594833988" type="line"/>
      <point x="547.2053296867522" y="461.5750594833988" type="line"/>
      <point x="547.2053296867522" y="577.8261138372574" type="line"/>
      <point x="596.3200421745872" y="577.8261138372574" type="line"/>
    </contour>
    <contour>
      <point x="569.1246446310419" y="391.1508939083682" type="curve"/>
      <point x="561.5048304488153" y="199.86076793252724" type="line"/>
      <point x="531.7726174155932" y="122.86576905630783"/>
      <point x="451.036573479723" y="34.86378620575255"/>
      <point x="313.8056246114868" y="34.86378620575255" type="curve" smooth="yes"/>
      <point x="167.91494660402466" y="34.86378620575255"/>
      <point x="59.4618738250756" y="157.79731348551925"/>
      <point x="59.46187382507561" y="307.98692265170325" type="curve" smooth="yes"/>
      <point x="59.46187382507561" y="469.03109875340533"/>
      <point x="184.100964154847" y="590.6044941108531"/>
      <point x="329.4155595916889" y="590.6044941108531" type="curve" smooth="yes"/>
      <point x="468.9086959129485" y="590.6044941108531"/>
      <point x="555.2883022491712" y="489.31516636474714"/>
    </contour>
    <contour>
      <point x="327.56091675641363" y="548.5448960317218" type="curve" smooth="yes"/>
      <point x="203.39323408015554" y="548.5448960317218"/>
      <point x="110.16736596530419" y="436.50034022691256"/>
      <point x="110.16736596530421" y="310.6693772376727" type="curve" smooth="yes"/>
      <point x="110.16736596530421" y="180.32960260171072"/>
      <point x="194.89727218173678" y="79.54261578070435"/>
      <point x="320.99951385192657" y="79.54261578070435" type="curve" smooth="yes"/>
      <point x="425.07073529794724" y="79.54261578070435"/>
      <point x="547.2053296867523" y="160.94553478654345"/>
      <point x="547.2053296867522" y="316.8456039694557" type="curve" smooth="yes"/>
      <point x="547.2053296867522" y="456.32321727854617"/>
      <point x="453.4909646866503" y="548.5448960317218"/>
    </contour>
  </outline>
</glyph>
<glyph name="uni0072" format="2">
  <advance width="368"/>
  <unicode hex="0072"/>
  <anchor x="205" y="577" name="top"/>
  <outline>
    <contour>
      <point x="68.62505243851851" y="0.07739554720163708" type="line"/>
      <point x="68.62505243851851" y="577.2885957501898" type="line"/>
      <point x="113.9686954835798" y="577.2885957501898" type="line"/>
      <point x="113.9686954835798" y="0.07739554720163708" type="line"/>
    </contour>
    <contour>
      <point x="349.1260327335147" y="526.9022880582048" type="line"/>
      <point x="329.11659572016646" y="535.1346322141794"/>
      <point x="308.5576394527896" y="538.0025291643698"/>
      <point x="284.5331634028018" y="538.0025291643697" type="curve"/>
      <point x="188.9503790831737" y="538.0025291643697"/>
      <point x="113.96869548357978" y="443.35845272349445"/>
      <point x="113.9686954835798" y="309.81055422070733" type="curve"/>
      <point x="85.0404432512073" y="376.8460253106159" type="line"/>
      <point x="101.23312540640302" y="469.04186608435555"/>
      <point x="170.13701604012368" y="581.913655524362"/>
      <point x="286.9617297741145" y="581.9136555243618" type="curve" smooth="yes"/>
      <point x="317.78153349241853" y="581.9136555243618"/>
      <point x="334.5004922357702" y="576.4521374971255"/>
      <point x="349.1260327335147" y="570.4348526147844" type="curve"/>
    </contour>
  </outline>
</glyph>
<glyph name="uni0074" format="2">
  <advance width="371"/>
  <unicode hex="0074"/>
  <anchor x="229" y="3" name="bottom"/>
  <outline>
    <contour>
      <point x="194.19341446639314" y="727.3047239705434" type="line"/>
      <point x="194.19341446639314" y="81.8873625254366" type="line" smooth="yes"/>
      <point x="194.19341446639314" y="50.48310875474684"/>
      <point x="205.84770598988158" y="41.74012615937109"/>
      <point x="249.7795979612668" y="41.74012615937109" type="curve" smooth="yes"/>
      <point x="266.5889133007112" y="41.74012615937109"/>
      <point x="306.4950391397276" y="41.926289991307996"/>
      <point x="323.6596989041899" y="42.571143219361744" type="curve"/>
      <point x="323.6596989041899" y="0.6211557402622356" type="line"/>
      <point x="305.0597956342421" y="-0.43339690668917097"/>
      <point x="264.7752185696232" y="-1.4184124446982154"/>
      <point x="237.60856184095405" y="-1.4184124446982154" type="curve" smooth="yes"/>
      <point x="177.43033571070077" y="-1.4184124446982154"/>
      <point x="144.54872711563007" y="9.397646643723611"/>
      <point x="144.5487271156301" y="69.90577830010797" type="curve" smooth="yes"/>
      <point x="144.5487271156301" y="701.4780401212538" type="line"/>
    </contour>
    <contour>
      <point x="14.105458062153241" y="577.8261138372574" type="line"/>
      <point x="356.9813547130658" y="577.8261138372574" type="line"/>
      <point x="356.9813547130658" y="534.512633349894" type="line"/>
      <point x="14.105458062153241" y="534.512633349894" type="line"/>
    </contour>
  </outline>
</glyph>
<glyph name="uni0075" format="2">
  <advance width="581"/>
  <unicode hex="0075"/>
  <anchor x="289" y="577" name="top"/>
  <anchor x="491" y="1" name="bottom"/>
  <outline>
    <contour>
      <point x="512.4479269120377" y="577.2112002029882" type="line"/>
      <point x="512.4479269120377" y="0.0" type="line"/>
      <point x="467.1042838669765" y="0.0" type="line"/>
      <point x="467.1042838669765" y="577.2112002029882" type="line"/>
    </contour>
    <contour>
      <point x="113.96869548357988" y="577.2112002029882" type="line"/>
      <point x="113.96869548357988" y="214.79697154477688" type="line" smooth="yes"/>
      <point x="113.96869548357988" y="86.4185947927541"/>
      <point x="180.11092430128048" y="22.220462157835044"/>
      <point x="284.4968014053927" y="22.220462157835037" type="curve" smooth="yes"/>
      <point x="378.6369717816495" y="22.220462157835037"/>
      <point x="467.1042838669765" y="94.82472766243265"/>
      <point x="467.1042838669765" y="241.70477762617074" type="curve"/>
      <point x="493.55882898003193" y="185.38870405330306" type="line"/>
      <point x="472.04421111281397" y="61.7862479996419"/>
      <point x="395.69986518296156" y="-18.750347572173695"/>
      <point x="278.76675370151514" y="-18.750347572173695" type="curve" smooth="yes"/>
      <point x="152.3290721783483" y="-18.750347572173695"/>
      <point x="68.62505243851851" y="65.35935623312129"/>
      <point x="68.62505243851851" y="209.46324224304578" type="curve" smooth="yes"/>
      <point x="68.62505243851851" y="577.2112002029882" type="line"/>
    </contour>
  </outline>
</glyph>
<glyph name="uni0077" format="2">
  <advance width="804"/>
  <unicode hex="0077"/>
  <anchor x="402" y="575" name="top"/>
  <outline>
    <contour>
      <point x="242.284000995516" y="-0.4646633229338691" type="line"/>
      <point x="204.62383387463962" y="-0.4646633229338691" type="line"/>
      <point x="15.745059342315148" y="577.8261138372574" type="line"/>
      <point x="63.20737255723926" y="577.8261138372574" type="line"/>
      <point x="234.43593525007086" y="51.52482924778999" type="line"/>
      <point x="212.03909206007822" y="51.75266458211018" type="line"/>
      <point x="386.1740081389079" y="577.8261138372574" type="line"/>
      <point x="419.55559486375023" y="577.8261138372574" type="line"/>
      <point x="596.4667376957508" y="55.73984335929288" type="line"/>
      <point x="581.1521201907892" y="55.42622038079378" type="line"/>
      <point x="742.544601913825" y="577.8261138372574" type="line"/>
      <point x="787.4939301952794" y="577.8261138372574" type="line"/>
      <point x="606.2916073549645" y="-0.4646633229338691" type="line"/>
      <point x="567.7015195307723" y="-0.4646633229338691" type="line"/>
      <point x="396.57362807220903" y="518.661388883504" type="line"/>
      <point x="407.3659057946387" y="518.8497058755474" type="line"/>
    </contour>
  </outline>
</glyph>
<glyph name="uni007C" format="2">
  <advance width="185"/>
  <unicode hex="007C"/>
  <outline>
    <contour>
      <point x="116.09674579398856" y="-185.58095517559946" type="line"/>
      <point x="68.62505243851851" y="-185.58095517559946" type="line"/>
      <point x="68.62505243851844" y="823.342678778013" type="line"/>
      <point x="116.09674579398839" y="823.342678778013" type="line"/>
    </contour>
  </outline>
</glyph>
<glyph name="uni00A2" format="2">
  <advance width="535"/>
  <unicode hex="00A2"/>
  <outline>
    <contour>
      <point x="527.0416178737772" y="525.5215324307828" type="curve"/>
      <point x="500.9983573946125" y="488.36485825438655" type="line"/>
      <point x="457.29286285258024" y="525.4320466460118"/>
      <point x="406.38977526884815" y="548.5698275729873"/>
      <point x="344.245303566978" y="548.5698275729872" type="curve"/>
      <point x="193.4145183760233" y="548.5698275729872"/>
      <point x="99.85290789925111" y="436.1021027675986"/>
      <point x="99.85290718566137" y="295.72559469415376" type="curve" smooth="yes"/>
      <point x="99.85290639048925" y="139.3004954164339"/>
      <point x="202.8608446404479" y="33.29728247332946"/>
      <point x="358.6368001617084" y="33.29728247332947" type="curve" smooth="yes"/>
      <point x="414.3798340360757" y="33.29728247332947"/>
      <point x="465.67390166732173" y="53.306171800996424"/>
      <point x="510.22425822189575" y="82.60854491492769" type="curve"/>
      <point x="530.1233130196865" y="45.4394721248532" type="line"/>
      <point x="485.9456272661107" y="6.003690472480898"/>
      <point x="418.4600029510374" y="-13.299081842514731"/>
      <point x="358.1634317120375" y="-13.299081842514731" type="curve" smooth="yes"/>
      <point x="164.8525569615443" y="-13.299081842514731"/>
      <point x="45.59958912865642" y="112.2646631915548"/>
      <point x="45.59958912865642" y="293.1873620653224" type="curve" smooth="yes"/>
      <point x="45.59958912865642" y="456.3837664352875"/>
      <point x="158.93753777172063" y="593.996522072666"/>
      <point x="346.9502978128031" y="593.996522072666" type="curve" smooth="yes"/>
      <point x="404.3922696863793" y="593.996522072666"/>
      <point x="470.5874403118246" y="578.0561516610212"/>
    </contour>
    <contour>
      <point x="314.83658164357286" y="26.732391831696813" type="line"/>
      <point x="363.16057790595363" y="26.732391831696813" type="line"/>
      <point x="363.16057790595363" y="-118.6450384315695" type="line"/>
      <point x="314.83658164357286" y="-118.6450384315695" type="line"/>
    </contour>
    <contour>
      <point x="314.83658164357274" y="706.5851620974704" type="line"/>
      <point x="363.16057790595363" y="706.5851620974704" type="line"/>
      <point x="363.16057790595363" y="561.2077318342041" type="line"/>
      <point x="314.83658164357274" y="561.2077318342041" type="line"/>
    </contour>
  </outline>
</glyph>
<glyph name="uni00AA" format="2">
  <advance width="424"/>
  <unicode hex="00AA"/>
  <outline>
    <contour>
      <point x="309.7572142846073" y="332.11507255330895" type="line"/>
      <point x="309.7572142846073" y="560.2077085165029" type="line" smooth="yes"/>
      <point x="309.7572142846073" y="649.8310176435468"/>
      <point x="260.61426571298847" y="683.7950761879855"/>
      <point x="190.67289207302295" y="683.7950761879855" type="curve" smooth="yes"/>
      <point x="145.89915208447638" y="683.7950761879855"/>
      <point x="102.92965459428223" y="667.4759642062922"/>
      <point x="64.15604929247871" y="640.1045637134007" type="curve"/>
      <point x="42.848467302506435" y="676.6420920718053" type="line"/>
      <point x="82.58662861189033" y="705.2467666386249"/>
      <point x="128.60754806875076" y="724.6404493870169"/>
      <point x="190.48902256195785" y="724.6404493870169" type="curve" smooth="yes"/>
      <point x="284.91422991329483" y="724.6404493870169"/>
      <point x="355.16765166129187" y="679.0899022963144"/>
      <point x="355.1676516612918" y="567.8970314086522" type="curve" smooth="yes"/>
      <point x="355.1676516612918" y="332.11507255330895" type="line"/>
    </contour>
    <contour>
      <point x="322.670473522669" y="500.5865564923145" type="curve"/>
      <point x="322.670473522669" y="397.28353285217804" type="line"/>
      <point x="306.47576868795863" y="369.43621735505025"/>
      <point x="273.8548776986994" y="323.0210809661958"/>
      <point x="195.36204710695247" y="323.0210809661958" type="curve" smooth="yes"/>
      <point x="111.03687826559431" y="323.0210809661958"/>
      <point x="56.130376953440475" y="370.6815513506305"/>
      <point x="56.13037695344048" y="443.8921081889645" type="curve" smooth="yes"/>
      <point x="56.13037695344048" y="521.310894885835"/>
      <point x="125.8850749037446" y="563.9567937779489"/>
      <point x="212.5153734059451" y="563.956793777949" type="curve" smooth="yes"/>
      <point x="270.76342467443624" y="563.956793777949"/>
      <point x="314.93226287572446" y="532.2650742097671"/>
    </contour>
    <contour>
      <point x="210.5992413363678" y="527.6815535540549" type="curve" smooth="yes"/>
      <point x="147.0809140268317" y="527.6815535540549"/>
      <point x="102.16359473071086" y="497.9407242271809"/>
      <point x="102.16359450628369" y="444.8858685418591" type="curve" smooth="yes"/>
      <point x="102.16359450628369" y="393.34946476416377"/>
      <point x="139.4297386833993" y="359.69464766855134"/>
      <point x="199.43773070544356" y="359.69464766855134" type="curve" smooth="yes"/>
      <point x="258.9160486401924" y="359.69464766855134"/>
      <point x="309.7572142846073" y="404.18656285554044"/>
      <point x="309.7572142846073" y="446.62832925591505" type="curve" smooth="yes"/>
      <point x="309.7572142846073" y="491.97232457536086"/>
      <point x="265.12340181706503" y="527.6815535540549"/>
    </contour>
  </outline>
</glyph>
<glyph name="uni00AB" format="2">
  <advance width="464"/>
  <unicode hex="00AB"/>
  <outline>
    <contour>
      <point x="224.75838180474267" y="95.70843094877367" type="line"/>
      <point x="22.299223554457118" y="306.27956406255527" type="line"/>
      <point x="22.299223554457118" y="340.0430343533959" type="line"/>
      <point x="225.90566581751068" y="538.7913952020749" type="line"/>
      <point x="281.19546435464434" y="538.7913952020749" type="line"/>
      <point x="59.20581597279634" y="316.1939305593203" type="line"/>
      <point x="59.34130612576587" y="334.61013586494755" type="line"/>
      <point x="280.51932892875755" y="95.70843094877367" type="line"/>
    </contour>
    <contour>
      <point x="397.87676503747724" y="95.70843094877367" type="line"/>
      <point x="195.41760678719166" y="306.27956406255527" type="line"/>
      <point x="195.41760678719166" y="340.0430343533959" type="line"/>
      <point x="399.0240490502452" y="538.7913952020749" type="line"/>
      <point x="454.3138475873789" y="538.7913952020749" type="line"/>
      <point x="232.32419920553087" y="316.1939305593203" type="line"/>
      <point x="232.4596893585004" y="334.61013586494755" type="line"/>
      <point x="453.63771216149206" y="95.70843094877367" type="line"/>
    </contour>
  </outline>
</glyph>
<glyph name="uni00B0" format="2">
  <advance width="383"/>
  <unicode hex="00B0"/>
  <outline>
    <contour>
      <point x="58.53216430303963" y="601.9587843633982" type="curve" smooth="yes"/>
      <point x="58.53216430303963" y="674.8401119197416"/>
      <point x="113.86959366164436" y="731.62870486992"/>
      <point x="191.49232306369623" y="731.62870486992" type="curve" smooth="yes"/>
      <point x="269.115052465748" y="731.62870486992"/>
      <point x="324.4524818243527" y="674.8401119197418"/>
      <point x="324.4524818243527" y="601.9587843633982" type="curve" smooth="yes"/>
      <point x="324.4524818243527" y="529.2210044480506"/>
      <point x="268.96073014582106" y="472.8741648724812"/>
      <point x="191.49232306369623" y="472.87416487248123" type="curve" smooth="yes"/>
      <point x="114.03376879171938" y="472.87416487248123"/>
      <point x="58.53216430303962" y="529.2210044480507"/>
    </contour>
    <contour>
      <point x="191.49232306369606" y="511.9399669898331" type="curve" smooth="yes"/>
      <point x="241.07333333832696" y="511.9399669898331"/>
      <point x="280.86303294233306" y="546.4979210993803"/>
      <point x="280.86303294233306" y="601.9373454147217" type="curve" smooth="yes"/>
      <point x="280.86303294233306" y="657.5399548161206"/>
      <point x="241.22957525078965" y="692.562902752568"/>
      <point x="191.49232306369606" y="692.562902752568" type="curve" smooth="yes"/>
      <point x="141.75507087660233" y="692.562902752568"/>
      <point x="102.12161318505925" y="657.5399548161206"/>
      <point x="102.12161318505926" y="601.9373454147217" type="curve" smooth="yes"/>
      <point x="102.12161318505926" y="546.4979210993803"/>
      <point x="141.91786308035302" y="511.9399669898331"/>
    </contour>
  </outline>
</glyph>
<glyph name="uni00B4" format="2">
  <advance width="219"/>
  <unicode hex="00B4"/>
  <outline>
    <contour>
      <point x="90.71398867875102" y="629.0977078228415" type="line"/>
      <point x="31.568398896586324" y="629.0977078228415" type="line"/>
      <point x="148.88191867558098" y="761.368494277024" type="line"/>
      <point x="213.97192504840288" y="761.368494277024" type="line"/>
    </contour>
  </outline>
</glyph>
<glyph name="uni00BA" format="2">
  <advance width="490"/>
  <unicode hex="00BA"/>
  <outline>
    <contour>
      <point x="51.514323240233935" y="526.4132268450533" type="curve" smooth="yes"/>
      <point x="51.514323240233935" y="634.2280340692586"/>
      <point x="140.50970207842357" y="726.5666687711401"/>
      <point x="245.23848732866674" y="726.5666687711403" type="curve" smooth="yes"/>
      <point x="362.5237058995993" y="726.5666687711403"/>
      <point x="438.9626514170994" y="634.2280340692587"/>
      <point x="438.9626514170994" y="526.4132268450528" type="curve" smooth="yes"/>
      <point x="438.9626514170994" y="418.5645466595896"/>
      <point x="350.0001759822243" y="326.1380104910444"/>
      <point x="245.23848732866665" y="326.1380104910443" type="curve"/>
      <point x="127.91642040854117" y="326.1380104910443"/>
      <point x="51.51432324023392" y="418.5645466595896"/>
    </contour>
    <contour>
      <point x="99.9067190478282" y="526.4535161402039" type="curve" smooth="yes"/>
      <point x="99.9067190478282" y="434.59453827155016"/>
      <point x="162.10273338035913" y="368.966328635438"/>
      <point x="245.23848732866682" y="368.96632863543795" type="curve" smooth="yes"/>
      <point x="328.37424040665405" y="368.96632863543795"/>
      <point x="390.57025466270375" y="434.59454069858464"/>
      <point x="390.5702556095051" y="526.4535161402035" type="curve" smooth="yes"/>
      <point x="390.5702556095051" y="618.2479802655173"/>
      <point x="328.3158539661529" y="683.7383506267468"/>
      <point x="245.23848732866682" y="683.7383506267466" type="curve"/>
      <point x="161.53787354519966" y="683.7383506267466"/>
      <point x="99.90671991743571" y="610.8231394074628"/>
    </contour>
  </outline>
</glyph>
<glyph name="uni00BB" format="2">
  <advance width="463"/>
  <unicode hex="00BB"/>
  <outline>
    <contour>
      <point x="245.09847844266378" y="538.7913952020749" type="line"/>
      <point x="440.8646730403131" y="338.25970756724774" type="line"/>
      <point x="440.8646730403131" y="304.4962372764071" type="line"/>
      <point x="237.25823077725963" y="95.70843094877367" type="line"/>
      <point x="181.96843224012596" y="95.70843094877367" type="line"/>
      <point x="403.958080621974" y="328.34534107048273" type="line"/>
      <point x="403.82259046900447" y="313.15345132348676" type="line"/>
      <point x="189.3375313186489" y="538.7913952020749" type="line"/>
    </contour>
    <contour>
      <point x="71.98009520992923" y="538.7913952020749" type="line"/>
      <point x="267.74628980757865" y="338.25970756724774" type="line"/>
      <point x="267.74628980757865" y="304.4962372764071" type="line"/>
      <point x="64.13984754452508" y="95.70843094877367" type="line"/>
      <point x="8.850049007391538" y="95.70843094877367" type="line"/>
      <point x="230.83969738923943" y="328.34534107048273" type="line"/>
      <point x="230.7042072362699" y="313.15345132348676" type="line"/>
      <point x="16.21914808591448" y="538.7913952020749" type="line"/>
    </contour>
  </outline>
</glyph>
<glyph name="uni00C2" format="2">
  <advance width="699"/>
  <unicode hex="00C2"/>
  <anchor x="349" y="727.3047239705434" name="top"/>
  <anchor x="349" y="-145" name="bottom"/>
  <outline>
    <contour>
      <point x="314.09212229787516" y="727.3047239705434" type="line"/>
      <point x="363.3866972949958" y="727.3047239705434" type="line"/>
      <point x="69.63388777544023" y="-0.4629258721517405" type="line"/>
      <point x="12.199244451715254" y="-0.4629258721517405" type="line"/>
    </contour>
    <contour>
      <point x="155.17944339191462" y="261.53266564252806" type="line"/>
      <point x="541.1522063497723" y="261.53266564252806" type="line"/>
      <point x="566.4348942566361" y="219.47209705826955" type="line"/>
      <point x="138.00935365829497" y="219.47209705826955" type="line"/>
    </contour>
    <contour>
      <point x="335.48410089683273" y="727.3047239705434" type="line"/>
      <point x="388.0339847935561" y="727.3047239705434" type="line"/>
      <point x="686.4548427477772" y="-1.014959815270424" type="line"/>
      <point x="627.5282292758918" y="-1.014959815270424" type="line"/>
    </contour>
    <contour>
      <point x="365.715772151007" y="869.6505937281545" type="line"/>
      <point x="236.45603683006578" y="770.2609967160367" type="line"/>
      <point x="180.0260250974647" y="770.2609967160367" type="line"/>
      <point x="336.03822309450413" y="902.5317831702191" type="line"/>
      <point x="368.056154574303" y="902.5317831702191" type="line"/>
      <point x="522.9742241977874" y="770.2609967160367" type="line"/>
      <point x="465.1525550974675" y="770.2609967160367" type="line"/>
      <point x="338.3786055178001" y="869.6505937281545" type="line"/>
    </contour>
  </outline>
</glyph>
<glyph name="uni00C4" format="2">
  <advance width="699"/>
  <unicode hex="00C4"/>
  <anchor x="349" y="727.3047239705434" name="top"/>
  <anchor x="349" y="-145" name="bottom"/>
  <outline>
    <contour>
      <point x="314.09212229787516" y="727.3047239705434" type="line"/>
      <point x="363.3866972949958" y="727.3047239705434" type="line"/>
      <point x="69.63388777544023" y="-0.4629258721517405" type="line"/>
      <point x="12.199244451715254" y="-0.4629258721517405" type="line"/>
    </contour>
    <contour>
      <point x="155.17944339191462" y="261.53266564252806" type="line"/>
      <point x="541.1522063497723" y="261.53266564252806" type="line"/>
      <point x="566.4348942566361" y="219.47209705826955" type="line"/>
      <point x="138.00935365829497" y="219.47209705826955" type="line"/>
    </contour>
    <contour>
      <point x="335.48410089683273" y="727.3047239705434" type="line"/>
      <point x="388.0339847935561" y="727.3047239705434" type="line"/>
      <point x="686.4548427477772" y="-1.014959815270424" type="line"/>
      <point x="627.5282292758918" y="-1.014959815270424" type="line"/>
    </contour>
    <contour>
      <point x="194.49330100344085" y="842.2126446808498" type="curve" smooth="yes"/>
      <point x="194.49330100344085" y="867.2361504186626"/>
      <point x="211.19360039150536" y="882.2664586769498"/>
      <point x="237.22906275559194" y="882.2664586769498" type="curve" smooth="yes"/>
      <point x="263.26452511967864" y="882.2664586769498"/>
      <point x="279.96482450774306" y="867.2361504186626"/>
      <point x="279.96482450774306" y="842.2126446808498" type="curve" smooth="yes"/>
      <point x="279.96482450774306" y="817.1891389430367"/>
      <point x="263.26760869143084" y="802.1588306847497"/>
      <point x="237.22906275559194" y="802.1588306847495" type="curve"/>
      <point x="211.19360039150536" y="802.1588306847495"/>
      <point x="194.49330100344082" y="817.1891389430366"/>
    </contour>
    <contour>
      <point x="424.98751236184813" y="842.2126446808498" type="curve" smooth="yes"/>
      <point x="424.98751236184813" y="867.2361504186626"/>
      <point x="441.68781174991267" y="882.2664586769498"/>
      <point x="467.7232741139992" y="882.2664586769498" type="curve" smooth="yes"/>
      <point x="493.75873647808595" y="882.2664586769498"/>
      <point x="510.4590358661503" y="867.2361504186626"/>
      <point x="510.4590358661503" y="842.2126446808498" type="curve" smooth="yes"/>
      <point x="510.4590358661503" y="817.1891389430367"/>
      <point x="493.7618200498382" y="802.1588306847497"/>
      <point x="467.7232741139992" y="802.1588306847495" type="curve"/>
      <point x="441.6878117499126" y="802.1588306847495"/>
      <point x="424.9875123618481" y="817.1891389430366"/>
    </contour>
  </outline>
</glyph>
<glyph name="uni00C5" format="2">
  <advance width="699"/>
  <unicode hex="00C5"/>
  <anchor x="349" y="727.3047239705434" name="top"/>
  <anchor x="349" y="-145" name="bottom"/>
  <outline>
    <contour>
      <point x="314.09212229787516" y="727.3047239705434" type="line"/>
      <point x="363.3866972949958" y="727.3047239705434" type="line"/>
      <point x="69.63388777544023" y="-0.4629258721517405" type="line"/>
      <point x="12.199244451715254" y="-0.4629258721517405" type="line"/>
    </contour>
    <contour>
      <point x="155.17944339191462" y="261.53266564252806" type="line"/>
      <point x="541.1522063497723" y="261.53266564252806" type="line"/>
      <point x="566.4348942566361" y="219.47209705826955" type="line"/>
      <point x="138.00935365829497" y="219.47209705826955" type="line"/>
    </contour>
    <contour>
      <point x="335.48410089683273" y="727.3047239705434" type="line"/>
      <point x="388.0339847935561" y="727.3047239705434" type="line"/>
      <point x="686.4548427477772" y="-1.014959815270424" type="line"/>
      <point x="627.5282292758918" y="-1.014959815270424" type="line"/>
    </contour>
    <contour>
      <point x="226.01933659402332" y="821.6450532170244" type="curve" smooth="yes"/>
      <point x="226.01933659402332" y="882.0094313933608"/>
      <point x="273.15425627266023" y="927.3874431326803"/>
      <point x="349.4011072648192" y="927.3874431326803" type="curve" smooth="yes"/>
      <point x="425.64795825697814" y="927.3874431326803"/>
      <point x="472.7828779356149" y="882.009431393361"/>
      <point x="472.7828779356149" y="821.6450532170244" type="curve" smooth="yes"/>
      <point x="472.7828779356149" y="761.3994012933204"/>
      <point x="425.50700665281727" y="716.394452379765"/>
      <point x="349.4011072648192" y="716.394452379765" type="curve" smooth="yes"/>
      <point x="273.3042205921287" y="716.394452379765"/>
      <point x="226.01933659402332" y="761.3994012933202"/>
    </contour>
    <contour>
      <point x="349.4011072648192" y="755.5967477528961" type="curve" smooth="yes"/>
      <point x="398.1374375254014" y="755.5967477528961"/>
      <point x="429.8475867728773" y="780.0549576046832"/>
      <point x="429.8475867728773" y="821.6502009085556" type="curve" smooth="yes"/>
      <point x="429.8475867728773" y="863.3678085311969"/>
      <point x="398.2750208983564" y="888.1851477595493"/>
      <point x="349.4011072648192" y="888.1851477595493" type="curve" smooth="yes"/>
      <point x="300.52719363128165" y="888.1851477595493"/>
      <point x="268.95462775676106" y="863.3678085311969"/>
      <point x="268.9546277567611" y="821.6502009085556" type="curve" smooth="yes"/>
      <point x="268.9546277567611" y="780.0549576046831"/>
      <point x="300.670548523571" y="755.596747752896"/>
    </contour>
  </outline>
</glyph>
<glyph name="uni00CB" format="2">
  <advance width="527"/>
  <unicode hex="00CB"/>
  <anchor x="263" y="727.3047239705434" name="top"/>
  <anchor x="263" y="-145" name="bottom"/>
  <outline>
    <contour>
      <point x="68.6250524385186" y="726.8483653575454" type="line"/>
      <point x="117.6118306811716" y="726.8483653575454" type="line"/>
      <point x="117.6118306811716" y="-0.4629258721517405" type="line"/>
      <point x="68.6250524385186" y="-0.4629258721517405" type="line"/>
    </contour>
    <contour>
      <point x="97.07680350755746" y="684.7589700108565" type="line"/>
      <point x="97.07680350755746" y="726.8483653575454" type="line"/>
      <point x="526.6129810584886" y="726.8483653575454" type="line"/>
      <point x="526.6129810584886" y="684.7589700108565" type="line"/>
    </contour>
    <contour>
      <point x="97.0768035075573" y="41.62646947453713" type="line"/>
      <point x="526.6129810584883" y="41.62646947453713" type="line"/>
      <point x="526.6129810584883" y="-0.4629258721517405" type="line"/>
      <point x="97.0768035075573" y="-0.4629258721517405" type="line"/>
    </contour>
    <contour>
      <point x="97.07680350755746" y="405.55495315863027" type="line"/>
      <point x="370.8926102648908" y="405.55495315863027" type="line"/>
      <point x="370.8926102648908" y="363.4655578119414" type="line"/>
      <point x="97.07680350755746" y="363.4655578119414" type="line"/>
    </contour>
    <contour>
      <point x="162.02822243307017" y="835.0565516783556" type="curve" smooth="yes"/>
      <point x="162.02822243307017" y="860.0800574161684"/>
      <point x="178.72852182113468" y="875.1103656744556"/>
      <point x="204.7639841852213" y="875.1103656744556" type="curve" smooth="yes"/>
      <point x="230.79944654930796" y="875.1103656744556"/>
      <point x="247.49974593737238" y="860.0800574161684"/>
      <point x="247.49974593737238" y="835.0565516783556" type="curve" smooth="yes"/>
      <point x="247.49974593737238" y="810.0330459405425"/>
      <point x="230.8025301210602" y="795.0027376822554"/>
      <point x="204.7639841852213" y="795.0027376822554" type="curve" smooth="yes"/>
      <point x="178.7285218211347" y="795.0027376822554"/>
      <point x="162.0282224330702" y="810.0330459405425"/>
    </contour>
    <contour>
      <point x="392.5224337914775" y="835.0565516783556" type="curve" smooth="yes"/>
      <point x="392.5224337914775" y="860.0800574161684"/>
      <point x="409.22273317954205" y="875.1103656744556"/>
      <point x="435.25819554362863" y="875.1103656744556" type="curve" smooth="yes"/>
      <point x="461.2936579077154" y="875.1103656744556"/>
      <point x="477.99395729577975" y="860.0800574161684"/>
      <point x="477.99395729577975" y="835.0565516783556" type="curve" smooth="yes"/>
      <point x="477.99395729577975" y="810.0330459405425"/>
      <point x="461.29674147946747" y="795.0027376822554"/>
      <point x="435.25819554362863" y="795.0027376822554" type="curve" smooth="yes"/>
      <point x="409.22273317954205" y="795.0027376822554"/>
      <point x="392.5224337914775" y="810.0330459405425"/>
    </contour>
  </outline>
</glyph>
<glyph name="uni00CC" format="2">
  <advance width="186"/>
  <unicode hex="00CC"/>
  <anchor x="93" y="727.3047239705434" name="top"/>
  <anchor x="93" y="-145" name="bottom"/>
  <outline>
    <contour>
      <point x="68.62505243851851" y="727.3047239705434" type="line"/>
      <point x="117.61183068117151" y="727.3047239705434" type="line"/>
      <point x="117.61183068117151" y="-0.4629258721517405" type="line"/>
      <point x="68.62505243851851" y="-0.4629258721517405" type="line"/>
    </contour>
    <contour>
      <point x="-35.77830272864501" y="894.1720258406127" type="line"/>
      <point x="29.311703644176905" y="894.1720258406127" type="line"/>
      <point x="146.62522342317155" y="761.9012393864302" type="line"/>
      <point x="87.47963364100684" y="761.9012393864302" type="line"/>
    </contour>
  </outline>
</glyph>
<glyph name="uni00CD" format="2">
  <advance width="186"/>
  <unicode hex="00CD"/>
  <anchor x="93" y="727.3047239705434" name="top"/>
  <anchor x="93" y="-145" name="bottom"/>
  <outline>
    <contour>
      <point x="68.62505243851851" y="727.3047239705434" type="line"/>
      <point x="117.61183068117151" y="727.3047239705434" type="line"/>
      <point x="117.61183068117151" y="-0.4629258721517405" type="line"/>
      <point x="68.62505243851851" y="-0.4629258721517405" type="line"/>
    </contour>
    <contour>
      <point x="114.381765452191" y="762.5136439596807" type="line"/>
      <point x="55.236175670026306" y="762.5136439596807" type="line"/>
      <point x="172.54969544902096" y="894.7844304138632" type="line"/>
      <point x="237.63970182184286" y="894.7844304138632" type="line"/>
    </contour>
  </outline>
</glyph>
<glyph name="uni00D0" format="2">
  <advance width="699"/>
  <unicode hex="00D0"/>
  <anchor x="349" y="727.3047239705434" name="top"/>
  <anchor x="349" y="-145" name="bottom"/>
  <outline>
    <contour>
      <point x="67.39594385889906" y="727.3047239705434" type="line"/>
      <point x="116.3637151415603" y="727.3047239705434" type="line"/>
      <point x="116.3637151415603" y="-10.472989057552065" type="line"/>
      <point x="67.39594385889906" y="-10.472989057552065" type="line"/>
    </contour>
    <contour>
      <point x="78.89684724437869" y="682.2474654308529" type="line"/>
      <point x="78.89684724437869" y="727.3047239705434" type="line"/>
      <point x="265.79956841089853" y="727.3047239705434" type="line" smooth="yes"/>
      <point x="514.3382173590559" y="727.3047239705434"/>
      <point x="639.7539087993887" y="566.3360332611564"/>
      <point x="639.7539087993887" y="372.17028866529205" type="curve" smooth="yes"/>
      <point x="639.7539087993887" y="167.62845953140155"/>
      <point x="524.2197844698157" y="-10.47298905755207"/>
      <point x="257.3457798515606" y="-10.472989057552065" type="curve" smooth="yes"/>
      <point x="78.89684724437869" y="-10.472989057552065" type="line"/>
      <point x="78.89684724437869" y="31.169462051593058" type="line"/>
      <point x="265.79956841089853" y="31.169462051593058" type="line" smooth="yes"/>
      <point x="489.832040813575" y="31.169462051593058"/>
      <point x="587.3634558658478" y="179.3308950614307"/>
      <point x="587.3634568272895" y="368.4645854018663" type="curve" smooth="yes"/>
      <point x="587.3634577919498" y="558.2313080185638"/>
      <point x="464.0673348469717" y="682.2474654308529"/>
      <point x="259.42836136367083" y="682.2474654308529" type="curve" smooth="yes"/>
    </contour>
    <contour>
      <point x="0.0" y="405.55495315863027" type="line"/>
      <point x="300.19286497582925" y="405.55495315863027" type="line"/>
      <point x="300.19286497582925" y="363.4655578119414" type="line"/>
      <point x="0.0" y="363.4655578119414" type="line"/>
    </contour>
  </outline>
</glyph>
<glyph name="uni00D2" format="2">
  <advance width="788"/>
  <unicode hex="00D2"/>
  <anchor x="394" y="727.3047239705434" name="top"/>
  <anchor x="394" y="-145" name="bottom"/>
  <outline>
    <contour>
      <point x="47.52770549579365" y="364.4035398007608" type="curve" smooth="yes"/>
      <point x="47.52770549579365" y="562.3059612050619"/>
      <point x="191.71622285502883" y="740.2258045635838"/>
      <point x="394.207059076124" y="740.2258045635838" type="curve" smooth="yes"/>
      <point x="609.4931533308023" y="740.2258045635839"/>
      <point x="740.8864126564547" y="562.305961205062"/>
      <point x="740.8864126564547" y="364.4035398007603" type="curve" smooth="yes"/>
      <point x="740.8864126564547" y="166.50111839645916"/>
      <point x="596.6978952972194" y="-11.418724962062925"/>
      <point x="394.207059076124" y="-11.41872496206292" type="curve" smooth="yes"/>
      <point x="178.92096482144558" y="-11.41872496206292"/>
      <point x="47.52770549579367" y="166.50111839645916"/>
    </contour>
    <contour>
      <point x="264.0239000587158" y="896.2876634287882" type="line"/>
      <point x="329.1139064315377" y="896.2876634287882" type="line"/>
      <point x="446.42742621053236" y="764.0168769746057" type="line"/>
      <point x="387.2818364283676" y="764.0168769746057" type="line"/>
    </contour>
    <contour>
      <point x="103.1551970955012" y="364.40353980076065" type="curve" smooth="yes"/>
      <point x="103.1551970955012" y="175.75155908290682"/>
      <point x="225.79443641733076" y="38.031410192078454"/>
      <point x="394.2070590761243" y="38.03141019207844" type="curve" smooth="yes"/>
      <point x="562.6196799718626" y="38.03141019207844"/>
      <point x="685.2589191387603" y="175.75156406733896"/>
      <point x="685.258921056747" y="364.4035398007598" type="curve" smooth="yes"/>
      <point x="685.258921056747" y="553.0555205186137"/>
      <point x="562.6196817349181" y="690.7756694094421"/>
      <point x="394.2070590761243" y="690.7756694094422" type="curve" smooth="yes"/>
      <point x="225.79443818038618" y="690.7756694094422"/>
      <point x="103.15519901348819" y="553.0555155341815"/>
    </contour>
  </outline>
</glyph>
<glyph name="uni00D6" format="2">
  <advance width="788"/>
  <unicode hex="00D6"/>
  <anchor x="394" y="727.3047239705434" name="top"/>
  <anchor x="394" y="-145" name="bottom"/>
  <outline>
    <contour>
      <point x="47.52770549579365" y="364.4035398007608" type="curve" smooth="yes"/>
      <point x="47.52770549579365" y="562.3059612050619"/>
      <point x="191.71622285502883" y="740.2258045635838"/>
      <point x="394.207059076124" y="740.2258045635838" type="curve" smooth="yes"/>
      <point x="609.4931533308023" y="740.2258045635839"/>
      <point x="740.8864126564547" y="562.305961205062"/>
      <point x="740.8864126564547" y="364.4035398007603" type="curve" smooth="yes"/>
      <point x="740.8864126564547" y="166.50111839645916"/>
      <point x="596.6978952972194" y="-11.418724962062925"/>
      <point x="394.207059076124" y="-11.41872496206292" type="curve" smooth="yes"/>
      <point x="178.92096482144558" y="-11.41872496206292"/>
      <point x="47.52770549579367" y="166.50111839645916"/>
    </contour>
    <contour>
      <point x="238.7711031575928" y="836.37119920385" type="curve" smooth="yes"/>
      <point x="238.7711031575928" y="861.3947049416628"/>
      <point x="255.47140254565733" y="876.42501319995"/>
      <point x="281.5068649097439" y="876.42501319995" type="curve" smooth="yes"/>
      <point x="307.54232727383055" y="876.42501319995"/>
      <point x="324.24262666189503" y="861.3947049416628"/>
      <point x="324.24262666189503" y="836.37119920385" type="curve" smooth="yes"/>
      <point x="324.24262666189503" y="811.3476934660368"/>
      <point x="307.5454108455828" y="796.3173852077498"/>
      <point x="281.5068649097439" y="796.3173852077497" type="curve"/>
      <point x="255.47140254565733" y="796.3173852077497"/>
      <point x="238.7711031575928" y="811.3476934660367"/>
    </contour>
    <contour>
      <point x="469.2653145160001" y="836.37119920385" type="curve" smooth="yes"/>
      <point x="469.2653145160001" y="861.3947049416628"/>
      <point x="485.96561390406464" y="876.42501319995"/>
      <point x="512.0010762681512" y="876.42501319995" type="curve" smooth="yes"/>
      <point x="538.0365386322378" y="876.42501319995"/>
      <point x="554.7368380203023" y="861.3947049416628"/>
      <point x="554.7368380203023" y="836.37119920385" type="curve" smooth="yes"/>
      <point x="554.7368380203023" y="811.3476934660368"/>
      <point x="538.0396222039902" y="796.3173852077498"/>
      <point x="512.0010762681512" y="796.3173852077497" type="curve"/>
      <point x="485.96561390406464" y="796.3173852077497"/>
      <point x="469.2653145160001" y="811.3476934660367"/>
    </contour>
    <contour>
      <point x="103.1551970955012" y="364.40353980076065" type="curve" smooth="yes"/>
      <point x="103.1551970955012" y="175.75155908290682"/>
      <point x="225.79443641733076" y="38.031410192078454"/>
      <point x="394.2070590761243" y="38.03141019207844" type="curve" smooth="yes"/>
      <point x="562.6196799718626" y="38.03141019207844"/>
      <point x="685.2589191387603" y="175.75156406733896"/>
      <point x="685.258921056747" y="364.4035398007598" type="curve" smooth="yes"/>
      <point x="685.258921056747" y="553.0555205186137"/>
      <point x="562.6196817349181" y="690.7756694094421"/>
      <point x="394.2070590761243" y="690.7756694094422" type="curve" smooth="yes"/>
      <point x="225.79443818038618" y="690.7756694094422"/>
      <point x="103.15519901348819" y="553.0555155341815"/>
    </contour>
  </outline>
</glyph>
<glyph name="uni00D9" format="2">
  <advance width="676"/>
  <unicode hex="00D9"/>
  <anchor x="338" y="727.3047239705434" name="top"/>
  <anchor x="338" y="-145" name="bottom"/>
  <outline>
    <contour>
      <point x="560.5519625301569" y="264.6498444918361" type="curve" smooth="yes"/>
      <point x="560.5519625301569" y="727.3047239705434" type="line"/>
      <point x="607.8303471329233" y="727.3047239705434" type="line"/>
      <point x="607.8303471329233" y="261.35059484966035" type="line" smooth="yes"/>
      <point x="607.8303471329233" y="81.29047823730522"/>
      <point x="500.567214730871" y="-13.165774145114824"/>
      <point x="334.14828541276086" y="-13.165774145114831" type="curve"/>
      <point x="176.5806388346746" y="-13.165774145114831"/>
      <point x="68.62505243851848" y="96.6783038558836"/>
      <point x="68.62505243851844" y="266.915352171642" type="curve" smooth="yes"/>
      <point x="68.62505243851844" y="727.3047239705434" type="line"/>
      <point x="117.8078571938601" y="727.3047239705434" type="line"/>
      <point x="117.8078571938601" y="278.29470718185485" type="line" smooth="yes"/>
      <point x="117.8078571938601" y="108.99380042443516"/>
      <point x="226.36870296567366" y="31.62748251041208"/>
      <point x="338.2487593297943" y="31.627482510412086" type="curve" smooth="yes"/>
      <point x="453.0817741904656" y="31.627482510412086"/>
      <point x="560.5519625301569" y="107.51003201090003"/>
    </contour>
    <contour>
      <point x="210.55279872508484" y="891.264403793598" type="line"/>
      <point x="275.6428050979068" y="891.264403793598" type="line"/>
      <point x="392.9563248769014" y="758.9936173394157" type="line"/>
      <point x="333.8107350947367" y="758.9936173394157" type="line"/>
    </contour>
  </outline>
</glyph>
<glyph name="uni00DB" format="2">
  <advance width="676"/>
  <unicode hex="00DB"/>
  <anchor x="338" y="727.3047239705434" name="top"/>
  <anchor x="338" y="-145" name="bottom"/>
  <outline>
    <contour>
      <point x="560.5519625301569" y="264.6498444918361" type="curve" smooth="yes"/>
      <point x="560.5519625301569" y="727.3047239705434" type="line"/>
      <point x="607.8303471329233" y="727.3047239705434" type="line"/>
      <point x="607.8303471329233" y="261.35059484966035" type="line" smooth="yes"/>
      <point x="607.8303471329233" y="81.29047823730522"/>
      <point x="500.567214730871" y="-13.165774145114824"/>
      <point x="334.14828541276086" y="-13.165774145114831" type="curve"/>
      <point x="176.5806388346746" y="-13.165774145114831"/>
      <point x="68.62505243851848" y="96.6783038558836"/>
      <point x="68.62505243851844" y="266.915352171642" type="curve" smooth="yes"/>
      <point x="68.62505243851844" y="727.3047239705434" type="line"/>
      <point x="117.8078571938601" y="727.3047239705434" type="line"/>
      <point x="117.8078571938601" y="278.29470718185485" type="line" smooth="yes"/>
      <point x="117.8078571938601" y="108.99380042443516"/>
      <point x="226.36870296567366" y="31.62748251041208"/>
      <point x="338.2487593297943" y="31.627482510412086" type="curve" smooth="yes"/>
      <point x="453.0817741904656" y="31.627482510412086"/>
      <point x="560.5519625301569" y="107.51003201090003"/>
    </contour>
    <contour>
      <point x="356.52247297152803" y="858.7858886159648" type="line"/>
      <point x="227.2627376505868" y="759.3962916038469" type="line"/>
      <point x="170.83272591798573" y="759.3962916038469" type="line"/>
      <point x="326.8449239150253" y="891.6670780580292" type="line"/>
      <point x="358.86285539482395" y="891.6670780580292" type="line"/>
      <point x="513.7809250183086" y="759.3962916038469" type="line"/>
      <point x="455.9592559179887" y="759.3962916038469" type="line"/>
      <point x="329.18530633832114" y="858.7858886159648" type="line"/>
    </contour>
  </outline>
</glyph>
<glyph name="uni00DE" format="2">
  <advance width="620"/>
  <unicode hex="00DE"/>
  <anchor x="310" y="727.3047239705434" name="top"/>
  <anchor x="310" y="-145" name="bottom"/>
  <outline>
    <contour>
      <point x="68.62505243851851" y="727.3047239705434" type="line"/>
      <point x="118.46155821033466" y="727.3047239705434" type="line"/>
      <point x="118.46155821033466" y="-0.4629258721517405" type="line"/>
      <point x="68.62505243851851" y="-0.4629258721517405" type="line"/>
    </contour>
    <contour>
      <point x="332.6360313366889" y="181.22478867743098" type="curve" smooth="yes"/>
      <point x="93.54330532442658" y="181.22478867743098" type="line"/>
      <point x="93.54330532442658" y="226.38747563675201" type="line"/>
      <point x="325.6422920136692" y="226.38747563675201" type="line" smooth="yes"/>
      <point x="444.764024924282" y="226.38747563675201"/>
      <point x="525.1679207023916" y="288.5709161571921"/>
      <point x="525.1679212623393" y="398.72319342821226" type="curve" smooth="yes"/>
      <point x="525.1679218116685" y="506.78647559247304"/>
      <point x="426.75407080071716" y="556.0980844305052"/>
      <point x="330.2842606606424" y="556.0980844305052" type="curve" smooth="yes"/>
      <point x="93.54330532442658" y="556.0980844305052" type="line"/>
      <point x="93.54330532442658" y="602.692877664244" type="line"/>
      <point x="340.29619141356056" y="602.692877664244" type="line" smooth="yes"/>
      <point x="475.02314483471474" y="602.692877664244"/>
      <point x="576.117107422265" y="524.7316786777853"/>
      <point x="576.1171074222651" y="404.9067203020916" type="curve" smooth="yes"/>
      <point x="576.1171074222651" y="251.67915587477634"/>
      <point x="462.8001502145888" y="181.22478867743098"/>
    </contour>
  </outline>
</glyph>
<glyph name="uni00E3" format="2">
  <advance width="528"/>
  <unicode hex="00E3"/>
  <anchor x="264" y="577.8261138372574" name="top"/>
  <anchor x="264" y="-145" name="bottom"/>
  <outline>
    <contour>
      <point x="412.36611419924157" y="0.0" type="line"/>
      <point x="412.36611419924157" y="339.4818055971202" type="line" smooth="yes"/>
      <point x="412.36611419924157" y="483.4712231740625"/>
      <point x="341.3536978742507" y="542.178326025579"/>
      <point x="234.3339517963483" y="542.178326025579" type="curve" smooth="yes"/>
      <point x="170.89882349947754" y="542.178326025579"/>
      <point x="110.7219564753386" y="515.80551990311"/>
      <point x="55.787777926007934" y="475.08781316642074" type="curve"/>
      <point x="28.793925908022587" y="512.7769871623852" type="line"/>
      <point x="85.12307182570724" y="555.350770964984"/>
      <point x="150.35807520618187" y="584.2153698100965"/>
      <point x="238.07553599131936" y="584.2153698100965" type="curve" smooth="yes"/>
      <point x="368.21409778607676" y="584.2153698100965"/>
      <point x="459.01356404993453" y="511.83317763028947"/>
      <point x="459.01356404993453" y="350.9262137351684" type="curve" smooth="yes"/>
      <point x="459.01356404993453" y="0.0" type="line"/>
    </contour>
    <contour>
      <point x="430.67075739172606" y="225.1745819865766" type="curve"/>
      <point x="430.67075739172606" y="96.99351527426893" type="line"/>
      <point x="406.41157339877276" y="53.194300171640904"/>
      <point x="354.18412713233545" y="-13.535047596084027"/>
      <point x="236.60421203739284" y="-13.535047596084027" type="curve" smooth="yes"/>
      <point x="124.02410280363603" y="-13.535047596084027"/>
      <point x="47.62113386483102" y="49.45276764104943"/>
      <point x="47.62113386483103" y="152.078908391147" type="curve" smooth="yes"/>
      <point x="47.62113386483103" y="263.53921724265865"/>
      <point x="142.13356742236377" y="326.4763041102408"/>
      <point x="260.91918254010324" y="326.4763041102408" type="curve" smooth="yes"/>
      <point x="350.41343022487354" y="326.4763041102408"/>
      <point x="418.7815125982409" y="276.27899621282205"/>
    </contour>
    <contour>
      <point x="183.97390843642896" y="764.4433327894103" type="curve" smooth="yes"/>
      <point x="214.66459893275575" y="764.4433327894103"/>
      <point x="239.95129604776935" y="755.8434354839651"/>
      <point x="273.67331777404195" y="727.8168415813736" type="curve" smooth="yes"/>
      <point x="299.32018964623944" y="706.5015577983179"/>
      <point x="320.0247513648758" y="695.3000640805391"/>
      <point x="342.948457343485" y="695.3000640805391" type="curve" smooth="yes"/>
      <point x="365.8820018267368" y="695.3000640805391"/>
      <point x="390.4170836132417" y="712.5596578472883"/>
      <point x="406.5299852438529" y="755.8685304943879" type="curve"/>
      <point x="440.82473349734016" y="743.2178029348133" type="line"/>
      <point x="426.73822209615196" y="680.2412267148615"/>
      <point x="385.59141500166" y="652.212524434135"/>
      <point x="343.85045056931193" y="652.212524434135" type="curve" smooth="yes"/>
      <point x="313.91348301372796" y="652.212524434135"/>
      <point x="281.2189257857725" y="665.6245574194324"/>
      <point x="247.0245564305185" y="693.0539064162031" type="curve" smooth="yes"/>
      <point x="226.0739740206518" y="709.8596217266842"/>
      <point x="204.1469904444828" y="718.4400758080553"/>
      <point x="190.21951085852467" y="718.4400758080553" type="curve" smooth="yes"/>
      <point x="143.09271789619794" y="718.4400758080553"/>
      <point x="122.3930873237661" y="677.3289478288564"/>
      <point x="112.79119743971911" y="639.4689559035281" type="curve"/>
      <point x="75.54722157842795" y="655.384501992105" type="line"/>
      <point x="88.5534185863475" y="715.8318635407549"/>
      <point x="122.10454701516898" y="764.4433327894102"/>
    </contour>
    <contour>
      <point x="258.2030507567415" y="288.55641595695516" type="curve" smooth="yes"/>
      <point x="163.1905076005446" y="288.55641595695516"/>
      <point x="98.24289595679016" y="238.82068195557528"/>
      <point x="98.24289562108554" y="155.4934666066872" type="curve" smooth="yes"/>
      <point x="98.24289562108554" y="75.22419987556472"/>
      <point x="153.36626979101635" y="22.61814823968041"/>
      <point x="242.381524539255" y="22.618148239680398" type="curve" smooth="yes"/>
      <point x="335.8460810924298" y="22.618148239680398"/>
      <point x="412.36611419924157" y="100.40950945535911"/>
      <point x="412.36611419924157" y="170.43587131186638" type="curve" smooth="yes"/>
      <point x="412.36611419924157" y="241.38296923305825"/>
      <point x="339.4531682827344" y="288.55641595695516"/>
    </contour>
  </outline>
</glyph>
<glyph name="uni00E4" format="2">
  <advance width="520"/>
  <unicode hex="00E4"/>
  <anchor x="260" y="577.8261138372574" name="top"/>
  <anchor x="260" y="-145" name="bottom"/>
  <outline>
    <contour>
      <point x="409.2270390150135" y="0.0" type="line"/>
      <point x="409.2270390150135" y="339.4818055971202" type="line" smooth="yes"/>
      <point x="409.2270390150135" y="483.4712231740625"/>
      <point x="338.2146226900226" y="542.178326025579"/>
      <point x="231.19487661212017" y="542.178326025579" type="curve" smooth="yes"/>
      <point x="167.75974831524945" y="542.178326025579"/>
      <point x="107.58288129111048" y="515.80551990311"/>
      <point x="52.6487027417798" y="475.08781316642074" type="curve"/>
      <point x="25.654850723794457" y="512.7769871623852" type="line"/>
      <point x="81.98399664147911" y="555.350770964984"/>
      <point x="147.21900002195372" y="584.2153698100965"/>
      <point x="234.93646080709124" y="584.2153698100965" type="curve" smooth="yes"/>
      <point x="365.0750226018487" y="584.2153698100965"/>
      <point x="455.87448886570644" y="511.83317763028947"/>
      <point x="455.87448886570644" y="350.9262137351684" type="curve" smooth="yes"/>
      <point x="455.87448886570644" y="0.0" type="line"/>
    </contour>
    <contour>
      <point x="427.5316822074979" y="225.1745819865766" type="curve"/>
      <point x="427.5316822074979" y="96.99351527426893" type="line"/>
      <point x="403.2724982145446" y="53.194300171640904"/>
      <point x="351.04505194810736" y="-13.535047596084027"/>
      <point x="233.4651368531647" y="-13.535047596084027" type="curve" smooth="yes"/>
      <point x="120.88502761940788" y="-13.535047596084027"/>
      <point x="44.482058680602876" y="49.45276764104943"/>
      <point x="44.4820586806029" y="152.078908391147" type="curve" smooth="yes"/>
      <point x="44.4820586806029" y="263.53921724265865"/>
      <point x="138.99449223813565" y="326.4763041102408"/>
      <point x="257.7801073558751" y="326.4763041102408" type="curve" smooth="yes"/>
      <point x="347.2743550406454" y="326.4763041102408"/>
      <point x="415.64243741401276" y="276.27899621282205"/>
    </contour>
    <contour>
      <point x="100.13066250698897" y="701.7863993261045" type="curve" smooth="yes"/>
      <point x="100.13066250698897" y="726.8099050639173"/>
      <point x="116.83096189505349" y="741.8402133222045"/>
      <point x="142.86642425914008" y="741.8402133222045" type="curve" smooth="yes"/>
      <point x="168.90188662322674" y="741.8402133222045"/>
      <point x="185.60218601129117" y="726.8099050639173"/>
      <point x="185.60218601129117" y="701.7863993261045" type="curve" smooth="yes"/>
      <point x="185.60218601129117" y="676.7628935882914"/>
      <point x="168.90497019497897" y="661.7325853300043"/>
      <point x="142.86642425914008" y="661.7325853300043" type="curve" smooth="yes"/>
      <point x="116.83096189505349" y="661.7325853300043"/>
      <point x="100.13066250698897" y="676.7628935882914"/>
    </contour>
    <contour>
      <point x="330.6248738653963" y="701.7863993261045" type="curve" smooth="yes"/>
      <point x="330.6248738653963" y="726.8099050639173"/>
      <point x="347.32517325346083" y="741.8402133222045"/>
      <point x="373.36063561754736" y="741.8402133222045" type="curve" smooth="yes"/>
      <point x="399.3960979816341" y="741.8402133222045"/>
      <point x="416.0963973696985" y="726.8099050639173"/>
      <point x="416.0963973696984" y="701.7863993261045" type="curve" smooth="yes"/>
      <point x="416.0963973696984" y="676.7628935882914"/>
      <point x="399.3991815533863" y="661.7325853300043"/>
      <point x="373.36063561754736" y="661.7325853300043" type="curve" smooth="yes"/>
      <point x="347.32517325346083" y="661.7325853300043"/>
      <point x="330.62487386539635" y="676.7628935882914"/>
    </contour>
    <contour>
      <point x="255.06397557251339" y="288.55641595695516" type="curve" smooth="yes"/>
      <point x="160.0514324163165" y="288.55641595695516"/>
      <point x="95.10382077256205" y="238.82068195557528"/>
      <point x="95.10382043685742" y="155.4934666066872" type="curve" smooth="yes"/>
      <point x="95.10382043685742" y="75.22419987556472"/>
      <point x="150.22719460678823" y="22.61814823968041"/>
      <point x="239.24244935502688" y="22.618148239680398" type="curve" smooth="yes"/>
      <point x="332.70700590820167" y="22.618148239680398"/>
      <point x="409.2270390150135" y="100.40950945535911"/>
      <point x="409.2270390150135" y="170.43587131186638" type="curve" smooth="yes"/>
      <point x="409.2270390150135" y="241.38296923305825"/>
      <point x="336.3140930985063" y="288.55641595695516"/>
    </contour>
  </outline>
</glyph>
<glyph name="uni00E5" format="2">
  <advance width="511"/>
  <unicode hex="00E5"/>
  <anchor x="255" y="577.8261138372574" name="top"/>
  <anchor x="255" y="-145" name="bottom"/>
  <outline>
    <contour>
      <point x="406.4838319558637" y="0.0" type="line"/>
      <point x="406.4838319558637" y="339.4818055971202" type="line" smooth="yes"/>
      <point x="406.4838319558637" y="483.4712231740625"/>
      <point x="335.47141563087285" y="542.178326025579"/>
      <point x="228.45166955297043" y="542.178326025579" type="curve" smooth="yes"/>
      <point x="165.01654125609969" y="542.178326025579"/>
      <point x="104.83967423196074" y="515.80551990311"/>
      <point x="49.90549568263007" y="475.08781316642074" type="curve"/>
      <point x="22.911643664644725" y="512.7769871623852" type="line"/>
      <point x="79.24078958232938" y="555.350770964984"/>
      <point x="144.47579296280398" y="584.2153698100965"/>
      <point x="232.1932537479415" y="584.2153698100965" type="curve" smooth="yes"/>
      <point x="362.3318155426989" y="584.2153698100965"/>
      <point x="453.1312818065567" y="511.83317763028947"/>
      <point x="453.1312818065567" y="350.9262137351684" type="curve" smooth="yes"/>
      <point x="453.1312818065567" y="0.0" type="line"/>
    </contour>
    <contour>
      <point x="424.78847514834814" y="225.1745819865766" type="curve"/>
      <point x="424.78847514834814" y="96.99351527426893" type="line"/>
      <point x="400.52929115539484" y="53.194300171640904"/>
      <point x="348.3018448889576" y="-13.535047596084027"/>
      <point x="230.72192979401498" y="-13.535047596084027" type="curve" smooth="yes"/>
      <point x="118.14182056025817" y="-13.535047596084027"/>
      <point x="41.738851621453165" y="49.45276764104943"/>
      <point x="41.738851621453165" y="152.078908391147" type="curve" smooth="yes"/>
      <point x="41.738851621453165" y="263.53921724265865"/>
      <point x="136.2512851789859" y="326.4763041102408"/>
      <point x="255.03690029672535" y="326.4763041102408" type="curve" smooth="yes"/>
      <point x="344.5311479814957" y="326.4763041102408"/>
      <point x="412.899230354863" y="276.27899621282205"/>
    </contour>
    <contour>
      <point x="128.9134910384217" y="681.2188078622792" type="curve" smooth="yes"/>
      <point x="128.9134910384217" y="741.5831860386156"/>
      <point x="176.04841071705863" y="786.9611977779352"/>
      <point x="252.29526170921758" y="786.9611977779352" type="curve" smooth="yes"/>
      <point x="328.54211270137654" y="786.9611977779352"/>
      <point x="375.6770323800133" y="741.5831860386158"/>
      <point x="375.6770323800133" y="681.2188078622792" type="curve" smooth="yes"/>
      <point x="375.6770323800133" y="620.9731559385751"/>
      <point x="328.40116109721566" y="575.9682070250198"/>
      <point x="252.29526170921758" y="575.9682070250198" type="curve" smooth="yes"/>
      <point x="176.19837503652707" y="575.9682070250198"/>
      <point x="128.9134910384217" y="620.973155938575"/>
    </contour>
    <contour>
      <point x="252.32076851336365" y="288.55641595695516" type="curve" smooth="yes"/>
      <point x="157.30822535716675" y="288.55641595695516"/>
      <point x="92.3606137134123" y="238.82068195557528"/>
      <point x="92.36061337770768" y="155.4934666066872" type="curve" smooth="yes"/>
      <point x="92.36061337770768" y="75.22419987556472"/>
      <point x="147.4839875476385" y="22.61814823968041"/>
      <point x="236.49924229587714" y="22.618148239680398" type="curve" smooth="yes"/>
      <point x="329.96379884905195" y="22.618148239680398"/>
      <point x="406.4838319558637" y="100.40950945535911"/>
      <point x="406.4838319558637" y="170.43587131186638" type="curve" smooth="yes"/>
      <point x="406.4838319558637" y="241.38296923305825"/>
      <point x="333.57088603935654" y="288.55641595695516"/>
    </contour>
    <contour>
      <point x="252.2952617092175" y="615.1705023981508" type="curve" smooth="yes"/>
      <point x="301.0315919697998" y="615.1705023981508"/>
      <point x="332.7417412172756" y="639.6287122499378"/>
      <point x="332.7417412172756" y="681.2239555538104" type="curve" smooth="yes"/>
      <point x="332.7417412172756" y="722.9415631764517"/>
      <point x="301.1691753427548" y="747.7589024048041"/>
      <point x="252.2952617092175" y="747.7589024048041" type="curve" smooth="yes"/>
      <point x="203.42134807568007" y="747.7589024048041"/>
      <point x="171.84878220115948" y="722.9415631764517"/>
      <point x="171.84878220115948" y="681.2239555538104" type="curve" smooth="yes"/>
      <point x="171.84878220115948" y="639.6287122499378"/>
      <point x="203.56470296796934" y="615.1705023981508"/>
    </contour>
  </outline>
</glyph>
<glyph name="uni00E8" format="2">
  <advance width="602"/>
  <unicode hex="00E8"/>
  <anchor x="301" y="577.8261138372574" name="top"/>
  <anchor x="301" y="-145" name="bottom"/>
  <outline>
    <contour>
      <point x="67.95544900030936" y="326.18012017832297" type="line"/>
      <point x="539.1204880255418" y="326.18012017832297" type="line"/>
      <point x="539.1204880255418" y="284.5956079973161" type="line"/>
      <point x="67.95544900030936" y="284.5956079973161" type="line"/>
    </contour>
    <contour>
      <point x="362.8515627435964" y="36.43488784254485" type="curve" smooth="yes"/>
      <point x="413.23300112570774" y="36.43488784254485"/>
      <point x="463.28036931815166" y="52.44562869327008"/>
      <point x="497.29496344492213" y="73.92448936528254" type="curve"/>
      <point x="520.0152492047657" y="33.20420679195731" type="line"/>
      <point x="495.3730772567413" y="11.856499171364682"/>
      <point x="430.57952591343985" y="-12.74166874448585"/>
      <point x="360.32463780251436" y="-12.741668744485855" type="curve"/>
      <point x="160.59465029184585" y="-12.741668744485855"/>
      <point x="47.01546769800893" y="119.94669865295162"/>
      <point x="47.0154676980089" y="289.1833382947973" type="curve" smooth="yes"/>
      <point x="47.0154676980089" y="451.93583141495617"/>
      <point x="154.1581814731049" y="593.1405737310258"/>
      <point x="324.84578034648007" y="593.1405737310259" type="curve" smooth="yes"/>
      <point x="467.2432593238507" y="593.1405737310259"/>
      <point x="564.6765852351521" y="468.2824824464292"/>
      <point x="564.676585235152" y="321.68900570100413" type="curve" smooth="yes"/>
      <point x="564.676585235152" y="311.8795055030916"/>
      <point x="563.6519033802297" y="293.2077170944896"/>
      <point x="562.1044706387106" y="284.5956079973161" type="curve"/>
      <point x="518.0089624617473" y="284.5956079973161" type="line"/>
      <point x="518.0089624617473" y="315.42281007371673" type="line" smooth="yes"/>
      <point x="518.0089624617473" y="454.34841422769784"/>
      <point x="442.2057715454511" y="546.3429744331111"/>
      <point x="318.1846758696985" y="546.3429744331112" type="curve" smooth="yes"/>
      <point x="170.73271840198942" y="546.3429744331112"/>
      <point x="98.93196935337244" y="421.7478362810441"/>
      <point x="98.93196935337247" y="289.1828451649485" type="curve" smooth="yes"/>
      <point x="98.93196935337247" y="148.65152733900436"/>
      <point x="183.16487212746995" y="36.43488784254487"/>
    </contour>
    <contour>
      <point x="191.19854081782728" y="761.8326309910348" type="line"/>
      <point x="256.2885471906492" y="761.8326309910348" type="line"/>
      <point x="373.60206696964383" y="629.5618445368523" type="line"/>
      <point x="314.45647718747915" y="629.5618445368523" type="line"/>
    </contour>
  </outline>
</glyph>
<glyph name="uni00EB" format="2">
  <advance width="603"/>
  <unicode hex="00EB"/>
  <anchor x="301" y="577.8261138372574" name="top"/>
  <anchor x="301" y="-145" name="bottom"/>
  <outline>
    <contour>
      <point x="66.80823123565087" y="326.18012017832297" type="line"/>
      <point x="537.9732702608833" y="326.18012017832297" type="line"/>
      <point x="537.9732702608833" y="284.5956079973161" type="line"/>
      <point x="66.80823123565087" y="284.5956079973161" type="line"/>
    </contour>
    <contour>
      <point x="361.7043449789379" y="36.43488784254485" type="curve" smooth="yes"/>
      <point x="412.08578336104927" y="36.43488784254485"/>
      <point x="462.1331515534932" y="52.44562869327008"/>
      <point x="496.1477456802637" y="73.92448936528254" type="curve"/>
      <point x="518.8680314401073" y="33.20420679195731" type="line"/>
      <point x="494.22585949208286" y="11.856499171364682"/>
      <point x="429.43230814878143" y="-12.74166874448585"/>
      <point x="359.1774200378558" y="-12.741668744485855" type="curve"/>
      <point x="159.44743252718732" y="-12.741668744485855"/>
      <point x="45.8682499333504" y="119.94669865295162"/>
      <point x="45.86824993335041" y="289.1833382947973" type="curve" smooth="yes"/>
      <point x="45.86824993335041" y="451.93583141495617"/>
      <point x="153.0109637084464" y="593.1405737310258"/>
      <point x="323.6985625818216" y="593.1405737310259" type="curve" smooth="yes"/>
      <point x="466.09604155919214" y="593.1405737310259"/>
      <point x="563.5293674704935" y="468.2824824464292"/>
      <point x="563.5293674704935" y="321.68900570100413" type="curve" smooth="yes"/>
      <point x="563.5293674704935" y="311.8795055030916"/>
      <point x="562.5046856155712" y="293.2077170944896"/>
      <point x="560.9572528740522" y="284.5956079973161" type="curve"/>
      <point x="516.8617446970889" y="284.5956079973161" type="line"/>
      <point x="516.8617446970889" y="315.42281007371673" type="line" smooth="yes"/>
      <point x="516.8617446970889" y="454.34841422769784"/>
      <point x="441.0585537807927" y="546.3429744331111"/>
      <point x="317.03745810504" y="546.3429744331112" type="curve" smooth="yes"/>
      <point x="169.58550063733094" y="546.3429744331112"/>
      <point x="97.78475158871396" y="421.7478362810441"/>
      <point x="97.78475158871397" y="289.1828451649485" type="curve" smooth="yes"/>
      <point x="97.78475158871397" y="148.65152733900436"/>
      <point x="182.01765436281144" y="36.43488784254487"/>
    </contour>
    <contour>
      <point x="164.7985261520458" y="701.9161667660966" type="curve" smooth="yes"/>
      <point x="164.7985261520458" y="726.9396725039094"/>
      <point x="181.49882554011032" y="741.9699807621965"/>
      <point x="207.5342879041969" y="741.9699807621964" type="curve" smooth="yes"/>
      <point x="233.56975026828357" y="741.9699807621964"/>
      <point x="250.27004965634802" y="726.9396725039093"/>
      <point x="250.27004965634802" y="701.9161667660966" type="curve" smooth="yes"/>
      <point x="250.27004965634802" y="676.8926610282834"/>
      <point x="233.57283384003583" y="661.8623527699964"/>
      <point x="207.5342879041969" y="661.8623527699964" type="curve" smooth="yes"/>
      <point x="181.49882554011032" y="661.8623527699964"/>
      <point x="164.79852615204578" y="676.8926610282834"/>
    </contour>
    <contour>
      <point x="395.29273751045315" y="701.9161667660966" type="curve" smooth="yes"/>
      <point x="395.29273751045315" y="726.9396725039094"/>
      <point x="411.9930368985177" y="741.9699807621965"/>
      <point x="438.02849926260427" y="741.9699807621964" type="curve" smooth="yes"/>
      <point x="464.063961626691" y="741.9699807621964"/>
      <point x="480.7642610147554" y="726.9396725039093"/>
      <point x="480.7642610147554" y="701.9161667660966" type="curve" smooth="yes"/>
      <point x="480.7642610147554" y="676.8926610282834"/>
      <point x="464.0670451984431" y="661.8623527699964"/>
      <point x="438.02849926260427" y="661.8623527699964" type="curve" smooth="yes"/>
      <point x="411.9930368985177" y="661.8623527699964"/>
      <point x="395.29273751045315" y="676.8926610282834"/>
    </contour>
  </outline>
</glyph>
<glyph name="uni00ED" format="2">
  <advance width="211"/>
  <unicode hex="00ED"/>
  <anchor x="105" y="577.8261138372574" name="top"/>
  <anchor x="105" y="-145" name="bottom"/>
  <outline>
    <contour>
      <point x="69.4800700744384" y="0.07739554720163708" type="line"/>
      <point x="69.4800700744384" y="577.8261138372574" type="line"/>
      <point x="116.2973968760195" y="577.8261138372574" type="line"/>
      <point x="116.2973968760195" y="0.07739554720163708" type="line"/>
    </contour>
    <contour>
      <point x="113.83873835732783" y="629.5927582248233" type="line"/>
      <point x="54.69314857516313" y="629.5927582248233" type="line"/>
      <point x="172.00666835415777" y="761.8635446790057" type="line"/>
      <point x="237.09667472697967" y="761.8635446790057" type="line"/>
    </contour>
  </outline>
</glyph>
<glyph name="uni00EE" format="2">
  <advance width="335"/>
  <unicode hex="00EE"/>
  <anchor x="167" y="577.8261138372574" name="top"/>
  <anchor x="167" y="-145" name="bottom"/>
  <outline>
    <contour>
      <point x="141.53226515890168" y="0.07739554720163708" type="line"/>
      <point x="141.53226515890168" y="577.8261138372574" type="line"/>
      <point x="188.3495919604828" y="577.8261138372574" type="line"/>
      <point x="188.3495919604828" y="0.07739554720163708" type="line"/>
    </contour>
    <contour>
      <point x="181.7005395073983" y="728.7726249281221" type="line"/>
      <point x="52.44080418645708" y="629.3830279160043" type="line"/>
      <point x="-3.989207546144014" y="629.3830279160043" type="line"/>
      <point x="152.02299045089552" y="761.6538143701868" type="line"/>
      <point x="184.0409219306942" y="761.6538143701868" type="line"/>
      <point x="338.9589915541788" y="629.3830279160043" type="line"/>
      <point x="281.1373224538588" y="629.3830279160043" type="line"/>
      <point x="154.3633728741914" y="728.7726249281221" type="line"/>
    </contour>
  </outline>
</glyph>
<glyph name="uni00EF" format="2">
  <advance width="358"/>
  <unicode hex="00EF"/>
  <anchor x="179" y="577.8261138372574" name="top"/>
  <anchor x="179" y="-145" name="bottom"/>
  <outline>
    <contour>
      <point x="152.29310360496413" y="0.07739554720163708" type="line"/>
      <point x="152.29310360496413" y="577.8261138372574" type="line"/>
      <point x="199.11043040654522" y="577.8261138372574" type="line"/>
      <point x="199.11043040654522" y="0.07739554720163708" type="line"/>
    </contour>
    <contour>
      <point x="21.238906805894555" y="701.3346758808174" type="curve" smooth="yes"/>
      <point x="21.238906805894555" y="726.3581816186302"/>
      <point x="37.93920619395908" y="741.3884898769173"/>
      <point x="63.974668558045664" y="741.3884898769172" type="curve" smooth="yes"/>
      <point x="90.01013092213233" y="741.3884898769172"/>
      <point x="106.71043031019677" y="726.35818161863"/>
      <point x="106.71043031019677" y="701.3346758808174" type="curve" smooth="yes"/>
      <point x="106.71043031019677" y="676.3111701430042"/>
      <point x="90.01321449388456" y="661.2808618847172"/>
      <point x="63.974668558045664" y="661.2808618847172" type="curve" smooth="yes"/>
      <point x="37.93920619395908" y="661.2808618847172"/>
      <point x="21.23890680589456" y="676.3111701430042"/>
    </contour>
    <contour>
      <point x="251.7331181643019" y="701.3346758808174" type="curve" smooth="yes"/>
      <point x="251.7331181643019" y="726.3581816186302"/>
      <point x="268.43341755236645" y="741.3884898769173"/>
      <point x="294.46887991645303" y="741.3884898769172" type="curve" smooth="yes"/>
      <point x="320.50434228053973" y="741.3884898769172"/>
      <point x="337.20464166860415" y="726.35818161863"/>
      <point x="337.2046416686041" y="701.3346758808174" type="curve" smooth="yes"/>
      <point x="337.2046416686041" y="676.3111701430042"/>
      <point x="320.5074258522919" y="661.2808618847172"/>
      <point x="294.46887991645303" y="661.2808618847172" type="curve" smooth="yes"/>
      <point x="268.43341755236645" y="661.2808618847172"/>
      <point x="251.7331181643019" y="676.3111701430042"/>
    </contour>
  </outline>
</glyph>
<glyph name="uni00F0" format="2">
  <advance width="655"/>
  <unicode hex="00F0"/>
  <anchor x="327" y="577.8261138372574" name="top"/>
  <anchor x="327" y="-145" name="bottom"/>
  <outline>
    <contour>
      <point x="131.72294133938553" y="690.8757158065862" type="curve"/>
      <point x="131.72294133938553" y="727.3047239705434" type="line"/>
      <point x="235.66479599737826" y="727.3047239705434" type="line"/>
      <point x="460.8841127444799" y="688.4488888950299"/>
      <point x="612.2691717930882" y="519.753240034037"/>
      <point x="612.2691717930882" y="291.3111827371248" type="curve" smooth="yes"/>
      <point x="612.2691717930882" y="151.18116436140247"/>
      <point x="525.8996781210458" y="-13.931203636790826"/>
      <point x="335.6785107417724" y="-13.93120363679084" type="curve"/>
      <point x="169.56387943822412" y="-13.93120363679084"/>
      <point x="49.18940139809183" y="114.02020096148907"/>
      <point x="49.18940139809185" y="278.8717237060905" type="curve" smooth="yes"/>
      <point x="49.18940139809185" y="441.2214579023978"/>
      <point x="174.91083384793885" y="563.8787389646484"/>
      <point x="330.03739444486934" y="563.8787389646484" type="curve" smooth="yes"/>
      <point x="431.0986272608318" y="563.8787389646484"/>
      <point x="501.1959320138319" y="518.8598920430361"/>
      <point x="564.6106032819902" y="443.3247077142443" type="curve"/>
      <point x="548.0078666015004" y="432.5466836187972" type="line"/>
      <point x="474.54365090075254" y="607.7937415650092"/>
      <point x="288.62239792191417" y="699.060607414257"/>
    </contour>
    <contour>
      <point x="155.23662208859628" y="627.051076168877" type="line"/>
      <point x="481.11358826264217" y="729.253235780593" type="line"/>
      <point x="493.9675106389811" y="691.8142654909383" type="line"/>
      <point x="168.09054446493505" y="589.6121058792223" type="line"/>
    </contour>
    <contour>
      <point x="324.09548745777806" y="521.8191408855171" type="curve" smooth="yes"/>
      <point x="197.47193565350324" y="521.8191408855171"/>
      <point x="99.89489353832053" y="409.8739078483592"/>
      <point x="99.89489353832049" y="281.55417829205993" type="curve" smooth="yes"/>
      <point x="99.89489353832049" y="138.1284641294077"/>
      <point x="196.93791011483773" y="30.74762593816098"/>
      <point x="335.70064865396176" y="30.747625938160958" type="curve" smooth="yes"/>
      <point x="443.80072907591443" y="30.747625938160958"/>
      <point x="561.7548128766651" y="123.49669146574024"/>
      <point x="561.754812876665" y="285.4320447968426" type="curve" smooth="yes"/>
      <point x="561.754812876665" y="431.8737254540003"/>
      <point x="456.3131776420307" y="521.8191408855171"/>
    </contour>
  </outline>
</glyph>
<glyph name="uni00F6" format="2">
  <advance width="675"/>
  <unicode hex="00F6"/>
  <anchor x="337" y="577.8261138372574" name="top"/>
  <anchor x="337" y="-145" name="bottom"/>
  <outline>
    <contour>
      <point x="44.74557082069768" y="288.830975427733" type="curve" smooth="yes"/>
      <point x="44.74557082069768" y="451.7488375385901"/>
      <point x="179.2255854991317" y="591.2808122568877"/>
      <point x="337.48019109291755" y="591.2808122568877" type="curve" smooth="yes"/>
      <point x="514.7086957735902" y="591.2808122568877"/>
      <point x="630.2148113651373" y="451.74883753859024"/>
      <point x="630.2148113651373" y="288.8309754277325" type="curve" smooth="yes"/>
      <point x="630.2148113651373" y="125.86192822854144"/>
      <point x="495.7845166858589" y="-13.80287350483826"/>
      <point x="337.48019109291744" y="-13.802873504838217" type="curve" smooth="yes"/>
      <point x="160.19600524536787" y="-13.802873504838217"/>
      <point x="44.74557082069765" y="125.86192822854146"/>
    </contour>
    <contour>
      <point x="182.45192590369797" y="701.3244335902742" type="curve" smooth="yes"/>
      <point x="182.45192590369797" y="726.347939328087"/>
      <point x="199.15222529176248" y="741.3782475863742"/>
      <point x="225.18768765584906" y="741.3782475863742" type="curve" smooth="yes"/>
      <point x="251.22315001993573" y="741.3782475863742"/>
      <point x="267.9234494080002" y="726.347939328087"/>
      <point x="267.9234494080002" y="701.3244335902742" type="curve" smooth="yes"/>
      <point x="267.9234494080002" y="676.3009278524611"/>
      <point x="251.226233591688" y="661.270619594174"/>
      <point x="225.18768765584906" y="661.270619594174" type="curve" smooth="yes"/>
      <point x="199.15222529176248" y="661.270619594174"/>
      <point x="182.45192590369794" y="676.3009278524611"/>
    </contour>
    <contour>
      <point x="412.9461372621053" y="701.3244335902742" type="curve" smooth="yes"/>
      <point x="412.9461372621053" y="726.347939328087"/>
      <point x="429.64643665016985" y="741.3782475863742"/>
      <point x="455.68189901425643" y="741.3782475863742" type="curve" smooth="yes"/>
      <point x="481.71736137834307" y="741.3782475863742"/>
      <point x="498.41766076640744" y="726.347939328087"/>
      <point x="498.41766076640744" y="701.3244335902742" type="curve" smooth="yes"/>
      <point x="498.41766076640744" y="676.3009278524611"/>
      <point x="481.7204449500953" y="661.270619594174"/>
      <point x="455.68189901425643" y="661.270619594174" type="curve" smooth="yes"/>
      <point x="429.64643665016985" y="661.270619594174"/>
      <point x="412.9461372621053" y="676.3009278524611"/>
    </contour>
    <contour>
      <point x="98.26709591351012" y="288.9022425350492" type="curve" smooth="yes"/>
      <point x="98.26709591351012" y="137.7183442110228"/>
      <point x="201.6436458835446" y="31.347093282954745"/>
      <point x="337.4801910929177" y="31.34709328295477" type="curve" smooth="yes"/>
      <point x="473.3167348802633" y="31.34709328295477"/>
      <point x="576.6932847253343" y="137.71834820549918"/>
      <point x="576.6932862723248" y="288.9022425350486" type="curve" smooth="yes"/>
      <point x="576.6932862723248" y="439.98265802489834"/>
      <point x="473.22375847304545" y="546.130845469095"/>
      <point x="337.4801910929177" y="546.1308454690949" type="curve"/>
      <point x="200.71827425879087" y="546.1308454690949"/>
      <point x="98.26709733439804" y="427.7624435220986"/>
    </contour>
  </outline>
</glyph>
<glyph name="uni00F8" format="2">
  <advance width="693"/>
  <unicode hex="00F8"/>
  <anchor x="346" y="577.8261138372574" name="top"/>
  <anchor x="346" y="-145" name="bottom"/>
  <outline>
    <contour>
      <point x="54.45944663116" y="288.830975427733" type="curve" smooth="yes"/>
      <point x="54.45944663116" y="451.7488375385901"/>
      <point x="188.93946130959404" y="591.2808122568877"/>
      <point x="347.19406690337985" y="591.2808122568877" type="curve" smooth="yes"/>
      <point x="524.4225715840525" y="591.2808122568877"/>
      <point x="639.9286871755996" y="451.74883753859024"/>
      <point x="639.9286871755995" y="288.8309754277325" type="curve" smooth="yes"/>
      <point x="639.9286871755995" y="125.86192822854144"/>
      <point x="505.4983924963211" y="-13.80287350483826"/>
      <point x="347.1940669033798" y="-13.802873504838217" type="curve" smooth="yes"/>
      <point x="169.90988105583023" y="-13.802873504838217"/>
      <point x="54.459446631160006" y="125.86192822854146"/>
    </contour>
    <contour>
      <point x="559.9551041364003" y="577.8261138372574" type="line"/>
      <point x="609.2447232941983" y="577.8261138372574" type="line"/>
      <point x="123.59212417802753" y="0.0" type="line"/>
      <point x="75.30050279411029" y="0.0" type="line"/>
    </contour>
    <contour>
      <point x="107.98097172397243" y="288.9022425350492" type="curve" smooth="yes"/>
      <point x="107.98097172397243" y="137.7183442110228"/>
      <point x="211.3575216940069" y="31.347093282954745"/>
      <point x="347.19406690338" y="31.34709328295477" type="curve" smooth="yes"/>
      <point x="483.0306106907256" y="31.34709328295477"/>
      <point x="586.4071605357966" y="137.71834820549918"/>
      <point x="586.4071620827872" y="288.9022425350486" type="curve" smooth="yes"/>
      <point x="586.4071620827872" y="439.98265802489834"/>
      <point x="482.9376342835078" y="546.130845469095"/>
      <point x="347.19406690338" y="546.1308454690949" type="curve"/>
      <point x="210.43215006925317" y="546.1308454690949"/>
      <point x="107.98097314486034" y="427.7624435220986"/>
    </contour>
  </outline>
</glyph>
<glyph name="uni00FF" format="2">
  <advance width="504"/>
  <unicode hex="00FF"/>
  <anchor x="252" y="577.8261138372574" name="top"/>
  <anchor x="252" y="-145" name="bottom"/>
  <outline>
    <contour>
      <point x="453.72541607828487" y="577.8705566475887" type="line"/>
      <point x="505.515336530283" y="577.8261138372574" type="line"/>
      <point x="170.0054284080361" y="-99.75886461632912" type="line"/>
      <point x="114.59199821921074" y="-99.75886461632912" type="line"/>
      <point x="244.8151575107141" y="159.48075500885554" type="line"/>
      <point x="246.431856028936" y="111.94070750023691" type="line"/>
      <point x="-1.7340634231582428" y="577.8261138372574" type="line"/>
      <point x="52.57401908259677" y="577.7816710269259" type="line"/>
      <point x="265.30679071301324" y="181.2156107620819" type="line"/>
      <point x="250.75560357469672" y="176.2754030108865" type="line"/>
    </contour>
    <contour>
      <point x="98.08516655054042" y="701.6605621731169" type="curve" smooth="yes"/>
      <point x="98.08516655054042" y="726.6840679109297"/>
      <point x="114.78546593860494" y="741.7143761692168"/>
      <point x="140.82092830269153" y="741.7143761692168" type="curve" smooth="yes"/>
      <point x="166.8563906667782" y="741.7143761692168"/>
      <point x="183.55669005484265" y="726.6840679109297"/>
      <point x="183.55669005484265" y="701.6605621731169" type="curve" smooth="yes"/>
      <point x="183.55669005484265" y="676.6370564353037"/>
      <point x="166.85947423853045" y="661.6067481770167"/>
      <point x="140.82092830269153" y="661.6067481770168" type="curve" smooth="yes"/>
      <point x="114.78546593860494" y="661.6067481770168"/>
      <point x="98.08516655054042" y="676.6370564353039"/>
    </contour>
    <contour>
      <point x="328.5793779089478" y="701.6605621731169" type="curve" smooth="yes"/>
      <point x="328.5793779089478" y="726.6840679109297"/>
      <point x="345.2796772970123" y="741.7143761692168"/>
      <point x="371.3151396610989" y="741.7143761692168" type="curve" smooth="yes"/>
      <point x="397.3506020251856" y="741.7143761692168"/>
      <point x="414.05090141325" y="726.6840679109297"/>
      <point x="414.05090141325" y="701.6605621731169" type="curve" smooth="yes"/>
      <point x="414.05090141325" y="676.6370564353037"/>
      <point x="397.3536855969378" y="661.6067481770167"/>
      <point x="371.3151396610989" y="661.6067481770168" type="curve" smooth="yes"/>
      <point x="345.2796772970123" y="661.6067481770168"/>
      <point x="328.5793779089478" y="676.6370564353039"/>
    </contour>
  </outline>
</glyph>
<glyph name="uni0101" format="2">
  <advance width="523"/>
  <unicode hex="0101"/>
  <anchor x="261" y="577.8261138372574" name="top"/>
  <anchor x="261" y="-145" name="bottom"/>
  <outline>
    <contour>
      <point x="409.99760958575547" y="0.0" type="line"/>
      <point x="409.99760958575547" y="339.4818055971202" type="line" smooth="yes"/>
      <point x="409.99760958575547" y="483.4712231740625"/>
      <point x="338.9851932607646" y="542.178326025579"/>
      <point x="231.96544718286216" y="542.178326025579" type="curve" smooth="yes"/>
      <point x="168.53031888599145" y="542.178326025579"/>
      <point x="108.35345186185248" y="515.80551990311"/>
      <point x="53.4192733125218" y="475.08781316642074" type="curve"/>
      <point x="26.425421294536456" y="512.7769871623852" type="line"/>
      <point x="82.7545672122211" y="555.350770964984"/>
      <point x="147.9895705926957" y="584.2153698100965"/>
      <point x="235.70703137783323" y="584.2153698100965" type="curve" smooth="yes"/>
      <point x="365.84559317259067" y="584.2153698100965"/>
      <point x="456.64505943644843" y="511.83317763028947"/>
      <point x="456.64505943644843" y="350.9262137351684" type="curve" smooth="yes"/>
      <point x="456.64505943644843" y="0.0" type="line"/>
    </contour>
    <contour>
      <point x="428.3022527782399" y="225.1745819865766" type="curve"/>
      <point x="428.3022527782399" y="96.99351527426893" type="line"/>
      <point x="404.0430687852866" y="53.194300171640904"/>
      <point x="351.8156225188493" y="-13.535047596084027"/>
      <point x="234.23570742390672" y="-13.535047596084027" type="curve" smooth="yes"/>
      <point x="121.6555981901499" y="-13.535047596084027"/>
      <point x="45.2526292513449" y="49.45276764104943"/>
      <point x="45.2526292513449" y="152.078908391147" type="curve" smooth="yes"/>
      <point x="45.2526292513449" y="263.53921724265865"/>
      <point x="139.76506280887764" y="326.4763041102408"/>
      <point x="258.5506779266171" y="326.4763041102408" type="curve" smooth="yes"/>
      <point x="348.0449256113874" y="326.4763041102408"/>
      <point x="416.41300798475476" y="276.27899621282205"/>
    </contour>
    <contour>
      <point x="371.9480198603425" y="702.6973704624804" type="line"/>
      <point x="371.9480198603425" y="654.9179324150437" type="line"/>
      <point x="136.57357677290983" y="654.9179324150437" type="line"/>
      <point x="136.57357677290983" y="702.6973704624804" type="line"/>
    </contour>
    <contour>
      <point x="255.83454614325538" y="288.55641595695516" type="curve" smooth="yes"/>
      <point x="160.82200298705848" y="288.55641595695516"/>
      <point x="95.87439134330404" y="238.82068195557528"/>
      <point x="95.87439100759941" y="155.4934666066872" type="curve" smooth="yes"/>
      <point x="95.87439100759941" y="75.22419987556472"/>
      <point x="150.99776517753023" y="22.61814823968041"/>
      <point x="240.01301992576887" y="22.618148239680398" type="curve" smooth="yes"/>
      <point x="333.47757647894366" y="22.618148239680398"/>
      <point x="409.99760958575547" y="100.40950945535911"/>
      <point x="409.99760958575547" y="170.43587131186638" type="curve" smooth="yes"/>
      <point x="409.99760958575547" y="241.38296923305825"/>
      <point x="337.0846636692483" y="288.55641595695516"/>
    </contour>
  </outline>
</glyph>
<glyph name="uni0102" format="2">
  <advance width="699"/>
  <unicode hex="0102"/>
  <anchor x="349" y="727.3047239705434" name="top"/>
  <anchor x="349" y="-145" name="bottom"/>
  <outline>
    <contour>
      <point x="314.09212229787516" y="727.3047239705434" type="line"/>
      <point x="363.3866972949958" y="727.3047239705434" type="line"/>
      <point x="69.63388777544023" y="-0.4629258721517405" type="line"/>
      <point x="12.199244451715254" y="-0.4629258721517405" type="line"/>
    </contour>
    <contour>
      <point x="155.17944339191462" y="261.53266564252806" type="line"/>
      <point x="541.1522063497723" y="261.53266564252806" type="line"/>
      <point x="566.4348942566361" y="219.47209705826955" type="line"/>
      <point x="138.00935365829497" y="219.47209705826955" type="line"/>
    </contour>
    <contour>
      <point x="335.48410089683273" y="727.3047239705434" type="line"/>
      <point x="388.0339847935561" y="727.3047239705434" type="line"/>
      <point x="686.4548427477772" y="-1.014959815270424" type="line"/>
      <point x="627.5282292758918" y="-1.014959815270424" type="line"/>
    </contour>
    <contour>
      <point x="351.7762506411126" y="813.6583816785543" type="curve" smooth="yes"/>
      <point x="420.0282402482984" y="813.6583816785543"/>
      <point x="453.4287016780597" y="858.134691646666"/>
      <point x="457.54421093920257" y="903.1576888467475" type="curve"/>
      <point x="506.2886959573329" y="903.1576888467475" type="line"/>
      <point x="506.2886959573329" y="820.7478298590174"/>
      <point x="429.8812593715011" y="770.8869023925652"/>
      <point x="351.7762506411126" y="770.8869023925652" type="curve" smooth="yes"/>
      <point x="260.05576795156827" y="770.8869023925652"/>
      <point x="198.2932427679639" y="828.0580092804681"/>
      <point x="198.2932427679639" y="903.1576888467475" type="curve"/>
      <point x="248.3471026610017" y="903.1576888467475" type="line"/>
      <point x="255.21329439426586" y="856.8424257768389"/>
      <point x="278.8428267940867" y="813.6583816785543"/>
    </contour>
  </outline>
</glyph>
<glyph name="uni0103" format="2">
  <advance width="516"/>
  <unicode hex="0103"/>
  <anchor x="258" y="577.8261138372574" name="top"/>
  <anchor x="258" y="-145" name="bottom"/>
  <outline>
    <contour>
      <point x="408.06045411828035" y="0.0" type="line"/>
      <point x="408.06045411828035" y="339.4818055971202" type="line" smooth="yes"/>
      <point x="408.06045411828035" y="483.4712231740625"/>
      <point x="337.0480377932895" y="542.178326025579"/>
      <point x="230.02829171538704" y="542.178326025579" type="curve" smooth="yes"/>
      <point x="166.59316341851633" y="542.178326025579"/>
      <point x="106.41629639437735" y="515.80551990311"/>
      <point x="51.48211784504668" y="475.08781316642074" type="curve"/>
      <point x="24.488265827061333" y="512.7769871623852" type="line"/>
      <point x="80.81741174474598" y="555.350770964984"/>
      <point x="146.0524151252206" y="584.2153698100965"/>
      <point x="233.7698759103581" y="584.2153698100965" type="curve" smooth="yes"/>
      <point x="363.90843770511555" y="584.2153698100965"/>
      <point x="454.7079039689733" y="511.83317763028947"/>
      <point x="454.7079039689733" y="350.9262137351684" type="curve" smooth="yes"/>
      <point x="454.7079039689733" y="0.0" type="line"/>
    </contour>
    <contour>
      <point x="426.3650973107648" y="225.1745819865766" type="curve"/>
      <point x="426.3650973107648" y="96.99351527426893" type="line"/>
      <point x="402.1059133178115" y="53.194300171640904"/>
      <point x="349.8784670513742" y="-13.535047596084027"/>
      <point x="232.2985519564316" y="-13.535047596084027" type="curve" smooth="yes"/>
      <point x="119.71844272267478" y="-13.535047596084027"/>
      <point x="43.31547378386978" y="49.45276764104943"/>
      <point x="43.31547378386978" y="152.078908391147" type="curve" smooth="yes"/>
      <point x="43.31547378386978" y="263.53921724265865"/>
      <point x="137.82790734140252" y="326.4763041102408"/>
      <point x="256.61352245914196" y="326.4763041102408" type="curve" smooth="yes"/>
      <point x="346.10777014391226" y="326.4763041102408"/>
      <point x="414.47585251727963" y="276.27899621282205"/>
    </contour>
    <contour>
      <point x="256.2470272479277" y="673.2321363238091" type="curve" smooth="yes"/>
      <point x="324.4990168551133" y="673.2321363238091"/>
      <point x="357.8994782848747" y="717.7084462919208"/>
      <point x="362.0149875460175" y="762.7314434920022" type="curve"/>
      <point x="410.75947256414787" y="762.7314434920022" type="line"/>
      <point x="410.75947256414787" y="680.3215845042721"/>
      <point x="334.3520359783161" y="630.4606570378198"/>
      <point x="256.2470272479277" y="630.4606570378198" type="curve" smooth="yes"/>
      <point x="164.5265445583833" y="630.4606570378198"/>
      <point x="102.76401937477891" y="687.6317639257228"/>
      <point x="102.76401937477893" y="762.7314434920022" type="curve"/>
      <point x="152.81787926781672" y="762.7314434920022" type="line"/>
      <point x="159.68407100108087" y="716.4161804220936"/>
      <point x="183.31360340090174" y="673.232136323809"/>
    </contour>
    <contour>
      <point x="253.89739067578026" y="288.55641595695516" type="curve" smooth="yes"/>
      <point x="158.88484751958336" y="288.55641595695516"/>
      <point x="93.93723587582892" y="238.82068195557528"/>
      <point x="93.93723554012429" y="155.4934666066872" type="curve" smooth="yes"/>
      <point x="93.93723554012429" y="75.22419987556472"/>
      <point x="149.0606097100551" y="22.61814823968041"/>
      <point x="238.07586445829375" y="22.618148239680398" type="curve" smooth="yes"/>
      <point x="331.54042101146854" y="22.618148239680398"/>
      <point x="408.06045411828035" y="100.40950945535911"/>
      <point x="408.06045411828035" y="170.43587131186638" type="curve" smooth="yes"/>
      <point x="408.06045411828035" y="241.38296923305825"/>
      <point x="335.1475082017732" y="288.55641595695516"/>
    </contour>
  </outline>
</glyph>
<glyph name="uni010A" format="2">
  <advance width="606"/>
  <unicode hex="010A"/>
  <anchor x="303" y="727.3047239705434" name="top"/>
  <anchor x="303" y="-145" name="bottom"/>
  <outline>
    <contour>
      <point x="602.3161032117468" y="666.5439706011609" type="curve"/>
      <point x="572.8549318600142" y="626.554228863618" type="line"/>
      <point x="530.6242188514253" y="663.989723074727"/>
      <point x="456.33967324306843" y="688.3803527502102"/>
      <point x="406.85520724950163" y="688.3803527502102" type="curve" smooth="yes"/>
      <point x="207.78994368641395" y="688.3803527502102"/>
      <point x="103.7588542282715" y="544.344773954291"/>
      <point x="103.75885332836064" y="367.3153734725117" type="curve" smooth="yes"/>
      <point x="103.75885239243676" y="183.2016840747497"/>
      <point x="216.43928272828867" y="41.38551055988637"/>
      <point x="402.43005166463945" y="41.38551055988634" type="curve" smooth="yes"/>
      <point x="464.6255610081837" y="41.38551055988634"/>
      <point x="526.6939456776594" y="68.47612065068117"/>
      <point x="570.3820652864979" y="96.541258498585" type="curve"/>
      <point x="594.902473609293" y="52.44658114502948" type="line"/>
      <point x="527.1230444915942" y="4.328205280254437"/>
      <point x="460.6221766989679" y="-11.796600750992418"/>
      <point x="402.87729350184054" y="-11.796600750992413" type="curve" smooth="yes"/>
      <point x="171.79915249045234" y="-11.796600750992413"/>
      <point x="48.82574847947842" y="170.45134770504387"/>
      <point x="48.8257484794784" y="367.1935659709904" type="curve" smooth="yes"/>
      <point x="48.8257484794784" y="563.6153050533574"/>
      <point x="168.45579694217707" y="740.8528311262157"/>
      <point x="405.62953737197853" y="740.8528311262157" type="curve" smooth="yes"/>
      <point x="473.12642148675025" y="740.8528311262157"/>
      <point x="555.8994860974511" y="712.5503973591078"/>
    </contour>
    <contour>
      <point x="383.53237874418903" y="888.2921166342488" type="curve" smooth="yes"/>
      <point x="408.9739264264039" y="888.2921166342488"/>
      <point x="429.8989709068254" y="870.765759023691"/>
      <point x="429.89897090682535" y="843.378961652791" type="curve" smooth="yes"/>
      <point x="429.89897090682535" y="815.9921642818908"/>
      <point x="408.97392642640386" y="798.465806671333"/>
      <point x="383.53237874418903" y="798.4658066713329" type="curve"/>
      <point x="358.09083106197414" y="798.4658066713329"/>
      <point x="337.16578658155265" y="815.9921642818907"/>
      <point x="337.1657865815526" y="843.378961652791" type="curve" smooth="yes"/>
      <point x="337.1657865815526" y="870.7657590236911"/>
      <point x="358.0908310619741" y="888.2921166342489"/>
    </contour>
  </outline>
</glyph>
<glyph name="uni010B" format="2">
  <advance width="539"/>
  <unicode hex="010B"/>
  <anchor x="269" y="577.8261138372574" name="top"/>
  <anchor x="269" y="-145" name="bottom"/>
  <outline>
    <contour>
      <point x="529.7536292811471" y="525.5215324307828" type="curve"/>
      <point x="503.7103688019824" y="488.36485825438655" type="line"/>
      <point x="460.0048742599501" y="525.4320466460118"/>
      <point x="409.101786676218" y="548.5698275729873"/>
      <point x="346.95731497434787" y="548.5698275729872" type="curve"/>
      <point x="196.12652978339315" y="548.5698275729872"/>
      <point x="102.56491930662096" y="436.1021027675986"/>
      <point x="102.56491859303122" y="295.72559469415376" type="curve" smooth="yes"/>
      <point x="102.56491779785911" y="139.3004954164339"/>
      <point x="205.57285604781777" y="33.29728247332946"/>
      <point x="361.34881156907824" y="33.29728247332947" type="curve" smooth="yes"/>
      <point x="417.09184544344555" y="33.29728247332947"/>
      <point x="468.3859130746916" y="53.306171800996424"/>
      <point x="512.9362696292657" y="82.60854491492769" type="curve"/>
      <point x="532.8353244270564" y="45.4394721248532" type="line"/>
      <point x="488.6576386734806" y="6.003690472480898"/>
      <point x="421.1720143584073" y="-13.299081842514731"/>
      <point x="360.87544311940735" y="-13.299081842514731" type="curve" smooth="yes"/>
      <point x="167.56456836891417" y="-13.299081842514731"/>
      <point x="48.311600536026276" y="112.2646631915548"/>
      <point x="48.311600536026276" y="293.1873620653224" type="curve" smooth="yes"/>
      <point x="48.311600536026276" y="456.3837664352875"/>
      <point x="161.64954917909049" y="593.996522072666"/>
      <point x="349.662309220173" y="593.996522072666" type="curve" smooth="yes"/>
      <point x="407.10428109374914" y="593.996522072666"/>
      <point x="473.29945171919445" y="578.0561516610212"/>
    </contour>
    <contour>
      <point x="335.63128629813474" y="749.3014250091682" type="curve" smooth="yes"/>
      <point x="361.0728339803496" y="749.3014250091682"/>
      <point x="381.9978784607711" y="731.7750673986103"/>
      <point x="381.9978784607711" y="704.3882700277103" type="curve" smooth="yes"/>
      <point x="381.9978784607711" y="677.0014726568102"/>
      <point x="361.0728339803496" y="659.4751150462523"/>
      <point x="335.63128629813474" y="659.4751150462523" type="curve" smooth="yes"/>
      <point x="310.18973861591985" y="659.4751150462523"/>
      <point x="289.26469413549836" y="677.0014726568102"/>
      <point x="289.26469413549836" y="704.3882700277103" type="curve" smooth="yes"/>
      <point x="289.26469413549836" y="731.7750673986104"/>
      <point x="310.18973861591985" y="749.3014250091683"/>
    </contour>
  </outline>
</glyph>
<glyph name="uni010D" format="2">
  <advance width="537"/>
  <unicode hex="010D"/>
  <anchor x="268" y="577.8261138372574" name="top"/>
  <anchor x="268" y="-145" name="bottom"/>
  <outline>
    <contour>
      <point x="527.8124251445032" y="525.5215324307828" type="curve"/>
      <point x="501.7691646653385" y="488.36485825438655" type="line"/>
      <point x="458.0636701233062" y="525.4320466460118"/>
      <point x="407.16058253957414" y="548.5698275729873"/>
      <point x="345.016110837704" y="548.5698275729872" type="curve"/>
      <point x="194.18532564674928" y="548.5698275729872"/>
      <point x="100.62371516997709" y="436.1021027675986"/>
      <point x="100.62371445638733" y="295.72559469415376" type="curve" smooth="yes"/>
      <point x="100.62371366121522" y="139.3004954164339"/>
      <point x="203.6316519111739" y="33.29728247332946"/>
      <point x="359.40760743243436" y="33.29728247332947" type="curve" smooth="yes"/>
      <point x="415.1506413068017" y="33.29728247332947"/>
      <point x="466.4447089380477" y="53.306171800996424"/>
      <point x="510.99506549262173" y="82.60854491492769" type="curve"/>
      <point x="530.8941202904125" y="45.4394721248532" type="line"/>
      <point x="486.7164345368367" y="6.003690472480898"/>
      <point x="419.23081022176336" y="-13.299081842514731"/>
      <point x="358.9342389827635" y="-13.299081842514731" type="curve" smooth="yes"/>
      <point x="165.6233642322703" y="-13.299081842514731"/>
      <point x="46.3703963993824" y="112.2646631915548"/>
      <point x="46.370396399382386" y="293.1873620653224" type="curve" smooth="yes"/>
      <point x="46.370396399382386" y="456.3837664352875"/>
      <point x="159.70834504244658" y="593.996522072666"/>
      <point x="347.7211050835291" y="593.996522072666" type="curve" smooth="yes"/>
      <point x="405.16307695710526" y="593.996522072666"/>
      <point x="471.3582475825506" y="578.0561516610212"/>
    </contour>
    <contour>
      <point x="321.03515687943354" y="662.2169971982514" type="line"/>
      <point x="448.0023633815607" y="761.2846012224957" type="line"/>
      <point x="506.23476571924243" y="761.2846012224957" type="line"/>
      <point x="350.222567722203" y="629.0138147683134" type="line"/>
      <point x="318.2046362424043" y="629.0138147683134" type="line"/>
      <point x="163.2865666189197" y="761.2846012224957" type="line"/>
      <point x="222.91062632432025" y="761.2846012224957" type="line"/>
      <point x="347.4737545276599" y="662.2169971982514" type="line"/>
    </contour>
  </outline>
</glyph>
<glyph name="uni0111" format="2">
  <advance width="700"/>
  <unicode hex="0111"/>
  <anchor x="350" y="577.8261138372574" name="top"/>
  <anchor x="350" y="-145" name="bottom"/>
  <outline>
    <contour>
      <point x="563.9879334834951" y="0.07739554720163708" type="line"/>
      <point x="563.9879334834951" y="461.57505948339883" type="line"/>
      <point x="563.9879334834951" y="461.57505948339883" type="line"/>
      <point x="563.9879334834951" y="727.3047239705434" type="line"/>
      <point x="613.1026459713302" y="727.3047239705434" type="line"/>
      <point x="613.1026459713302" y="0.07739554720163708" type="line"/>
    </contour>
    <contour>
      <point x="585.9072484277848" y="376.97585519410256" type="curve"/>
      <point x="578.2874342455584" y="160.72258056713946" type="line"/>
      <point x="546.3741306490189" y="92.98312879572107"/>
      <point x="474.2697874176648" y="-13.931203636790826"/>
      <point x="319.5917270026802" y="-13.93120363679084" type="curve"/>
      <point x="163.75602049436063" y="-13.93120363679084"/>
      <point x="54.25147481071929" y="123.16174191610212"/>
      <point x="54.25147481071928" y="283.58942773043157" type="curve" smooth="yes"/>
      <point x="54.25147481071928" y="455.072276976499"/>
      <point x="180.4679642749161" y="590.6044941108531"/>
      <point x="335.20166198288234" y="590.6044941108531" type="curve" smooth="yes"/>
      <point x="482.54188227099553" y="590.6044941108531"/>
      <point x="571.2925527639675" y="480.66228672457567"/>
    </contour>
    <contour>
      <point x="397.23988879691615" y="681.7361244000381" type="line"/>
      <point x="700.1459848471452" y="681.7361244000381" type="line"/>
      <point x="700.1459848471452" y="638.4915474390679" type="line"/>
      <point x="397.23988879691615" y="638.4915474390679" type="line"/>
    </contour>
    <contour>
      <point x="333.34701914760694" y="548.5448960317218" type="curve"/>
      <point x="199.3430138669016" y="548.5448960317218"/>
      <point x="104.95696695094799" y="422.07092974527353"/>
      <point x="104.95696695094797" y="286.271882316401" type="curve" smooth="yes"/>
      <point x="104.95696695094797" y="145.2921945970026"/>
      <point x="190.38938032025683" y="30.74762593816098"/>
      <point x="326.78561624312" y="30.747625938160958" type="curve" smooth="yes"/>
      <point x="438.90665934470087" y="30.747625938160958"/>
      <point x="563.9879334834953" y="124.48930032541881"/>
      <point x="563.9879334834951" y="292.448109048184" type="curve" smooth="yes"/>
      <point x="563.9879334834951" y="443.0153113559094"/>
      <point x="469.28951596474866" y="548.5448960317219"/>
    </contour>
  </outline>
</glyph>
<glyph name="uni0117" format="2">
  <advance width="603"/>
  <unicode hex="0117"/>
  <anchor x="301" y="577.8261138372574" name="top"/>
  <anchor x="301" y="-145" name="bottom"/>
  <outline>
    <contour>
      <point x="67.86980764133975" y="326.18012017832297" type="line"/>
      <point x="539.0348466665722" y="326.18012017832297" type="line"/>
      <point x="539.0348466665722" y="284.5956079973161" type="line"/>
      <point x="67.86980764133975" y="284.5956079973161" type="line"/>
    </contour>
    <contour>
      <point x="362.7659213846268" y="36.43488784254485" type="curve" smooth="yes"/>
      <point x="413.14735976673813" y="36.43488784254485"/>
      <point x="463.19472795918205" y="52.44562869327008"/>
      <point x="497.2093220859526" y="73.92448936528254" type="curve"/>
      <point x="519.9296078457962" y="33.20420679195731" type="line"/>
      <point x="495.2874358977718" y="11.856499171364682"/>
      <point x="430.49388455447036" y="-12.74166874448585"/>
      <point x="360.23899644354475" y="-12.741668744485855" type="curve"/>
      <point x="160.50900893287624" y="-12.741668744485855"/>
      <point x="46.92982633903932" y="119.94669865295162"/>
      <point x="46.929826339039295" y="289.1833382947973" type="curve" smooth="yes"/>
      <point x="46.929826339039295" y="451.93583141495617"/>
      <point x="154.07254011413528" y="593.1405737310258"/>
      <point x="324.76013898751046" y="593.1405737310259" type="curve" smooth="yes"/>
      <point x="467.15761796488107" y="593.1405737310259"/>
      <point x="564.5909438761823" y="468.2824824464292"/>
      <point x="564.5909438761825" y="321.68900570100413" type="curve" smooth="yes"/>
      <point x="564.5909438761825" y="311.8795055030916"/>
      <point x="563.5662620212602" y="293.2077170944896"/>
      <point x="562.018829279741" y="284.5956079973161" type="curve"/>
      <point x="517.9233211027777" y="284.5956079973161" type="line"/>
      <point x="517.9233211027777" y="315.42281007371673" type="line" smooth="yes"/>
      <point x="517.9233211027777" y="454.34841422769784"/>
      <point x="442.1201301864815" y="546.3429744331111"/>
      <point x="318.09903451072887" y="546.3429744331112" type="curve" smooth="yes"/>
      <point x="170.6470770430198" y="546.3429744331112"/>
      <point x="98.84632799440283" y="421.7478362810441"/>
      <point x="98.84632799440286" y="289.1828451649485" type="curve" smooth="yes"/>
      <point x="98.84632799440286" y="148.65152733900436"/>
      <point x="183.07923076850034" y="36.43488784254487"/>
    </contour>
    <contour>
      <point x="319.8289433646729" y="749.9927687134573" type="curve" smooth="yes"/>
      <point x="345.2704910468878" y="749.9927687134573"/>
      <point x="366.1955355273093" y="732.4664111028994"/>
      <point x="366.19553552730935" y="705.0796137319993" type="curve" smooth="yes"/>
      <point x="366.19553552730935" y="677.6928163610992"/>
      <point x="345.27049104688786" y="660.1664587505413"/>
      <point x="319.8289433646729" y="660.1664587505413" type="curve" smooth="yes"/>
      <point x="294.387395682458" y="660.1664587505413"/>
      <point x="273.46235120203653" y="677.6928163610992"/>
      <point x="273.46235120203653" y="705.0796137319993" type="curve" smooth="yes"/>
      <point x="273.46235120203653" y="732.4664111028994"/>
      <point x="294.387395682458" y="749.9927687134573"/>
    </contour>
  </outline>
</glyph>
<glyph name="uni0119" format="2">
  <advance width="615"/>
  <unicode hex="0119"/>
  <anchor x="307" y="577.8261138372574" name="top"/>
  <anchor x="307" y="-145" name="bottom"/>
  <outline>
    <contour>
      <point x="72.97980826481721" y="326.18012017832297" type="line"/>
      <point x="544.1448472900496" y="326.18012017832297" type="line"/>
      <point x="544.1448472900496" y="284.5956079973161" type="line"/>
      <point x="72.97980826481721" y="284.5956079973161" type="line"/>
    </contour>
    <contour>
      <point x="367.8759220081043" y="36.43488784254485" type="curve" smooth="yes"/>
      <point x="418.25736039021564" y="36.43488784254485"/>
      <point x="468.30472858265955" y="52.44562869327008"/>
      <point x="502.31932270942997" y="73.92448936528254" type="curve"/>
      <point x="525.0396084692736" y="33.20420679195731" type="line"/>
      <point x="500.3974365212492" y="11.856499171364682"/>
      <point x="435.60388517794775" y="-12.74166874448585"/>
      <point x="365.3489970670222" y="-12.741668744485855" type="curve"/>
      <point x="165.6190095563537" y="-12.741668744485855"/>
      <point x="52.03982696251677" y="119.94669865295162"/>
      <point x="52.03982696251675" y="289.1833382947973" type="curve" smooth="yes"/>
      <point x="52.03982696251675" y="451.93583141495617"/>
      <point x="159.18254073761273" y="593.1405737310258"/>
      <point x="329.8701396109879" y="593.1405737310259" type="curve" smooth="yes"/>
      <point x="472.26761858835846" y="593.1405737310259"/>
      <point x="569.7009444996598" y="468.2824824464292"/>
      <point x="569.7009444996598" y="321.68900570100413" type="curve" smooth="yes"/>
      <point x="569.7009444996598" y="311.8795055030916"/>
      <point x="568.6762626447376" y="293.2077170944896"/>
      <point x="567.1288299032184" y="284.5956079973161" type="curve"/>
      <point x="523.0333217262552" y="284.5956079973161" type="line"/>
      <point x="523.0333217262552" y="315.42281007371673" type="line" smooth="yes"/>
      <point x="523.0333217262552" y="454.34841422769784"/>
      <point x="447.230130809959" y="546.3429744331111"/>
      <point x="323.2090351342064" y="546.3429744331112" type="curve" smooth="yes"/>
      <point x="175.7570776664973" y="546.3429744331112"/>
      <point x="103.95632861788033" y="421.7478362810441"/>
      <point x="103.95632861788032" y="289.1828451649485" type="curve" smooth="yes"/>
      <point x="103.95632861788032" y="148.65152733900436"/>
      <point x="188.18923139197778" y="36.43488784254487"/>
    </contour>
    <contour>
      <point x="474.5490736479543" y="51.18397721042403" type="curve"/>
      <point x="522.8033558172211" y="51.18397721042403" type="line"/>
      <point x="441.0599712793315" y="-7.200984614236283"/>
      <point x="495.20006737030894" y="-92.7752740919049"/>
      <point x="564.76703678922" y="-57.57310332249906" type="curve"/>
      <point x="578.4025249692743" y="-87.27349516343972" type="line"/>
      <point x="481.8147233068142" y="-156.14636485409608"/>
      <point x="378.17990195621076" y="-34.33902531041626"/>
    </contour>
  </outline>
</glyph>
<glyph name="uni011F" format="2">
  <advance width="575"/>
  <unicode hex="011F"/>
  <anchor x="287" y="577.8261138372574" name="top"/>
  <anchor x="287" y="-145" name="bottom"/>
  <outline>
    <contour>
      <point x="458.66967870031647" y="152.95448912654584" type="curve" smooth="yes"/>
      <point x="458.66967870031647" y="206.91082023585366" type="line"/>
      <point x="458.66967870031647" y="306.6744828479916" type="line"/>
      <point x="458.66967870031647" y="577.8261138372574" type="line"/>
      <point x="506.8499439667112" y="577.8261138372574" type="line"/>
      <point x="506.8499439667112" y="142.89337123799913" type="line" smooth="yes"/>
      <point x="506.8499439667112" y="-32.806792509871116"/>
      <point x="408.5473161979878" y="-114.17412738675915"/>
      <point x="249.65240867627816" y="-114.17412738675915" type="curve" smooth="yes"/>
      <point x="163.2920025180438" y="-114.17412738675915"/>
      <point x="78.92098356859591" y="-87.09473209832956"/>
      <point x="36.65108783097805" y="-42.35739374797549" type="curve"/>
      <point x="68.13319599619187" y="-6.5249430943415705" type="line"/>
      <point x="105.554367289681" y="-42.94138530825812"/>
      <point x="180.285200074372" y="-71.51420375054786"/>
      <point x="249.65240867627816" y="-71.51420375054786" type="curve" smooth="yes"/>
      <point x="374.55709937378515" y="-71.51420375054786"/>
      <point x="458.66967870031647" y="-1.4485784057251436"/>
    </contour>
    <contour>
      <point x="487.86621181947976" y="430.96025849439417" type="curve"/>
      <point x="471.2921133833567" y="258.2985289204785" type="line"/>
      <point x="453.2632314368577" y="204.76397447143611"/>
      <point x="385.08772686253553" y="126.52008809649377"/>
      <point x="283.3894313109855" y="126.52008809649378" type="curve" smooth="yes"/>
      <point x="158.17330673759375" y="126.52008809649378"/>
      <point x="46.36882857152304" y="210.8122350827616"/>
      <point x="46.36882857152303" y="355.37593316114044" type="curve" smooth="yes"/>
      <point x="46.36882857152303" y="491.7394879399677"/>
      <point x="152.21615026202178" y="586.6555878856979"/>
      <point x="278.9498738193048" y="586.6555878856979" type="curve" smooth="yes"/>
      <point x="388.8843172594828" y="586.6555878856979"/>
      <point x="464.38808381853255" y="519.453277179325"/>
    </contour>
    <contour>
      <point x="282.30448728674656" y="671.8691871088308" type="curve" smooth="yes"/>
      <point x="350.5564768939322" y="671.8691871088308"/>
      <point x="383.95693832369363" y="716.3454970769426"/>
      <point x="388.0724475848365" y="761.3684942770241" type="curve"/>
      <point x="436.8169326029668" y="761.3684942770241" type="line"/>
      <point x="436.8169326029668" y="678.958635289294"/>
      <point x="360.40949601713504" y="629.0977078228416"/>
      <point x="282.30448728674656" y="629.0977078228417" type="curve" smooth="yes"/>
      <point x="190.58400459720218" y="629.0977078228417"/>
      <point x="128.82147941359779" y="686.2688147107447"/>
      <point x="128.8214794135978" y="761.3684942770241" type="curve"/>
      <point x="178.87533930663562" y="761.3684942770241" type="line"/>
      <point x="185.74153103989977" y="715.0532312071155"/>
      <point x="209.37106343972064" y="671.8691871088308"/>
    </contour>
    <contour>
      <point x="283.9414712397137" y="545.508712656739" type="curve" smooth="yes"/>
      <point x="177.1171361357774" y="545.508712656739"/>
      <point x="97.3499380300608" y="463.5497095999727"/>
      <point x="97.34993694225683" y="356.55395974498805" type="curve" smooth="yes"/>
      <point x="97.34993694225683" y="233.97834645926181"/>
      <point x="177.51820962425674" y="169.17297689186347"/>
      <point x="280.59888321039494" y="169.17297689186347" type="curve" smooth="yes"/>
      <point x="361.94751325598577" y="169.17297689186347"/>
      <point x="458.66967526465385" y="227.14962296363547"/>
      <point x="458.66967870031647" y="362.15255875587934" type="curve" smooth="yes"/>
      <point x="458.66967870031647" y="482.05210249772597"/>
      <point x="371.6188354928801" y="545.5087126567389"/>
    </contour>
  </outline>
</glyph>
<glyph name="uni0121" format="2">
  <advance width="577"/>
  <unicode hex="0121"/>
  <anchor x="288" y="577.8261138372574" name="top"/>
  <anchor x="288" y="-145" name="bottom"/>
  <outline>
    <contour>
      <point x="459.9529220867229" y="152.95448912654584" type="curve" smooth="yes"/>
      <point x="459.9529220867229" y="206.91082023585366" type="line"/>
      <point x="459.9529220867229" y="306.6744828479916" type="line"/>
      <point x="459.9529220867229" y="577.8261138372574" type="line"/>
      <point x="508.13318735311765" y="577.8261138372574" type="line"/>
      <point x="508.13318735311765" y="142.89337123799913" type="line" smooth="yes"/>
      <point x="508.13318735311765" y="-32.806792509871116"/>
      <point x="409.83055958439434" y="-114.17412738675915"/>
      <point x="250.93565206268457" y="-114.17412738675915" type="curve" smooth="yes"/>
      <point x="164.5752459044502" y="-114.17412738675915"/>
      <point x="80.20422695500233" y="-87.09473209832956"/>
      <point x="37.93433121738448" y="-42.35739374797549" type="curve"/>
      <point x="69.41643938259831" y="-6.5249430943415705" type="line"/>
      <point x="106.83761067608744" y="-42.94138530825812"/>
      <point x="181.56844346077844" y="-71.51420375054786"/>
      <point x="250.93565206268457" y="-71.51420375054786" type="curve" smooth="yes"/>
      <point x="375.84034276019156" y="-71.51420375054786"/>
      <point x="459.9529220867229" y="-1.4485784057251436"/>
    </contour>
    <contour>
      <point x="489.14945520588617" y="430.96025849439417" type="curve"/>
      <point x="472.5753567697631" y="258.2985289204785" type="line"/>
      <point x="454.54647482326413" y="204.76397447143611"/>
      <point x="386.37097024894194" y="126.52008809649377"/>
      <point x="284.6726746973919" y="126.52008809649378" type="curve" smooth="yes"/>
      <point x="159.45655012400016" y="126.52008809649378"/>
      <point x="47.65207195792945" y="210.8122350827616"/>
      <point x="47.65207195792946" y="355.37593316114044" type="curve" smooth="yes"/>
      <point x="47.65207195792946" y="491.7394879399677"/>
      <point x="153.49939364842822" y="586.6555878856979"/>
      <point x="280.2331172057112" y="586.6555878856979" type="curve" smooth="yes"/>
      <point x="390.16756064588924" y="586.6555878856979"/>
      <point x="465.67132720493896" y="519.453277179325"/>
    </contour>
    <contour>
      <point x="280.2736218424194" y="748.5000520584871" type="curve" smooth="yes"/>
      <point x="305.7151695246343" y="748.5000520584871"/>
      <point x="326.6402140050558" y="730.9736944479292"/>
      <point x="326.6402140050558" y="703.5868970770291" type="curve" smooth="yes"/>
      <point x="326.6402140050558" y="676.200099706129"/>
      <point x="305.7151695246343" y="658.6737420955711"/>
      <point x="280.2736218424194" y="658.6737420955711" type="curve" smooth="yes"/>
      <point x="254.83207416020448" y="658.6737420955711"/>
      <point x="233.90702967978302" y="676.200099706129"/>
      <point x="233.90702967978302" y="703.5868970770291" type="curve" smooth="yes"/>
      <point x="233.90702967978302" y="730.9736944479292"/>
      <point x="254.8320741602045" y="748.5000520584871"/>
    </contour>
    <contour>
      <point x="285.2247146261201" y="545.508712656739" type="curve" smooth="yes"/>
      <point x="178.4003795221838" y="545.508712656739"/>
      <point x="98.63318141646721" y="463.5497095999727"/>
      <point x="98.63318032866326" y="356.55395974498805" type="curve" smooth="yes"/>
      <point x="98.63318032866326" y="233.97834645926181"/>
      <point x="178.80145301066318" y="169.17297689186347"/>
      <point x="281.88212659680136" y="169.17297689186347" type="curve" smooth="yes"/>
      <point x="363.2307566423922" y="169.17297689186347"/>
      <point x="459.95291865106026" y="227.14962296363547"/>
      <point x="459.9529220867229" y="362.15255875587934" type="curve" smooth="yes"/>
      <point x="459.9529220867229" y="482.05210249772597"/>
      <point x="372.90207887928653" y="545.5087126567389"/>
    </contour>
  </outline>
</glyph>
<glyph name="uni0122" format="2">
  <advance width="718"/>
  <unicode hex="0122"/>
  <anchor x="359" y="727.3047239705434" name="top"/>
  <anchor x="359" y="-145" name="bottom"/>
  <outline>
    <contour>
      <point x="401.75003127021296" y="343.7539295905474" type="line"/>
      <point x="672.666600251017" y="343.7539295905474" type="line"/>
      <point x="675.0330421271326" y="329.0975862525022"/>
      <point x="676.1361486483673" y="281.81363062334844"/>
      <point x="676.1361486483673" y="265.5658210096687" type="curve" smooth="yes"/>
      <point x="676.1361486483673" y="63.924490120771026"/>
      <point x="532.6445952063264" y="-12.61459064109539"/>
      <point x="391.1890955065342" y="-12.614590641095392" type="curve"/>
      <point x="164.94673704055518" y="-12.614590641095392"/>
      <point x="49.51674119371438" y="169.3607862409346"/>
      <point x="49.51674119371438" y="363.2947193579645" type="curve" smooth="yes"/>
      <point x="49.51674119371438" y="590.493502492593"/>
      <point x="182.49648925784203" y="740.3911263374857"/>
      <point x="411.6701213030267" y="740.3911263374857" type="curve" smooth="yes"/>
      <point x="468.09080755763546" y="740.3911263374857"/>
      <point x="546.1259180287972" y="721.6091987304521"/>
      <point x="610.5854975422787" y="662.6323753533392" type="curve"/>
      <point x="581.2485582054636" y="621.0158396612296" type="line"/>
      <point x="530.976029718545" y="658.6401513613703"/>
      <point x="474.48913325640547" y="691.6329524988272"/>
      <point x="409.7538962280574" y="691.6329524988272" type="curve" smooth="yes"/>
      <point x="204.72704761657184" y="691.6329524988272"/>
      <point x="101.09675015183734" y="552.6670229653821"/>
      <point x="101.09675015183736" y="363.2947193579645" type="curve" smooth="yes"/>
      <point x="101.09674905168906" y="178.25904771857472"/>
      <point x="200.56664355550754" y="37.29100549590299"/>
      <point x="400.5978116485722" y="37.29100549590297" type="curve" smooth="yes"/>
      <point x="540.0321152278009" y="37.29100549590297"/>
      <point x="627.8177063379711" y="138.6195264505522"/>
      <point x="627.8177063379711" y="260.6224234002201" type="curve" smooth="yes"/>
      <point x="627.8177063379711" y="332.8674994478414" type="line"/>
      <point x="649.7906199923059" y="296.5939587205219" type="line"/>
      <point x="401.75003127021296" y="296.5939587205219" type="line"/>
    </contour>
    <contour>
      <point x="397.50002727518716" y="-41.47522664943391" type="line"/>
      <point x="457.1369445952773" y="-41.47522664943391" type="line"/>
      <point x="400.52852753815915" y="-151.19360252858087" type="line"/>
      <point x="349.5957951657668" y="-151.19360252858087" type="line"/>
    </contour>
  </outline>
</glyph>
<glyph name="uni012A" format="2">
  <advance width="186"/>
  <unicode hex="012A"/>
  <anchor x="93" y="727.3047239705434" name="top"/>
  <anchor x="93" y="-145" name="bottom"/>
  <outline>
    <contour>
      <point x="68.62505243851851" y="727.3047239705434" type="line"/>
      <point x="117.61183068117151" y="727.3047239705434" type="line"/>
      <point x="117.61183068117151" y="-0.4629258721517405" type="line"/>
      <point x="68.62505243851851" y="-0.4629258721517405" type="line"/>
    </contour>
    <contour>
      <point x="210.01568715284358" y="835.1665327520504" type="line"/>
      <point x="210.01568715284358" y="787.3870947046138" type="line"/>
      <point x="-25.358755934589116" y="787.3870947046138" type="line"/>
      <point x="-25.358755934589116" y="835.1665327520504" type="line"/>
    </contour>
  </outline>
</glyph>
<glyph name="uni012E" format="2">
  <advance width="189"/>
  <unicode hex="012E"/>
  <anchor x="94" y="727.3047239705434" name="top"/>
  <anchor x="94" y="-145" name="bottom"/>
  <outline>
    <contour>
      <point x="70.87471157572062" y="727.3047239705434" type="line"/>
      <point x="119.86148981837361" y="727.3047239705434" type="line"/>
      <point x="119.86148981837361" y="-0.4629258721517405" type="line"/>
      <point x="70.87471157572062" y="-0.4629258721517405" type="line"/>
    </contour>
    <contour>
      <point x="80.05228550444808" y="18.70923520025194" type="curve"/>
      <point x="128.3065676737148" y="18.70923520025194" type="line"/>
      <point x="46.56318313582521" y="-39.67572662440838"/>
      <point x="100.70327922680269" y="-125.250016102077"/>
      <point x="170.2702486457136" y="-90.04784533267114" type="curve"/>
      <point x="183.90573682576795" y="-119.74823717361181" type="line"/>
      <point x="87.31793516330801" y="-188.62110686426814"/>
      <point x="-16.316886187295495" y="-66.81376732058835"/>
    </contour>
  </outline>
</glyph>
<glyph name="uni0130" format="2">
  <advance width="186"/>
  <unicode hex="0130"/>
  <anchor x="93" y="727.3047239705434" name="top"/>
  <anchor x="93" y="-145" name="bottom"/>
  <outline>
    <contour>
      <point x="68.62505243851851" y="727.3047239705434" type="line"/>
      <point x="117.61183068117151" y="727.3047239705434" type="line"/>
      <point x="117.61183068117151" y="-0.4629258721517405" type="line"/>
      <point x="68.62505243851851" y="-0.4629258721517405" type="line"/>
    </contour>
    <contour>
      <point x="92.93774117717025" y="882.3321635630355" type="curve" smooth="yes"/>
      <point x="118.37928885938516" y="882.3321635630355"/>
      <point x="139.30433333980665" y="864.8058059524776"/>
      <point x="139.30433333980665" y="837.4190085815775" type="curve" smooth="yes"/>
      <point x="139.30433333980665" y="810.0322112106774"/>
      <point x="118.37928885938516" y="792.5058536001195"/>
      <point x="92.93774117717025" y="792.5058536001194" type="curve"/>
      <point x="67.49619349495535" y="792.5058536001194"/>
      <point x="46.57114901453386" y="810.0322112106772"/>
      <point x="46.57114901453386" y="837.4190085815775" type="curve" smooth="yes"/>
      <point x="46.57114901453386" y="864.8058059524776"/>
      <point x="67.49619349495535" y="882.3321635630355"/>
    </contour>
  </outline>
</glyph>
<glyph name="uni0131" format="2">
  <advance width="184"/>
  <unicode hex="0131"/>
  <anchor x="92" y="578" name="top"/>
  <outline>
    <contour>
      <point x="68.62505243851851" y="0.07739554720163708" type="line"/>
      <point x="68.62505243851851" y="577.8261138372574" type="line"/>
      <point x="115.44237924009963" y="577.8261138372574" type="line"/>
      <point x="115.44237924009963" y="0.07739554720163708" type="line"/>
    </contour>
  </outline>
</glyph>
<glyph name="uni013A" format="2">
  <advance width="247"/>
  <unicode hex="013A"/>
  <anchor x="123" y="727.3047239705434" name="top"/>
  <anchor x="123" y="-145" name="bottom"/>
  <outline>
    <contour>
      <point x="116.51763424562465" y="727.3047239705434" type="line"/>
      <point x="116.51763424562465" y="81.8873625254366" type="line" smooth="yes"/>
      <point x="116.51763424562465" y="50.48310875474684"/>
      <point x="128.1719257691131" y="41.74012615937109"/>
      <point x="172.1038177404983" y="41.74012615937109" type="curve" smooth="yes"/>
      <point x="188.91313307994272" y="41.74012615937109"/>
      <point x="228.8192589189591" y="41.926289991307996"/>
      <point x="245.98391868342136" y="42.571143219361744" type="curve"/>
      <point x="245.98391868342136" y="0.6211557402622356" type="line"/>
      <point x="227.3840154134736" y="-0.43339690668917097"/>
      <point x="187.09943834885462" y="-1.4184124446982154"/>
      <point x="159.93278162018555" y="-1.4184124446982154" type="curve" smooth="yes"/>
      <point x="100.46578805834653" y="-1.4184124446982154"/>
      <point x="68.62505243851842" y="10.112778289424915"/>
      <point x="68.62505243851844" y="69.90577830010797" type="curve" smooth="yes"/>
      <point x="68.62505243851844" y="727.3047239705434" type="line"/>
    </contour>
    <contour>
      <point x="126.41926312565641" y="760.4108465746951" type="line"/>
      <point x="67.27367334349172" y="760.4108465746951" type="line"/>
      <point x="184.58719312248635" y="892.6816330288776" type="line"/>
      <point x="249.6771994953083" y="892.6816330288776" type="line"/>
    </contour>
  </outline>
</glyph>
<glyph name="uni013E" format="2">
  <advance width="317"/>
  <unicode hex="013E"/>
  <anchor x="158" y="727.3047239705434" name="top"/>
  <anchor x="158" y="-145" name="bottom"/>
  <outline>
    <contour>
      <point x="118.26973978928156" y="727.3047239705434" type="line"/>
      <point x="118.26973978928156" y="81.8873625254366" type="line" smooth="yes"/>
      <point x="118.26973978928156" y="50.48310875474684"/>
      <point x="129.92403131277" y="41.74012615937109"/>
      <point x="173.8559232841552" y="41.74012615937109" type="curve" smooth="yes"/>
      <point x="190.66523862359963" y="41.74012615937109"/>
      <point x="230.571364462616" y="41.926289991307996"/>
      <point x="247.73602422707827" y="42.571143219361744" type="curve"/>
      <point x="247.73602422707827" y="0.6211557402622356" type="line"/>
      <point x="229.13612095713052" y="-0.43339690668917097"/>
      <point x="188.85154389251153" y="-1.4184124446982154"/>
      <point x="161.6848871638425" y="-1.4184124446982154" type="curve" smooth="yes"/>
      <point x="101.50666103358921" y="-1.4184124446982154"/>
      <point x="68.62505243851852" y="9.397646643723611"/>
      <point x="68.62505243851851" y="69.90577830010797" type="curve" smooth="yes"/>
      <point x="68.62505243851851" y="727.3047239705434" type="line"/>
    </contour>
    <contour>
      <point x="254.2111148208592" y="727.3047239705434" type="line"/>
      <point x="309.7572267793957" y="727.3047239705434" type="line"/>
      <point x="198.10272701661182" y="489.40537804211385" type="line"/>
      <point x="145.27240573250066" y="489.40537804211385" type="line"/>
    </contour>
  </outline>
</glyph>
<glyph name="uni0142" format="2">
  <advance width="282"/>
  <unicode hex="0142"/>
  <anchor x="141" y="727.3047239705434" name="top"/>
  <anchor x="141" y="-145" name="bottom"/>
  <outline>
    <contour>
      <point x="144.28282021089728" y="727.3047239705434" type="line"/>
      <point x="144.28282021089728" y="81.8873625254366" type="line" smooth="yes"/>
      <point x="144.28282021089728" y="50.48310875474684"/>
      <point x="155.93711173438572" y="41.74012615937109"/>
      <point x="199.86900370577095" y="41.74012615937109" type="curve" smooth="yes"/>
      <point x="216.67831904521537" y="41.74012615937109"/>
      <point x="256.58444488423174" y="41.926289991307996"/>
      <point x="273.749104648694" y="42.571143219361744" type="curve"/>
      <point x="273.749104648694" y="0.6211557402622356" type="line"/>
      <point x="255.14920137874626" y="-0.43339690668917097"/>
      <point x="214.86462431412727" y="-1.4184124446982154"/>
      <point x="187.6979675854582" y="-1.4184124446982154" type="curve" smooth="yes"/>
      <point x="127.51974145520492" y="-1.4184124446982154"/>
      <point x="94.63813286013423" y="9.397646643723611"/>
      <point x="94.63813286013425" y="69.90577830010797" type="curve" smooth="yes"/>
      <point x="94.63813286013425" y="727.3047239705434" type="line"/>
    </contour>
    <contour>
      <point x="-2.079901315808561" y="345.6546025241159" type="line"/>
      <point x="260.449984188597" y="497.1739523599506" type="line"/>
      <point x="284.30390553509625" y="461.91192037630907" type="line"/>
      <point x="18.02024503964789" y="308.7248010564492" type="line"/>
    </contour>
  </outline>
</glyph>
<glyph name="uni0145" format="2">
  <advance width="677"/>
  <unicode hex="0145"/>
  <anchor x="338" y="577.8261138372574" name="top"/>
  <anchor x="338" y="-145" name="bottom"/>
  <outline>
    <contour>
      <point x="68.62505243851851" y="727.3047239705434" type="line"/>
      <point x="112.51360905149623" y="727.3047239705434" type="line"/>
      <point x="112.51360905149623" y="0.0" type="line"/>
      <point x="68.62505243851851" y="0.0" type="line"/>
    </contour>
    <contour>
      <point x="563.4176243955573" y="727.3047239705434" type="line"/>
      <point x="608.0677139026327" y="727.3047239705434" type="line"/>
      <point x="608.0677139026327" y="0.0" type="line"/>
      <point x="563.4176243955573" y="0.0" type="line"/>
    </contour>
    <contour>
      <point x="94.67137727981238" y="727.3047239705434" type="line"/>
      <point x="130.35584082318007" y="727.3047239705434" type="line"/>
      <point x="563.4176243955573" y="57.149539177942934" type="line"/>
      <point x="585.5934362205718" y="57.149539177942934" type="line"/>
      <point x="585.5934362205718" y="0.0" type="line"/>
      <point x="548.9947681087309" y="0.0" type="line"/>
      <point x="112.51360905149623" y="672.7085007440338" type="line"/>
      <point x="94.67137727981238" y="672.7085007440338" type="line"/>
    </contour>
    <contour>
      <point x="340.84436378157665" y="-39.67071549711137" type="line"/>
      <point x="400.48128110166675" y="-39.67071549711137" type="line"/>
      <point x="343.87286404454863" y="-149.3890913762583" type="line"/>
      <point x="292.94013167215627" y="-149.3890913762583" type="line"/>
    </contour>
  </outline>
</glyph>
<glyph name="uni0147" format="2">
  <advance width="677"/>
  <unicode hex="0147"/>
  <anchor x="338" y="577.8261138372574" name="top"/>
  <anchor x="338" y="-145" name="bottom"/>
  <outline>
    <contour>
      <point x="68.62505243851851" y="727.3047239705434" type="line"/>
      <point x="112.51360905149623" y="727.3047239705434" type="line"/>
      <point x="112.51360905149623" y="0.0" type="line"/>
      <point x="68.62505243851851" y="0.0" type="line"/>
    </contour>
    <contour>
      <point x="563.4176243955573" y="727.3047239705434" type="line"/>
      <point x="608.0677139026327" y="727.3047239705434" type="line"/>
      <point x="608.0677139026327" y="0.0" type="line"/>
      <point x="563.4176243955573" y="0.0" type="line"/>
    </contour>
    <contour>
      <point x="94.67137727981238" y="727.3047239705434" type="line"/>
      <point x="130.35584082318007" y="727.3047239705434" type="line"/>
      <point x="563.4176243955573" y="57.149539177942934" type="line"/>
      <point x="585.5934362205718" y="57.149539177942934" type="line"/>
      <point x="585.5934362205718" y="0.0" type="line"/>
      <point x="548.9947681087309" y="0.0" type="line"/>
      <point x="112.51360905149623" y="672.7085007440338" type="line"/>
      <point x="94.67137727981238" y="672.7085007440338" type="line"/>
    </contour>
    <contour>
      <point x="327.5196297578953" y="797.9135020014835" type="line"/>
      <point x="454.4868362600226" y="896.9811060257279" type="line"/>
      <point x="512.7192385977042" y="896.9811060257279" type="line"/>
      <point x="356.70704060066475" y="764.7103195715455" type="line"/>
      <point x="324.6891091208661" y="764.7103195715455" type="line"/>
      <point x="169.77103949738148" y="896.9811060257279" type="line"/>
      <point x="229.39509920278203" y="896.9811060257279" type="line"/>
      <point x="353.95822740612164" y="797.9135020014835" type="line"/>
    </contour>
  </outline>
</glyph>
<glyph name="uni0151" format="2">
  <advance width="673"/>
  <unicode hex="0151"/>
  <anchor x="336" y="577.8261138372574" name="top"/>
  <anchor x="336" y="-145" name="bottom"/>
  <outline>
    <contour>
      <point x="43.880142351110315" y="288.830975427733" type="curve" smooth="yes"/>
      <point x="43.880142351110315" y="451.7488375385901"/>
      <point x="178.36015702954435" y="591.2808122568877"/>
      <point x="336.6147626233302" y="591.2808122568877" type="curve" smooth="yes"/>
      <point x="513.8432673040029" y="591.2808122568877"/>
      <point x="629.34938289555" y="451.74883753859024"/>
      <point x="629.3493828955499" y="288.8309754277325" type="curve" smooth="yes"/>
      <point x="629.3493828955499" y="125.86192822854144"/>
      <point x="494.91908821627146" y="-13.80287350483826"/>
      <point x="336.6147626233301" y="-13.802873504838217" type="curve" smooth="yes"/>
      <point x="159.33057677578051" y="-13.802873504838217"/>
      <point x="43.880142351110294" y="125.86192822854146"/>
    </contour>
    <contour>
      <point x="289.6320011545912" y="633.6077136066352" type="line"/>
      <point x="241.11947638255285" y="633.6077136066352" type="line"/>
      <point x="314.24161655755336" y="765.8785000608176" type="line"/>
      <point x="366.46527940469736" y="765.8785000608176" type="line"/>
    </contour>
    <contour>
      <point x="416.49632523660534" y="633.6077136066352" type="line"/>
      <point x="367.983800464567" y="633.6077136066352" type="line"/>
      <point x="441.10594063956745" y="765.8785000608176" type="line"/>
      <point x="493.3296034867115" y="765.8785000608176" type="line"/>
    </contour>
    <contour>
      <point x="97.40166744392275" y="288.9022425350492" type="curve" smooth="yes"/>
      <point x="97.40166744392275" y="137.7183442110228"/>
      <point x="200.7782174139572" y="31.347093282954745"/>
      <point x="336.6147626233303" y="31.34709328295477" type="curve" smooth="yes"/>
      <point x="472.4513064106759" y="31.34709328295477"/>
      <point x="575.8278562557468" y="137.71834820549918"/>
      <point x="575.8278578027375" y="288.9022425350486" type="curve" smooth="yes"/>
      <point x="575.8278578027375" y="439.98265802489834"/>
      <point x="472.35833000345815" y="546.130845469095"/>
      <point x="336.6147626233303" y="546.1308454690949" type="curve"/>
      <point x="199.85284578920346" y="546.1308454690949"/>
      <point x="97.40166886481063" y="427.7624435220986"/>
    </contour>
  </outline>
</glyph>
<glyph name="uni0153" format="2">
  <advance width="1162"/>
  <unicode hex="0153"/>
  <anchor x="581" y="577.8261138372574" name="top"/>
  <anchor x="581" y="-145" name="bottom"/>
  <outline>
    <contour>
      <point x="68.05548871856612" y="288.830975427733" type="curve" smooth="yes"/>
      <point x="68.05548871856612" y="451.7488375385901"/>
      <point x="202.53550339700016" y="591.2808122568877"/>
      <point x="360.79010899078594" y="591.2808122568877" type="curve" smooth="yes"/>
      <point x="537.2137058768974" y="591.2808122568877"/>
      <point x="650.7693030769509" y="451.008923508832"/>
      <point x="650.7693030769509" y="288.8309754277325" type="curve" smooth="yes"/>
      <point x="650.7693030769509" y="126.60160880739622"/>
      <point x="518.3759261479097" y="-13.80287350483826"/>
      <point x="360.7901089907859" y="-13.802873504838217" type="curve" smooth="yes"/>
      <point x="183.50592314323632" y="-13.802873504838217"/>
      <point x="68.0554887185661" y="125.86192822854146"/>
    </contour>
    <contour>
      <point x="620.2770441008346" y="325.8990244185742" type="line"/>
      <point x="1091.442083126067" y="325.8990244185742" type="line"/>
      <point x="1091.442083126067" y="284.3145122375673" type="line"/>
      <point x="620.2770441008346" y="284.3145122375673" type="line"/>
    </contour>
    <contour>
      <point x="915.1731578441215" y="36.15379208279608" type="curve" smooth="yes"/>
      <point x="965.5545962262331" y="36.15379208279608"/>
      <point x="1015.601964418677" y="52.16453293352131"/>
      <point x="1049.6165585454476" y="73.64339360553376" type="curve"/>
      <point x="1072.336844305291" y="32.92311103220854" type="line"/>
      <point x="1047.6946723572664" y="11.575403411615909"/>
      <point x="982.9011210139653" y="-13.022764504234623"/>
      <point x="912.6462329030395" y="-13.022764504234626" type="curve"/>
      <point x="713.5225613417201" y="-13.022764504234626"/>
      <point x="601.1740135892375" y="120.1793508541775"/>
      <point x="601.1740135892375" y="288.9022425350486" type="curve" smooth="yes"/>
      <point x="601.1740135892375" y="451.1658067640849"/>
      <point x="706.9925435171382" y="592.8594779712771"/>
      <point x="877.1673754470053" y="592.8594779712771" type="curve" smooth="yes"/>
      <point x="1019.564854424376" y="592.8594779712771"/>
      <point x="1116.9981803356773" y="468.00138668668035"/>
      <point x="1116.998180335677" y="321.40790994125535" type="curve" smooth="yes"/>
      <point x="1116.998180335677" y="311.5984097433428"/>
      <point x="1115.9734984807546" y="292.92662133474084"/>
      <point x="1114.426065739236" y="284.3145122375673" type="curve"/>
      <point x="1070.3305575622726" y="284.3145122375673" type="line"/>
      <point x="1070.3305575622726" y="315.141714313968" type="line" smooth="yes"/>
      <point x="1070.3305575622726" y="454.0673184679491"/>
      <point x="994.5273666459763" y="546.0618786733623"/>
      <point x="870.5062709702237" y="546.0618786733623" type="curve" smooth="yes"/>
      <point x="723.0543135025146" y="546.0618786733623"/>
      <point x="651.2535644538976" y="421.46674052129526"/>
      <point x="651.2535644538976" y="288.9017494051997" type="curve" smooth="yes"/>
      <point x="651.2535644538976" y="148.37043157925558"/>
      <point x="735.4864672279951" y="36.15379208279609"/>
    </contour>
    <contour>
      <point x="121.57701381137855" y="288.9022425350492" type="curve" smooth="yes"/>
      <point x="121.57701381137855" y="137.7183442110228"/>
      <point x="224.953563781413" y="31.347093282954745"/>
      <point x="360.7901089907861" y="31.34709328295477" type="curve" smooth="yes"/>
      <point x="496.6266527781317" y="31.34709328295477"/>
      <point x="600.0032026232027" y="137.71834820549918"/>
      <point x="600.0032041701933" y="288.9022425350486" type="curve" smooth="yes"/>
      <point x="600.0032041701933" y="439.98265802489834"/>
      <point x="496.5336763709139" y="546.130845469095"/>
      <point x="360.7901089907861" y="546.1308454690949" type="curve"/>
      <point x="224.02819215665926" y="546.1308454690949"/>
      <point x="121.57701523226643" y="427.7624435220986"/>
    </contour>
  </outline>
</glyph>
<glyph name="uni0158" format="2">
  <advance width="631"/>
  <unicode hex="0158"/>
  <anchor x="315" y="727.3047239705434" name="top"/>
  <anchor x="315" y="-145" name="bottom"/>
  <outline>
    <contour>
      <point x="68.62505243851851" y="727.3047239705434" type="line"/>
      <point x="118.46155821033466" y="727.3047239705434" type="line"/>
      <point x="118.46155821033466" y="-0.4629258721517405" type="line"/>
      <point x="68.62505243851851" y="-0.4629258721517405" type="line"/>
    </contour>
    <contour>
      <point x="337.8325575612435" y="308.67315871820057" type="curve" smooth="yes"/>
      <point x="93.21891561650583" y="308.67315871820057" type="line"/>
      <point x="93.21891561650583" y="353.83584567752143" type="line"/>
      <point x="330.838818238224" y="353.83584567752143" type="line" smooth="yes"/>
      <point x="449.44921697257934" y="353.83584567752143"/>
      <point x="530.2927358425086" y="414.8395659338054"/>
      <point x="530.2927364000527" y="524.5190107284591" type="curve" smooth="yes"/>
      <point x="530.2927369476315" y="632.2379907039339"/>
      <point x="431.6432329871095" y="680.7099307368046"/>
      <point x="335.48078688519723" y="680.7099307368046" type="curve" smooth="yes"/>
      <point x="93.21891561650583" y="680.7099307368046" type="line"/>
      <point x="93.21891561650583" y="727.3047239705434" type="line"/>
      <point x="345.49271763811504" y="727.3047239705434" type="line" smooth="yes"/>
      <point x="479.86310607408313" y="727.3047239705434"/>
      <point x="581.2419225599783" y="650.2103702402108"/>
      <point x="581.2419225599783" y="530.7025376023388" type="curve" smooth="yes"/>
      <point x="581.2419225599783" y="378.0166145286129"/>
      <point x="467.53656164321" y="308.6731587182005"/>
    </contour>
    <contour>
      <point x="267.52975849671157" y="325.36949234516106" type="line"/>
      <point x="332.2994767555504" y="325.36949234516106" type="line"/>
      <point x="600.5631880039264" y="-3.5909156197435452" type="line"/>
      <point x="533.7548219087688" y="-3.5909156197435452" type="line"/>
    </contour>
    <contour>
      <point x="294.28663571533485" y="793.505840597598" type="line"/>
      <point x="421.2538422174622" y="892.5734446218423" type="line"/>
      <point x="479.48624455514386" y="892.5734446218423" type="line"/>
      <point x="323.4740465581043" y="760.30265816766" type="line"/>
      <point x="291.45611507830563" y="760.30265816766" type="line"/>
      <point x="136.53804545482106" y="892.5734446218423" type="line"/>
      <point x="196.1621051602216" y="892.5734446218423" type="line"/>
      <point x="320.72523336356124" y="793.505840597598" type="line"/>
    </contour>
  </outline>
</glyph>
